<?xml version="1.0" encoding="UTF-8"?>
<svg version="1.1" xmlns="http://www.w3.org/2000/svg" viewBox="0 0 1080 1080">
<path d="M0 0 C0.97646484 0.29874023 0.97646484 0.29874023 1.97265625 0.60351562 C38.37388791 11.78490171 73.58265481 26.89280152 106 47 C106.92683594 47.56589844 107.85367188 48.13179688 108.80859375 48.71484375 C127.96761981 60.6418478 146.3857611 73.86928123 163.43310547 88.65966797 C164.93580689 89.94508879 166.46934122 91.194198 168.00390625 92.44140625 C176.80602637 99.63740027 184.82696411 107.60979939 192.875 115.625 C193.47323578 116.21805939 194.07147156 116.81111877 194.68783569 117.42214966 C196.39937131 119.1219916 198.1033015 120.82906816 199.8046875 122.5390625 C200.32898849 123.05940567 200.85328949 123.57974884 201.39347839 124.11585999 C205 127.76947578 205 127.76947578 205 130 C205.57105469 130.22429687 206.14210938 130.44859375 206.73046875 130.6796875 C209.65942596 132.38362474 211.22418893 134.46175427 213.3125 137.125 C215.95420132 140.44648766 218.59551624 143.72322654 221.4375 146.875 C226.26440144 152.33878427 230.61835163 158.17884755 235 164 C235.63550781 164.83917969 236.27101563 165.67835938 236.92578125 166.54296875 C247.46073479 180.73244579 257.29220176 195.61854518 266 211 C266.47759766 211.84304687 266.95519531 212.68609375 267.44726562 213.5546875 C279.80897163 235.5378957 290.63050918 258.19453944 299 282 C299.42667969 283.2051123 299.85335937 284.41022461 300.29296875 285.65185547 C330.6812572 371.89696867 335.61515045 466.92035204 284.09985352 632.31958008 C283.30384851 633.98029053 282.50130181 635.63788686 281.69116211 637.29174805 C279.71310618 640.97258289 279.71310618 640.97258289 279 645 C280.54330109 646.56656665 280.54330109 646.56656665 282.54936218 648.1831398 C286.62106311 651.64808595 290.43385555 655.28811153 294.21020508 659.06976318 C295.22879592 660.08389735 295.22879592 660.08389735 296.26796436 661.11851907 C298.52084434 663.36279429 300.77020022 665.61056673 303.01953125 667.85839844 C304.642988 669.47722131 306.26664025 671.09584814 307.89047241 672.71429443 C312.28548984 677.09624387 316.67721423 681.4814787 321.06792831 685.86773968 C323.81474571 688.61161831 326.56214581 691.35491219 329.3097229 694.09803009 C336.93278085 701.70899177 344.5549829 709.32080666 352.1736908 716.93612289 C352.6600208 717.42223333 353.1463508 717.90834377 353.64741808 718.40918483 C354.13483097 718.89637944 354.62224386 719.38357405 355.12442684 719.88553214 C356.11192103 720.87258288 357.09941677 721.85963206 358.08691406 722.84667969 C358.57673362 723.33627781 359.06655318 723.82587594 359.57121575 724.33031037 C367.50719999 732.26234697 375.44991685 740.18760502 383.39555943 748.10996553 C391.57376351 756.2644011 399.74614467 764.42463001 407.91318417 772.59024835 C412.49057536 777.16659383 417.07034059 781.74050034 421.65615845 786.30840302 C425.97035905 790.60607485 430.27728052 794.91091233 434.57884598 799.22122955 C436.15317326 800.79632453 437.73003972 802.36888654 439.30970383 803.93862915 C449.44594124 814.01495556 458.9789998 823.84228453 465.25 836.875 C465.58080566 837.55353027 465.91161133 838.23206055 466.25244141 838.93115234 C476.93546576 861.43032894 478.02283583 887.67742403 469.69213867 911.13793945 C465.17774766 922.93950729 458.74095277 932.53794409 450.078125 941.74609375 C447.93400185 944.01621712 447.93400185 944.01621712 445.88671875 946.66015625 C443.8234947 949.21889581 441.58660013 950.98119014 439 953 C437.31237149 954.6454378 435.6459651 956.31288577 434 958 C433.175 958.804375 432.35 959.60875 431.5 960.4375 C428.91719933 963.00940708 428.91719933 963.00940708 426.5 966.0625 C424.15961608 968.81245111 421.84091652 970.7982897 419 973 C416.46060949 975.4155178 414.15688282 977.79899388 412 980.5625 C409.88121393 983.14477053 407.62797078 984.94890086 405 987 C403.31237149 988.6454378 401.6459651 990.31288577 400 992 C399.175 992.804375 398.35 993.60875 397.5 994.4375 C394.91719933 997.00940708 394.91719933 997.00940708 392.5 1000.0625 C390.15961608 1002.81245111 387.84091652 1004.7982897 385 1007 C382.52446315 1009.35477895 380.26086492 1011.658177 378.1875 1014.375 C375.14471935 1018.02633678 371.64249656 1020.96039942 368 1024 C367.21109375 1024.66515625 366.4221875 1025.3303125 365.609375 1026.015625 C353.27242154 1036.1800332 338.97252266 1043.57896802 323 1046 C322.32453125 1046.10957031 321.6490625 1046.21914062 320.953125 1046.33203125 C313.99712727 1047.28403824 307.00484294 1047.16236391 300 1047 C298.99710938 1046.98324219 297.99421875 1046.96648437 296.9609375 1046.94921875 C284.27166796 1046.3506683 272.50029601 1041.03271799 261 1036 C261 1035.34 261 1034.68 261 1034 C259.68 1034 258.36 1034 257 1034 C255.01746321 1032.20592898 255.01746321 1032.20592898 253 1030 C251.59097325 1028.87942075 250.16384676 1027.78126843 248.72058868 1026.7051363 C244.3163576 1023.32007159 240.37848164 1019.65739596 236.47058105 1015.71781921 C235.7693929 1015.01904547 235.06820474 1014.32027173 234.34576845 1013.60032302 C232.02197826 1011.28212162 229.7053418 1008.95690706 227.38867188 1006.6315918 C225.71453289 1004.95852683 224.03996078 1003.28589518 222.36499023 1001.61366272 C217.83622391 997.08972628 213.31370348 992.55959355 208.79244041 988.02815986 C204.53855748 983.76636677 200.28034722 979.50890478 196.02228934 975.2512841 C187.59212169 966.82161589 179.16677905 958.38714174 170.74414062 949.94995117 C162.57069469 941.76239098 154.39372759 933.5783687 146.21289062 925.39819336 C145.70803129 924.89337398 145.20317196 924.3885546 144.68301386 923.86843767 C143.92702948 923.11251382 143.92702948 923.11251382 143.15577269 922.34131879 C133.83444598 913.02068125 124.51640826 903.69676183 115.19990763 894.37130051 C111.90534167 891.07371641 108.6097931 887.77711724 105.31394958 884.48081017 C100.88583967 880.0516989 96.46027769 875.62005739 92.03671265 871.18640709 C90.40931257 869.55607651 88.78105561 867.92660079 87.15190125 866.29802322 C84.93679586 864.08340554 82.72477087 861.86575762 80.5135498 859.64726257 C79.86114051 858.99640188 79.20873122 858.34554119 78.53655195 857.67495745 C74.11417977 853.22835954 74.11417977 853.22835954 73 851 C68.64880556 852.30535833 64.8105773 854.04517124 60.83203125 856.1953125 C59 857 59 857 56 857 C55.67 857.66 55.34 858.32 55 859 C52.24149521 860.18392043 49.49941255 861.2708943 46.6875 862.3125 C45.02557667 862.94148107 43.36411779 863.57169068 41.703125 864.203125 C40.89166016 864.51056641 40.08019531 864.81800781 39.24414062 865.13476562 C36.44679795 866.21328852 33.69139878 867.37786198 30.9375 868.5625 C13.78791261 875.76109224 -4.22888608 881.46597266 -22.3984375 885.421875 C-24.42951021 885.87322449 -26.43970005 886.41882183 -28.4375 887 C-95.57338831 905.84516163 -170.53614563 901.19815702 -238 887 C-239.79159317 886.66627186 -241.58325415 886.33290746 -243.375 886 C-247.06025638 885.25323272 -250.54659638 884.18747838 -254.10839844 882.97705078 C-256.97092499 882.00982423 -259.84082373 881.06678173 -262.7130127 880.12869263 C-281.6915735 873.92604843 -300.46024788 867.42986301 -319 860 C-319 859.34 -319 858.68 -319 858 C-320.09441406 857.8155835 -320.09441406 857.8155835 -321.2109375 857.62744141 C-323.93717213 857.01413407 -326.11148469 856.16462972 -328.625 854.9609375 C-329.49036377 854.5486792 -330.35572754 854.1364209 -331.24731445 853.71166992 C-332.15570068 853.27056885 -333.06408691 852.82946777 -334 852.375 C-335.40415161 851.69884644 -335.40415161 851.69884644 -336.83666992 851.0090332 C-345.63743097 846.74335433 -354.35103692 842.3577226 -362.625 837.125 C-365.81540395 834.92938272 -365.81540395 834.92938272 -369 834 C-369 833.34 -369 832.68 -369 832 C-369.70898438 831.74347656 -370.41796875 831.48695313 -371.1484375 831.22265625 C-374.22616588 829.90302751 -376.83160987 828.28052186 -379.625 826.4375 C-382.47063329 824.56250053 -384.76282389 823.0790587 -388 822 C-388 821.34 -388 820.68 -388 820 C-388.53753906 819.74992188 -389.07507813 819.49984375 -389.62890625 819.2421875 C-392.53652436 817.71892134 -395.20849279 815.94892663 -397.9375 814.125 C-398.95714844 813.44695313 -399.97679687 812.76890625 -401.02734375 812.0703125 C-404 810 -404 810 -406.69140625 807.8046875 C-408.95191253 805.82984337 -408.95191253 805.82984337 -412 805 C-413.69024472 803.35724976 -415.35418725 801.68726285 -417 800 C-418.71014616 798.56042996 -420.43994196 797.14391631 -422.1875 795.75 C-426.72775409 792.07629978 -431.10788827 788.27615118 -435.41796875 784.3359375 C-436.82067541 783.066923 -438.22976285 781.80426987 -439.66967773 780.57763672 C-445.99952191 775.1673884 -451.82937071 769.28260831 -457.6875 763.375 C-458.71655953 762.34090959 -459.74585507 761.30705398 -460.77539062 760.2734375 C-462.66772395 758.37302143 -464.5584121 756.471024 -466.44799805 754.56787109 C-468.20092226 752.80404665 -469.95807618 751.04441881 -471.71875 749.28833008 C-477.22848099 743.76149911 -482.10738896 737.69698481 -486.94921875 731.5859375 C-488.33863318 729.83395207 -489.73739055 728.08934282 -491.14453125 726.3515625 C-494.65618884 722.0124828 -497.95917178 717.67819726 -501 713 C-501.66 712.34 -502.32 711.68 -503 711 C-504.02409027 709.55848163 -505.02140643 708.09778333 -506 706.625 C-506.515625 705.85414063 -507.03125 705.08328125 -507.5625 704.2890625 C-509 702 -509 702 -510.0625 699.7734375 C-510.87513637 697.82004333 -510.87513637 697.82004333 -513 697 C-514.13444486 695.38897134 -515.20844584 693.73508584 -516.25 692.0625 C-516.87519531 691.05960938 -517.50039063 690.05671875 -518.14453125 689.0234375 C-518.75683594 688.02570312 -519.36914062 687.02796875 -520 686 C-520.49886719 685.18789063 -520.99773437 684.37578125 -521.51171875 683.5390625 C-534.76587341 661.67878549 -546.6750394 639.56199992 -556.08984375 615.7890625 C-557.53373941 612.1507558 -559.02600387 608.53787047 -560.5625 604.9375 C-565.87771744 592.24203132 -570.5319706 579.32453403 -574 566 C-574.31453125 564.80890625 -574.6290625 563.6178125 -574.953125 562.390625 C-577.70293343 551.69692555 -580.08160966 540.92275626 -582.34570312 530.11669922 C-582.78458844 528.0260985 -583.22866389 525.93658112 -583.67773438 523.84814453 C-586.98260121 508.39150012 -588.96503397 493.21694721 -589.78222656 477.42822266 C-589.9244694 475.06753166 -589.9244694 475.06753166 -590.50453186 473.10780334 C-591.01278078 470.94562845 -591.13333592 469.06477607 -591.14526367 466.84692383 C-591.15468994 465.62389557 -591.15468994 465.62389557 -591.16430664 464.37615967 C-591.16551514 463.49534729 -591.16672363 462.61453491 -591.16796875 461.70703125 C-591.1721582 460.78085999 -591.17634766 459.85468872 -591.18066406 458.90045166 C-591.19049699 455.87109192 -591.19044163 452.84187318 -591.1875 449.8125 C-591.18722809 448.7789035 -591.18695618 447.74530701 -591.18667603 446.6803894 C-591.15172831 417.7920521 -589.99553863 388.95493298 -584.38476562 360.53857422 C-583.99762414 357.98432477 -583.9946107 355.57824134 -584 353 C-583.34991495 350.99454896 -582.67887395 348.99588943 -582 347 C-581.01940443 342.97287919 -580.14622037 338.92162408 -579.25 334.875 C-576.65042071 323.40476543 -573.59414709 312.19429408 -570 301 C-569.74138184 300.17790039 -569.48276367 299.35580078 -569.21630859 298.50878906 C-562.9771685 278.7190762 -555.64420632 259.24945787 -545.97216797 240.86816406 C-544.59440987 238.22059877 -543.27633813 235.54462691 -541.95483398 232.86865234 C-531.88348612 212.51326676 -520.27668232 193.27105214 -507.19287109 174.70556641 C-506.05573688 173.07969255 -504.9431999 171.43669751 -503.83203125 169.79296875 C-503.20683594 168.87128906 -502.58164062 167.94960937 -501.9375 167 C-501.41027344 166.21625 -500.88304687 165.4325 -500.33984375 164.625 C-499.89769531 164.08875 -499.45554687 163.5525 -499 163 C-498.34 163 -497.68 163 -497 163 C-496.78085937 162.30777344 -496.56171875 161.61554688 -496.3359375 160.90234375 C-494.65870407 157.2585296 -492.26643562 154.52815364 -489.625 151.5625 C-488.54147922 150.32308051 -487.45815158 149.08349215 -486.375 147.84375 C-485.818125 147.21082031 -485.26125 146.57789063 -484.6875 145.92578125 C-481.97290608 142.82787661 -479.30051771 139.6941395 -476.625 136.5625 C-475.22264194 134.92578111 -473.81966872 133.28959173 -472.41650391 131.65356445 C-471.41230694 130.48130902 -470.40951886 129.30784601 -469.40771484 128.13354492 C-468.88129395 127.51713135 -468.35487305 126.90071777 -467.8125 126.265625 C-467.33683594 125.7077832 -466.86117187 125.14994141 -466.37109375 124.57519531 C-461.12238009 118.54515604 -461.12238009 118.54515604 -457.8125 116.9375 C-455.84176713 116.14367944 -455.84176713 116.14367944 -455.0625 114.125 C-453.61947224 111.23894448 -451.54804976 109.95548005 -449 108 C-448.2575 107.2575 -447.515 106.515 -446.75 105.75 C-443.70915605 102.70915605 -440.5193885 99.89017024 -437.28125 97.0625 C-435.65610901 95.59319445 -434.07821462 94.07091046 -432.53515625 92.515625 C-424.79489255 84.83499353 -415.75077609 78.46703696 -407 72 C-405.86934371 71.14903237 -404.73914863 70.29745164 -403.609375 69.4453125 C-382.69943436 53.76716657 -360.30590048 40.26619398 -336.78955078 28.87939453 C-335.09602268 28.04718604 -333.42036571 27.17889358 -331.74609375 26.30859375 C-320.4840553 20.46751244 -308.76661499 15.7197509 -297 11 C-296.1946582 10.67499512 -295.38931641 10.34999023 -294.55957031 10.01513672 C-270.60418544 0.45074298 -245.25217817 -5.96858075 -220 -11 C-219.03223633 -11.19432617 -218.06447266 -11.38865234 -217.06738281 -11.58886719 C-145.84551368 -25.61778813 -69.29992062 -21.22894765 0 0 Z M-161 198 C-162.49515137 198.17958252 -162.49515137 198.17958252 -164.02050781 198.36279297 C-201.44635579 203.06648984 -239.39500991 216.55023182 -270 239 C-270.96421875 239.69351563 -271.9284375 240.38703125 -272.921875 241.1015625 C-315.10676784 272.02986476 -348.47862484 314.58987005 -364 365 C-364.24943359 365.77666016 -364.49886719 366.55332031 -364.75585938 367.35351562 C-369.33813295 381.68867764 -371.96765072 396.10441754 -374 411 C-374.09949951 411.70640625 -374.19899902 412.4128125 -374.30151367 413.140625 C-380.94095851 462.52964779 -369.22027274 514.82835306 -345 558 C-344.10667969 559.62808594 -344.10667969 559.62808594 -343.1953125 561.2890625 C-335.51356512 574.92508296 -326.32039314 587.27524957 -316 599 C-315.14921875 600.01707031 -315.14921875 600.01707031 -314.28125 601.0546875 C-301.94852777 615.71552566 -287.60253959 627.97447659 -272 639 C-271.27723877 639.52432617 -270.55447754 640.04865234 -269.80981445 640.58886719 C-263.85973576 644.85255368 -257.76138032 648.54391327 -251.3125 652 C-250.34916748 652.51908936 -249.38583496 653.03817871 -248.39331055 653.57299805 C-222.70073277 667.31045198 -196.41585472 676.1562578 -167.63183594 680.59326172 C-166.03201691 680.84050648 -164.43330867 681.09530136 -162.83691406 681.36376953 C-132.43109228 686.46179712 -98.4819385 683.51277376 -69 675 C-68.19820312 674.77505859 -67.39640625 674.55011719 -66.5703125 674.31835938 C-34.69005836 665.2473261 -4.48469202 650.2435447 20.86328125 628.77734375 C23 627 23 627 26 625 C26 624.34 26 623.68 26 623 C26.56203125 622.7525 27.1240625 622.505 27.703125 622.25 C30.39092569 620.78725133 32.46405482 619.03195127 34.75 617 C35.94882812 615.948125 35.94882812 615.948125 37.171875 614.875 C39.23270005 613.19778572 39.23270005 613.19778572 39 611 C39.66 611 40.32 611 41 611 C41 610.34 41 609.68 41 609 C41.85658203 608.66355469 41.85658203 608.66355469 42.73046875 608.3203125 C45.65942596 606.61637526 47.22418893 604.53824573 49.3125 601.875 C51.94506524 598.56071184 54.57983609 595.30926081 57.4375 592.1875 C97.36023954 546.90476302 114.36655068 482.24664851 111 423 C110.69944917 421.65889669 110.3721042 420.32303717 110 419 C109.79164745 416.9886759 109.58627176 414.97692628 109.40600586 412.96289062 C106.91246552 385.57016589 99.66884837 358.63725126 87.125 334.0625 C86.59966675 333.0269397 86.59966675 333.0269397 86.0637207 331.97045898 C85.04821619 329.97730207 84.02501082 327.9882803 83 326 C82.51660156 325.05125 82.03320312 324.1025 81.53515625 323.125 C78.40280113 317.16898563 74.86345482 311.48494008 71.25 305.8125 C70.7655542 305.04429932 70.2811084 304.27609863 69.78198242 303.48461914 C69.32283447 302.77426514 68.86368652 302.06391113 68.390625 301.33203125 C67.97844727 300.68983643 67.56626953 300.0476416 67.14160156 299.38598633 C66.76487305 298.92861084 66.38814453 298.47123535 66 298 C65.34 298 64.68 298 64 298 C63.88785156 297.18595703 63.88785156 297.18595703 63.7734375 296.35546875 C62.69892097 293.08307751 60.81048017 290.96124539 58.625 288.3125 C57.83351563 287.33925781 57.04203125 286.36601562 56.2265625 285.36328125 C54.15197109 282.78752035 54.15197109 282.78752035 51 282 C50.32109454 280.33828113 49.65630107 278.67077561 49 277 C47.16252664 274.70492777 47.16252664 274.70492777 44.921875 272.5234375 C44.09671387 271.69247559 43.27155273 270.86151367 42.42138672 270.00537109 C41.5398291 269.13734863 40.65827148 268.26932617 39.75 267.375 C38.40639404 266.04009521 38.40639404 266.04009521 37.03564453 264.67822266 C30.86075799 258.62257226 24.5029517 253.04220795 17.5546875 247.8984375 C15 246 15 246 13 244 C12.01 244 11.02 244 10 244 C10 243.34 10 242.68 10 242 C8.34151929 240.61196749 8.34151929 240.61196749 6.15234375 239.2421875 C5.32661865 238.70271484 4.50089355 238.16324219 3.65014648 237.60742188 C2.75497314 237.03572266 1.8597998 236.46402344 0.9375 235.875 C0.0287915 235.29041016 -0.87991699 234.70582031 -1.81616211 234.10351562 C-32.69053187 214.45594271 -67.40610311 202.05346238 -103.79956055 198.29370117 C-106 198 -106 198 -107.94750977 197.49023438 C-124.56071011 193.52219509 -144.21933237 195.93608231 -161 198 Z " fill="#FFFFFF" transform="translate(598,26)"/>
</svg>
