<?xml version="1.0" encoding="UTF-8"?>
<svg version="1.1" xmlns="http://www.w3.org/2000/svg" viewBox="0 0 1080 1080">
<path d="M0 0 C2.76756067 2.98034383 3.87175391 6.07250989 5.0847168 9.91430664 C5.46488449 11.10556656 5.84505219 12.29682648 6.23674011 13.52418518 C6.64119564 14.81941648 7.04534797 16.1147425 7.44921875 17.41015625 C7.87035159 18.74264567 8.2920572 20.07495419 8.71430969 21.40708923 C9.59578501 24.19378269 10.47191805 26.9820797 11.34399414 29.77172852 C12.4621221 33.34776099 13.59099837 36.92028463 14.72355938 40.49176884 C15.59427375 43.24016459 16.46055064 45.9899422 17.32535744 48.74020195 C17.74013613 50.058251 18.15600239 51.37595831 18.57297325 52.69331551 C19.15412211 54.5325476 19.72894381 56.37377531 20.3034668 58.21508789 C20.63195114 59.26225479 20.96043549 60.30942169 21.2988739 61.38832092 C22 64 22 64 22 67 C22.60094482 66.98952637 23.20188965 66.97905273 23.82104492 66.96826172 C40.98130708 66.71935679 58.11671867 67.1085686 75.26699829 67.69171143 C77.66786582 67.7720876 80.06889596 67.84774842 82.47006226 67.91864014 C85.89474696 68.0215986 89.31829885 68.14308976 92.7421875 68.26953125 C93.77349289 68.29780502 94.80479828 68.3260788 95.86735535 68.35520935 C102.42741253 68.62499991 108.13789471 69.13789471 113 74 C113.30078125 75.875 113.30078125 75.875 113.3125 78 C113.32925781 78.70125 113.34601563 79.4025 113.36328125 80.125 C113.18345703 81.053125 113.18345703 81.053125 113 82 C109.21495931 84.52336046 106.39871817 84.15236341 102.0402832 83.95166016 C100.82530655 83.90820717 100.82530655 83.90820717 99.58578491 83.86387634 C96.90696904 83.76558207 94.22900023 83.65237969 91.55078125 83.5390625 C89.69422331 83.4680259 87.8376296 83.39791865 85.98100281 83.32870483 C81.09305773 83.14397952 76.20570137 82.94661239 71.31835938 82.74664307 C66.33167344 82.54483863 61.34453566 82.35494622 56.35742188 82.1640625 C46.57113439 81.78772446 36.78542734 81.39803479 27 81 C27.64186586 84.06461175 27.64186586 84.06461175 29.75561523 84.95141602 C32.3108815 85.84181782 34.8644956 86.72428691 37.4375 87.5625 C38.8613501 88.03308838 38.8613501 88.03308838 40.31396484 88.51318359 C46.99266724 90.61526308 53.34355302 91.76584284 60.3059082 92.28881836 C66.93319028 92.83230416 73.09822802 94.4170527 79.45751953 96.32470703 C88.42647015 98.93730775 94.37930832 98.36032306 102.875 94.5 C110.82094595 91 110.82094595 91 113 91 C114.45620084 97.30808398 115.67509666 103.60639858 116.6875 110 C116.90116211 111.28583984 116.90116211 111.28583984 117.11914062 112.59765625 C117.45797444 114.7250606 117.73489045 116.86215656 118 119 C116.4359078 120.5640922 114.82678545 120.19830843 112.65234375 120.2890625 C102.30035496 120.87228607 93.4211692 121.71134432 84.18920898 126.69970703 C79.59781987 129.11795205 77.02148755 129.07876565 72 128 C68.60668945 126.49365234 68.60668945 126.49365234 65.11328125 124.5859375 C63.8326905 123.90102632 62.5520913 123.21613095 61.27148438 122.53125 C59.28167339 121.450158 57.29415563 120.36496677 55.30737305 119.27832031 C53.37289272 118.22500563 51.43106529 117.18633324 49.48828125 116.1484375 C48.33884033 115.52114746 47.18939941 114.89385742 46.00512695 114.24755859 C43.16483194 112.7772427 43.16483194 112.7772427 40.59448242 113.30322266 C40.06830322 113.53315918 39.54212402 113.7630957 39 114 C39.65656385 120.94947587 41.83369016 127.36938093 43.9375 134 C44.33717528 135.27267892 44.73650103 136.54546765 45.13549805 137.81835938 C48.54468273 148.66670694 52.03305588 159.49037884 55.54858398 170.3046875 C57.48518308 176.26907889 59.409701 182.23728651 61.29296875 188.21875 C61.62192139 189.25966797 61.95087402 190.30058594 62.28979492 191.37304688 C63 194 63 194 63 197 C64.68343506 196.9800145 64.68343506 196.9800145 66.40087891 196.95962524 C76.99388029 196.83782677 87.58673902 196.74797121 98.18028259 196.68912697 C103.62618262 196.65785686 109.07151594 196.61546235 114.51708984 196.54736328 C119.77558944 196.48201757 125.03354505 196.44626147 130.29241943 196.43073654 C132.29547689 196.41967754 134.29850564 196.39808136 136.30133057 196.36561966 C139.1142942 196.32185374 141.92503019 196.31607424 144.73828125 196.31884766 C145.56043625 196.297276 146.38259125 196.27570435 147.22966003 196.253479 C153.58838814 196.32100532 157.46712275 198.58083777 162 203 C163.44430855 205.88861709 163.37688506 207.79647701 163 211 C160.23383559 214.68919169 158.75328295 215.88112324 154.14729309 216.60800171 C152.6214666 216.62544612 151.0951715 216.61545829 149.56958008 216.58349609 C148.31509315 216.58700073 148.31509315 216.58700073 147.03526306 216.59057617 C144.27937763 216.59218715 141.52517832 216.55820062 138.76953125 216.5234375 C136.85333358 216.51664698 134.93712755 216.51192545 133.0209198 216.50918579 C129.01019981 216.49851632 125.00003836 216.47183611 120.98950195 216.43212891 C115.84104246 216.38115911 110.69290331 216.3561024 105.54422474 216.34119225 C100.64011559 216.32642482 95.73608212 216.30119011 90.83203125 216.2734375 C89.89267038 216.26852673 88.95330952 216.26361595 87.98548317 216.25855637 C85.33764973 216.24232658 82.68998917 216.2189243 80.04223633 216.19287109 C78.85855972 216.18648117 78.85855972 216.18648117 77.65097046 216.17996216 C72.23026805 216.11513402 72.23026805 216.11513402 70 215 C70.66 217.97 71.32 220.94 72 224 C73.77739563 223.9800145 73.77739563 223.9800145 75.59069824 223.95962524 C86.77235264 223.83785185 97.95387202 223.74798306 109.13603973 223.68912697 C114.88459468 223.65785066 120.63261316 223.6154443 126.38085938 223.54736328 C131.93112948 223.48204047 137.48088447 223.44626612 143.0315094 223.43073654 C145.14620571 223.41967351 147.26087469 223.39806951 149.37535095 223.36561966 C152.34394642 223.32188516 155.31042968 223.31607307 158.27929688 223.31884766 C159.14820557 223.297276 160.01711426 223.27570435 160.91235352 223.253479 C167.48565909 223.31969717 171.26590448 225.50510751 176 230 C188.83234081 245.45013833 189.25779401 268.7020803 187.6875 287.80078125 C186.08319333 300.90739374 182.00842695 314.44069745 171.4375 323.0625 C168.369775 325.38653409 165.91027409 326.94093242 162 327 C159.10546875 325.12890625 159.10546875 325.12890625 156.1875 322.5625 C155.21167969 321.71816406 154.23585938 320.87382813 153.23046875 320.00390625 C152.49441406 319.34261719 151.75835938 318.68132812 151 318 C145.39449024 319.8940492 140.73395611 323.3236683 135.8828125 326.63085938 C130.75442841 329.97398523 130.75442841 329.97398523 127.5078125 330.0859375 C123.79454033 328.47800968 120.34997442 326.50412869 116.875 324.4375 C115.45921842 323.5969594 114.04006995 322.76205709 112.6171875 321.93359375 C111.99440918 321.56290771 111.37163086 321.19222168 110.72998047 320.81030273 C108.86559867 319.78791732 108.86559867 319.78791732 106 320 C108.49375391 330.0308043 111.88673828 339.73727823 115.25 349.5 C115.8616946 351.28451677 116.47318152 353.06910474 117.08447266 354.85375977 C120.44225198 364.64205235 123.83809115 374.41678105 127.2578125 384.18359375 C127.77704285 385.66740036 127.77704285 385.66740036 128.3067627 387.18118286 C129.99146847 391.99367085 131.6803024 396.80464678 133.37597656 401.61328125 C133.98769592 403.35544568 134.59935292 405.097632 135.2109375 406.83984375 C135.63646408 408.04005409 135.63646408 408.04005409 136.07058716 409.26451111 C138 414.77359553 138 414.77359553 138 417 C138.67482422 416.81751709 139.34964844 416.63503418 140.04492188 416.44702148 C148.06529092 414.35285866 156.13350002 412.82516031 164.2975769 411.43707275 C168.0451098 410.79971851 171.79023602 410.14860096 175.53515625 409.49609375 C176.26795303 409.36855713 177.00074982 409.24102051 177.75575256 409.10961914 C184.64626864 407.90224656 191.50574097 406.55679885 198.3515625 405.11743164 C201.29695532 404.50369797 203.98115254 404 207 404 C213.66666667 422.33333333 220.33333333 440.66666667 227 459 C236.05532868 456.68365933 244.89644169 453.79125253 253.75 450.8125 C255.31327532 450.28886622 256.87659031 449.76535085 258.43994141 449.24194336 C283.12032062 440.96731115 307.75741215 432.56061925 332.37109375 424.08984375 C334.15379241 423.47708506 335.93650686 422.86437233 337.71923828 422.25170898 C341.04826942 421.10761835 344.37585222 419.9594427 347.70263672 418.80883789 C349.18321796 418.29949578 350.66384656 417.7902913 352.14453125 417.28125 C352.81608749 417.04772324 353.48764374 416.81419647 354.17955017 416.57359314 C358.77265193 415 358.77265193 415 361 415 C361.11682129 413.79335693 361.23364258 412.58671387 361.35400391 411.34350586 C362.47116558 399.91934041 363.68010855 388.51016419 365.06738281 377.11547852 C365.27389906 375.40155757 365.47532869 373.68701668 365.671875 371.97192383 C368.89569289 343.87751741 368.89569289 343.87751741 376.29296875 336.29296875 C379.26201447 334.04410346 382.46096343 333.03191621 386 332 C387.66905395 331.33933281 389.3369416 330.67561748 391 330 C390.67 329.01 390.34 328.02 390 327 C389.06269493 315.44436754 389.83233852 305.77305632 397.125 296.21484375 C409.42452859 282.10778309 428.85582565 270.30609368 447.9453125 268.76171875 C461.17147853 268.45299989 471.37856453 272.72636813 480.96875 281.87890625 C486.4633221 287.84340886 491.75502358 294.84974739 493 303 C494.98 302.67 496.96 302.34 499 302 C499.20625 301.175 499.4125 300.35 499.625 299.5 C502.50012201 292.18150762 507.8220576 285.70913442 514.8515625 282.03125 C521.99784539 279.14061872 531.44674502 278.60849961 538.91455078 280.47973633 C547.25822875 282.34782714 554.55238557 277.70434862 561.875 274.1875 C563.30120636 273.5235037 564.72828471 272.86137698 566.15625 272.20117188 C573.26817252 268.95052071 573.26817252 268.95052071 580 265 C578.9644397 264.31224487 578.9644397 264.31224487 577.90795898 263.6105957 C575.31487204 261.88759629 572.7225106 260.16351199 570.13061523 258.4387207 C568.46978527 257.33397541 566.80814272 256.23045205 565.14648438 255.12695312 C562.09161409 253.09346804 559.04361974 251.05027812 556 249 C555.2280127 248.48356934 554.45602539 247.96713867 553.66064453 247.43505859 C552.06924772 246.34325373 550.52668115 245.18060422 549 244 C549 243.34 549 242.68 549 242 C550.20720703 241.56244385 551.41441406 241.1248877 552.65820312 240.67407227 C558.27273061 238.63852042 563.88644751 236.60073885 569.5 234.5625 C570.50375671 234.19817871 571.50751343 233.83385742 572.54168701 233.45849609 C585.23296739 228.85043914 597.91485086 224.22478833 610.52148438 219.38891602 C611.37291016 219.06463623 612.22433594 218.74035645 613.1015625 218.40625 C613.81650879 218.13103516 614.53145508 217.85582031 615.26806641 217.57226562 C617 217 617 217 619 217 C619.28875 216.2575 619.5775 215.515 619.875 214.75 C620.24625 213.8425 620.6175 212.935 621 212 C621.26659424 210.99114746 621.26659424 210.99114746 621.53857422 209.96191406 C623.96521963 206.7042257 627.71311809 206.57286749 631.5078125 205.859375 C632.34843231 205.68746643 633.18905212 205.51555786 634.05514526 205.33843994 C636.74213824 204.79279902 639.43316772 204.27118557 642.125 203.75 C643.94693072 203.38438435 645.76855055 203.0172158 647.58984375 202.6484375 C652.05648726 201.74756258 656.526897 200.86820787 661 200 C661 203 661 203 659.70581055 204.31518555 C658.80536011 204.96934448 658.80536011 204.96934448 657.88671875 205.63671875 C657.22067627 206.1280127 656.55463379 206.61930664 655.8684082 207.12548828 C655.1487085 207.64095215 654.42900879 208.15641602 653.6875 208.6875 C652.96071045 209.21843262 652.2339209 209.74936523 651.48510742 210.29638672 C650.01602188 211.3683213 648.54410836 212.4363913 647.06933594 213.50048828 C645.25424543 214.81576505 643.45524177 216.14855536 641.6640625 217.49609375 C633.14158938 223.85876204 633.14158938 223.85876204 629 225 C627.93523438 224.77699219 626.87046875 224.55398438 625.7734375 224.32421875 C620.33474173 223.8569188 617.2062028 226.08187844 612.625 228.8125 C611.76100586 229.30790283 610.89701172 229.80330566 610.00683594 230.3137207 C607.3264461 231.85702743 604.66264195 233.42630908 602 235 C600.30523513 235.98791923 598.60994085 236.97493092 596.9140625 237.9609375 C592.92936247 240.28527788 588.96063463 242.634906 585 245 C587.68177573 246.99039104 590.42406633 248.87505145 593.1875 250.75 C593.93708984 251.30816406 594.68667969 251.86632812 595.45898438 252.44140625 C599.02127267 254.79639182 601.5342913 256.18205776 605.86376953 255.64428711 C609.31713031 254.58919953 612.63599633 253.31244678 616 252 C618.95624278 251.01339158 621.93214574 250.09128261 624.90625 249.16015625 C626.49145188 248.65084827 628.07608208 248.1397578 629.66015625 247.62695312 C632.08115905 246.84386031 634.50242302 246.06172265 636.92529297 245.28442383 C641.59183174 243.7872623 646.24817951 242.26409262 650.89306641 240.70098877 C652.86951632 240.04341266 654.85342694 239.41521048 656.83984375 238.78857422 C664.08666591 236.4147752 664.08666591 236.4147752 668.8203125 230.78125 C670.79238699 227.64245081 671.66447948 227.08292667 675.35058594 226.171875 C679.51535797 225.67192046 683.68499176 225.58079388 687.875 225.5 C689.3412856 225.44362932 690.80744138 225.38376704 692.2734375 225.3203125 C695.84835025 225.17314876 699.42273092 225.07366647 703 225 C703 225.99 703 226.98 703 228 C701.41113281 229.578125 701.41113281 229.578125 699.203125 231.25 C698.4090625 231.8584375 697.615 232.466875 696.796875 233.09375 C695.95640625 233.7228125 695.1159375 234.351875 694.25 235 C693.0125 235.94359375 693.0125 235.94359375 691.75 236.90625 C689.50703793 238.61379532 687.25604531 240.30979637 685 242 C684.30366455 242.56775146 683.6073291 243.13550293 682.88989258 243.72045898 C681 245 681 245 678.43359375 244.72265625 C677.44488281 244.50480469 676.45617188 244.28695312 675.4375 244.0625 C666.10429329 243.15194325 659.63902499 247.79855601 651.86474609 252.35253906 C646.36056595 255.51788827 640.72823191 258.45225133 635.125 261.4375 C632.91799 262.62131313 630.71218275 263.80737239 628.5078125 264.99609375 C627.56566895 265.50325928 626.62352539 266.0104248 625.65283203 266.53295898 C623.83556339 267.5379256 622.04517346 268.59263026 620.28076172 269.68774414 C618 271 618 271 616 271 C616.12117187 271.58491211 616.24234375 272.16982422 616.3671875 272.77246094 C616.91552049 275.43082144 617.45781819 278.09037843 618 280.75 C618.28617188 282.13058594 618.28617188 282.13058594 618.578125 283.5390625 C618.75859375 284.42851562 618.9390625 285.31796875 619.125 286.234375 C619.37636719 287.45979004 619.37636719 287.45979004 619.6328125 288.70996094 C620 291 620 291 620 295 C620.70455322 294.69416992 621.40910645 294.38833984 622.13500977 294.07324219 C627.66525317 291.71557176 633.19811489 289.54283928 638.90234375 287.640625 C640.05927734 287.24617188 641.21621094 286.85171875 642.40820312 286.4453125 C644.78095538 285.64170189 647.16149376 284.86075807 649.54882812 284.1015625 C655.88143142 282.1426563 655.88143142 282.1426563 660.49121094 277.73852539 C660.83829102 276.93406982 661.18537109 276.12961426 661.54296875 275.30078125 C662.57348633 272.95263672 662.57348633 272.95263672 664 271 C668.04837992 269.43310656 672.06746902 269.19803615 676.375 268.9375 C677.48617188 268.83501953 678.59734375 268.73253906 679.7421875 268.62695312 C685.16901569 268.15210566 690.55400143 267.8822911 696 268 C694.38405168 270.04119788 692.7143618 272.04072937 691 274 C690.34 274 689.68 274 689 274 C689 274.66 689 275.32 689 276 C687.17189739 277.84234756 685.19538412 279.45112942 683.19921875 281.109375 C681.01302664 282.91180453 681.01302664 282.91180453 679.33203125 284.828125 C677.60323915 286.65509542 676.23699113 287.8334693 674 289 C671.46801758 288.83422852 671.46801758 288.83422852 668.58203125 288.31640625 C660.94133721 287.50877807 655.68375968 290.10787864 648.9375 293.4375 C646.57220735 294.54553708 644.20631766 295.65230052 641.83984375 296.7578125 C640.68597168 297.30727539 639.53209961 297.85673828 638.34326172 298.42285156 C633.60570774 300.65774266 628.81842059 302.75898814 624 304.8125 C623.22390381 305.15531006 622.44780762 305.49812012 621.64819336 305.85131836 C616.34905968 308.11635323 616.34905968 308.11635323 613 307 C611.58959961 305.03808594 611.58959961 305.03808594 610.15234375 302.484375 C609.62962891 301.56269531 609.10691406 300.64101563 608.56835938 299.69140625 C608.03017578 298.72074219 607.49199219 297.75007813 606.9375 296.75 C606.39544922 295.79480469 605.85339844 294.83960938 605.29492188 293.85546875 C602.92106254 289.63592644 600.72280935 285.53269569 599 281 C598.29915283 281.41362793 597.59830566 281.82725586 596.8762207 282.25341797 C593.69042541 284.13088872 590.50150799 286.00299186 587.3125 287.875 C586.20970703 288.52597656 585.10691406 289.17695313 583.97070312 289.84765625 C582.90400391 290.47285156 581.83730469 291.09804688 580.73828125 291.7421875 C579.75899658 292.3182373 578.77971191 292.89428711 577.77075195 293.48779297 C575.22550375 294.8769257 572.71467726 295.99039138 570 297 C570.04640625 297.6290625 570.0928125 298.258125 570.140625 298.90625 C570.48195909 307.00074422 568.83786521 311.89186191 563.375 317.875 C558.16704198 321.15408468 553.25878233 322.66767453 547.12109375 321.41015625 C545.23478371 320.85324567 543.35298839 320.28076255 541.4765625 319.69140625 C538.22528992 318.78371659 536.16180208 318.79550397 533 320 C527.44600378 324.31069968 525.8734684 329.82005378 523.625 336.3125 C522.84031774 338.4841876 522.05254798 340.65476205 521.26171875 342.82421875 C520.87806152 343.8817334 520.4944043 344.93924805 520.09912109 346.02880859 C513.98320384 362.56161912 506.19107586 379.35483028 493.23828125 391.67578125 C491.77233038 392.94130673 491.77233038 392.94130673 492 395 C493.65007436 396.43416344 493.65007436 396.43416344 495.8125 397.9375 C508.53878649 407.59261641 519.13629666 418.80526384 522 435 C521.89816736 445.06688355 515.829299 455.83023741 509 463 C508.34 463 507.68 463 507 463 C506.75507812 463.59296875 506.51015625 464.1859375 506.2578125 464.796875 C499.64676881 476.37646705 478.3310647 482.65106912 466.23046875 486.1875 C463 487 463 487 460 487 C459.96036133 487.5762915 459.92072266 488.15258301 459.87988281 488.74633789 C456.6120271 534.52791315 443.32299264 578.80272078 425.32470703 620.87988281 C423.97793578 624.05196844 422.66956495 627.23755187 421.37109375 630.4296875 C417.65778992 639.53694279 413.88251207 648.59840161 409.5625 657.4375 C409.24450439 658.10031982 408.92650879 658.76313965 408.59887695 659.44604492 C406.36427596 663.87857468 406.36427596 663.87857468 403 665 C400.69130735 663.76687939 398.56191602 662.4858296 396.375 661.0625 C364.09330069 640.89336959 319.03589068 626.47641408 280.8972168 634.18383789 C264.83027614 637.95258133 251.0739768 646.22381621 236.82666016 654.21972656 C211.11468644 668.58471935 186.06431956 670.82983611 157.67749023 663.37353516 C147.77063538 660.56657658 138.42451867 656.32494001 128.98242188 652.26660156 C106.58019582 642.75262409 85.59016787 636.34433014 61 641 C59.21335937 641.33451172 59.21335937 641.33451172 57.390625 641.67578125 C43.83571098 644.74454397 31.93752278 651.73436019 20.375 659.25 C-0.32054151 672.25712151 -26.29734122 673.85942445 -49.73339844 668.58203125 C-59.16486428 666.16016411 -68.13448549 662.17365029 -77.125 658.49609375 C-100.95443068 648.7761705 -126.70465487 638.74151904 -152.01953125 649.25390625 C-158.220066 652.17508244 -163.62489546 655.74299687 -169.08984375 659.85546875 C-189.95445512 675.23086693 -211.85218137 684.4427936 -238.19873047 680.68652344 C-254.01643984 677.73649989 -267.26350392 669.91858471 -277.1328125 657.265625 C-284.12668376 646.78995636 -287.53830103 635.79173152 -290.0078125 623.58984375 C-291.09072036 618.32681758 -292.54132613 613.1693037 -294 608 C-311.59740331 607.57562532 -328.56669576 608.63255347 -346 611 C-348.66587924 611.34009372 -351.33277374 611.67059436 -354 612 C-356.04010939 607.92602145 -358.05367126 603.83948152 -360.0625 599.75 C-360.64322266 598.59113281 -361.22394531 597.43226563 -361.82226562 596.23828125 C-362.36689453 595.12324219 -362.91152344 594.00820313 -363.47265625 592.859375 C-363.98062744 591.83295898 -364.48859863 590.80654297 -365.01196289 589.74902344 C-366 587 -366 587 -365.99243164 584.76147461 C-364.45987982 582.04133651 -362.59694939 581.82731858 -359.6484375 580.95703125 C-358.50076904 580.60954834 -357.35310059 580.26206543 -356.1706543 579.90405273 C-354.91808838 579.54384033 -353.66552246 579.18362793 -352.375 578.8125 C-351.0839752 578.42856102 -349.79337132 578.04320409 -348.50317383 577.65649414 C-345.06137353 576.63008388 -341.61352963 575.62572019 -338.16351318 574.62731934 C-335.23222112 573.77737943 -332.30377456 572.91783544 -329.37512207 572.05885315 C-321.25775057 569.6790468 -313.13196595 567.32948242 -305 565 C-308.91989423 548.7248749 -312.85675939 532.45394747 -316.8125 516.1875 C-317.0068161 515.3880899 -317.2011322 514.58867981 -317.40133667 513.76504517 C-317.96127007 511.46178039 -318.52158379 509.15860849 -319.08203125 506.85546875 C-319.24637665 506.17938568 -319.41072205 505.50330261 -319.58004761 504.80673218 C-320.54497395 500.83364559 -320.54497395 500.83364559 -321.56381226 496.87417603 C-322.4694237 493.42941319 -323 490.58947337 -323 487 C-322.37996094 486.90501221 -321.75992188 486.81002441 -321.12109375 486.7121582 C-319.2073183 486.41878924 -317.293586 486.12513875 -315.37988281 485.83129883 C-313.09286921 485.48025116 -310.80575688 485.12984613 -308.51855469 484.7800293 C-302.5932821 483.87115542 -296.67033275 482.95179368 -290.75231934 481.99690247 C-287.93965702 481.54317186 -285.12632108 481.09368643 -282.31298828 480.64413452 C-280.95879546 480.42644202 -279.6049395 480.20664144 -278.25146484 479.98452759 C-269.1594246 478.49341372 -260.19763194 477.50041233 -251 477 C-251.33 476.34 -251.66 475.68 -252 475 C-252.38151887 472.06098263 -252.71486923 469.13113062 -253.015625 466.18359375 C-253.11165512 465.27633041 -253.20768524 464.36906708 -253.30662537 463.43431091 C-253.51486845 461.46668057 -253.72154472 459.49888393 -253.92684937 457.53094482 C-255.86285022 438.99806515 -257.97353434 420.49345392 -260.29980469 402.00561523 C-261.71674518 390.68663176 -262.91020522 379.35507901 -264 368 C-264.95848091 367.91687057 -264.95848091 367.91687057 -265.93632507 367.83206177 C-271.0954996 367.35553966 -276.07977814 366.68564128 -281.14453125 365.5546875 C-282.39814453 365.28269531 -283.65175781 365.01070312 -284.94335938 364.73046875 C-286.89002072 364.30006104 -288.83667162 363.86957659 -290.78198242 363.43310547 C-292.69260491 363.00672294 -294.60604741 362.59303957 -296.51953125 362.1796875 C-297.64464111 361.92944824 -298.76975098 361.67920898 -299.92895508 361.42138672 C-304.36314566 360.81295895 -306.94968189 361.31706457 -310.69140625 363.75 C-311.63886719 364.4925 -312.58632813 365.235 -313.5625 366 C-314.6040625 366.80179688 -315.645625 367.60359375 -316.71875 368.4296875 C-318.37425417 369.72292607 -320.02612547 371.02059893 -321.67578125 372.32128906 C-323.2985579 373.59727796 -324.93020655 374.86122403 -326.5625 376.125 C-327.53316406 376.89070313 -328.50382812 377.65640625 -329.50390625 378.4453125 C-330.32761719 378.95835937 -331.15132813 379.47140625 -332 380 C-332.99 379.67 -333.98 379.34 -335 379 C-336.05235982 376.57544366 -336.90400909 374.26322148 -337.69921875 371.75390625 C-337.9391304 371.02759506 -338.17904205 370.30128387 -338.42622375 369.55296326 C-338.93173546 368.01556593 -339.43152087 366.47627577 -339.92602539 364.93530273 C-340.68444267 362.57202682 -341.45869762 360.21443743 -342.23632812 357.85742188 C-342.72488874 356.36488757 -343.21254945 354.87205833 -343.69921875 353.37890625 C-344.04601936 352.31634361 -344.04601936 352.31634361 -344.39982605 351.23231506 C-346 346.23669392 -346 346.23669392 -346 344 C-319.93 344 -293.86 344 -267 344 C-267 343.34 -267 342.68 -267 342 C-268.21034912 342.07508789 -269.42069824 342.15017578 -270.66772461 342.22753906 C-286.22092057 343.10613149 -301.73418784 343.05830122 -317.30151367 342.81298828 C-320.89649563 342.75704934 -324.49140433 342.72103886 -328.08667088 342.68935776 C-330.88955544 342.66151975 -333.69213382 342.62049493 -336.49479485 342.57575226 C-338.46057819 342.54749776 -340.4265391 342.53260092 -342.39247131 342.51800537 C-343.58239182 342.49498352 -344.77231232 342.47196167 -345.99829102 342.44824219 C-347.56088402 342.42706329 -347.56088402 342.42706329 -349.15504456 342.40545654 C-352.42853096 341.93892675 -354.33219918 340.92181023 -357 339 C-359.04852227 336.03552215 -359.29639089 333.49761371 -359.3125 329.9375 C-359.32925781 329.08027344 -359.34601563 328.22304688 -359.36328125 327.33984375 C-358.92594102 324.52299648 -358.25294308 323.69366447 -356 322 C-352.31269638 320.77089879 -348.8821555 320.82356969 -345.0402832 320.79467773 C-344.23029877 320.78477814 -343.42031433 320.77487854 -342.58578491 320.76467896 C-339.90748013 320.73308191 -337.22915761 320.7083136 -334.55078125 320.68359375 C-332.69418374 320.66302267 -330.83759089 320.64202616 -328.98100281 320.62062073 C-324.09349344 320.56541593 -319.20594192 320.5159996 -314.31835938 320.46777344 C-309.33134202 320.41754682 -304.34438592 320.3618668 -299.35742188 320.30664062 C-289.5716669 320.19907851 -279.78585876 320.09762918 -270 320 C-270.14367508 318.80421577 -270.14367508 318.80421577 -270.29025269 317.58427429 C-271.2034112 309.9821097 -272.11521478 302.37978428 -273.02558708 294.77728558 C-273.493391 290.87104979 -273.96167499 286.96487294 -274.43115234 283.05883789 C-274.61428056 281.5346707 -274.79738616 280.0105008 -274.98046875 278.48632812 C-275.07035191 277.73809847 -275.16023506 276.98986881 -275.25284195 276.21896553 C-275.95034173 270.4033076 -276.63469908 264.58615807 -277.31457138 258.76841545 C-277.7860708 254.75281375 -278.28697369 250.742152 -278.80957031 246.73291016 C-279.02171953 245.01597956 -279.23365776 243.29902287 -279.4453125 241.58203125 C-279.55003876 240.84240646 -279.65476501 240.10278168 -279.76266479 239.34074402 C-280.13014862 236.22972203 -280.19303685 234.36899764 -278.72216797 231.55737305 C-277 230 -277 230 -274 229.5 C-271 230 -271 230 -269.40440369 231.64878845 C-267.7160668 234.47535266 -267.15969975 236.8871018 -266.52954102 240.11938477 C-266.2824086 241.35910538 -266.03527618 242.59882599 -265.78065491 243.87611389 C-265.52156382 245.23117792 -265.26265248 246.58627633 -265.00390625 247.94140625 C-264.72727442 249.34767782 -264.44966389 250.75375717 -264.17112732 252.15965271 C-263.43840833 255.87089853 -262.71821268 259.58446469 -262.00085449 263.29870605 C-261.28276916 267.00711386 -260.55440468 270.71349567 -259.82617188 274.41992188 C-258.98245584 278.71507021 -258.13930722 283.01031246 -257.30239868 287.30679321 C-255.64892975 295.78400588 -253.94374085 304.24782816 -252.08802795 312.68348694 C-251.47027941 315.52739042 -251 318.07841122 -251 321 C-249.34415642 320.99000725 -249.34415642 320.99000725 -247.65486145 320.97981262 C-237.252136 320.91899986 -226.84944662 320.87402652 -216.44658375 320.84456348 C-211.09834701 320.82890704 -205.75025376 320.80766896 -200.40209961 320.77368164 C-195.24091366 320.74108773 -190.07986575 320.72314683 -184.91858482 320.71536827 C-182.94939692 320.70982484 -180.98021657 320.69899992 -179.01108742 320.68280983 C-176.25307509 320.66103525 -173.49563327 320.6580331 -170.73754883 320.65942383 C-169.5161898 320.64324509 -169.5161898 320.64324509 -168.27015686 320.6267395 C-163.65011177 320.65195083 -160.68204605 321.14887003 -157 324 C-154.65693355 326.49927088 -154.03715733 328.2546677 -153.8671875 331.6640625 C-154.11826087 337.26152174 -154.11826087 337.26152174 -155 340 C-159.09829778 343.26070102 -162.88488147 343.41991467 -167.92382812 343.35644531 C-168.70656601 343.35848969 -169.48930389 343.36053406 -170.29576111 343.36264038 C-172.8744977 343.36564022 -175.45258973 343.34719418 -178.03125 343.328125 C-179.82816408 343.32506559 -181.62508054 343.32319085 -183.42199707 343.32244873 C-187.18458155 343.31785052 -190.94695143 343.3034438 -194.70947266 343.28125 C-199.5280591 343.25296821 -204.34647668 343.24203767 -209.16513824 343.2375679 C-212.87463055 343.2334071 -216.5840889 343.22358409 -220.29356384 343.21169281 C-222.07014191 343.20600297 -223.84672319 343.20124005 -225.62330627 343.19742584 C-228.10765277 343.19053607 -230.59186773 343.17689075 -233.07617188 343.16113281 C-233.80775009 343.16001495 -234.53932831 343.15889709 -235.29307556 343.15774536 C-238.98396816 343.12680626 -242.41012091 342.87730498 -246 342 C-246 342.66 -246 343.32 -246 344 C-217.29 344 -188.58 344 -159 344 C-160.65198847 347.30397695 -161.74420781 349.0224108 -164.18945312 351.59106445 C-165.16186951 352.61651115 -165.16186951 352.61651115 -166.15393066 353.66267395 C-169.13494335 356.74638506 -172.12220209 359.82341045 -175.12792969 362.88305664 C-176.70683628 364.5001521 -178.27401405 366.12878463 -179.82910156 367.76879883 C-182.07850792 370.14002021 -184.36211419 372.47290538 -186.65625 374.80078125 C-187.34207153 375.53710281 -188.02789307 376.27342438 -188.73449707 377.03205872 C-193.58352262 381.84058871 -193.58352262 381.84058871 -197.44906616 382.27561951 C-200.04505228 382.04741103 -202.46423164 381.59509169 -205 381 C-206.41858225 380.74684053 -207.83735549 380.49474814 -209.25634766 380.24389648 C-210.64333701 379.95817672 -212.02924031 379.66713896 -213.4140625 379.37109375 C-214.15457855 379.21713638 -214.8950946 379.06317902 -215.65805054 378.90455627 C-217.98141074 378.42037562 -220.30319706 377.92908773 -222.625 377.4375 C-224.2173485 377.10434217 -225.80979577 376.77165608 -227.40234375 376.43945312 C-231.26938926 375.63173548 -235.1350426 374.8176484 -239 374 C-237.55139168 384.18790981 -235.63098431 394.24128279 -233.59375 404.32421875 C-233.26484081 405.96314969 -232.93619196 407.60213289 -232.60778809 409.24116516 C-231.74969889 413.520264 -230.88815046 417.79865887 -230.02581787 422.0769043 C-229.15183432 426.416083 -228.28112505 430.75591848 -227.41015625 435.09570312 C-225.99256477 442.15730672 -224.57250955 449.21841066 -223.15087128 456.27920055 C-222.09621922 461.5185976 -221.0457937 466.75882791 -220 472 C-218.76749512 471.70794678 -217.53499023 471.41589355 -216.26513672 471.11499023 C-210.47046443 469.82975566 -204.63205187 468.99152541 -198.7578125 468.16015625 C-197.59482635 467.99253281 -196.43184021 467.82490936 -195.23361206 467.65220642 C-191.53119725 467.11907071 -187.82814755 466.59051993 -184.125 466.0625 C-179.27317801 465.36768466 -174.42165011 464.6708453 -169.5703125 463.97265625 C-168.40373108 463.80496735 -167.23714966 463.63727844 -166.03521729 463.46450806 C-156.34235649 462.06454228 -146.66715867 460.56698279 -137 459 C-132.27958517 465.63179736 -127.77758641 472.36411624 -123.4375 479.25 C-122.21232803 481.18495184 -120.98706494 483.11984599 -119.76171875 485.0546875 C-118.83045166 486.52760254 -118.83045166 486.52760254 -117.88037109 488.03027344 C-115.43826514 491.88716475 -112.98366534 495.73602201 -110.52905273 499.58496094 C-105.37633908 507.66581886 -100.24544128 515.75895346 -95.19433594 523.90380859 C-94.13616875 525.6066653 -93.06831883 527.30349369 -92 529 C-91.5261084 530.04623535 -91.0522168 531.0924707 -90.56396484 532.17041016 C-87.65057671 535.3856233 -87.1640408 535.44067889 -83.04785156 535.68115234 C-80.99519754 535.68020382 -78.94238906 535.64638294 -76.890625 535.5859375 C-75.80867859 535.57744781 -74.72673218 535.56895813 -73.61199951 535.56021118 C-70.15698588 535.52662952 -66.70430789 535.45133564 -63.25 535.375 C-60.90758579 535.34490682 -58.565135 535.3175299 -56.22265625 535.29296875 C-50.48097421 535.22682273 -44.74065394 535.12642549 -39 535 C-40.15570602 530.0806012 -41.31201756 525.16134503 -42.46875 520.2421875 C-42.64695786 519.4843182 -42.82516571 518.7264489 -43.0087738 517.94561386 C-45.40387611 507.76193339 -47.80805847 497.58045807 -50.22387695 487.40167236 C-51.45644457 482.20835914 -52.68587065 477.01430357 -53.91462708 471.82008743 C-54.80863941 468.04178387 -55.70444127 464.26391889 -56.60351562 460.48681641 C-57.49843009 456.72678247 -58.38902113 452.96574863 -59.27659607 449.20397568 C-59.60993797 447.79461515 -59.94483906 446.38562238 -60.28138733 444.97702408 C-60.74445762 443.03791083 -61.20147704 441.0973556 -61.65820312 439.15673828 C-62.04836609 437.51186935 -62.04836609 437.51186935 -62.44641113 435.83377075 C-63 433 -63 433 -63 429 C-82.07016184 426.26522647 -98.6537139 425.7771472 -117.0625 432.0625 C-126.78908592 435.36372097 -135.76128016 436.26344766 -146 436 C-145.57291667 434.29166667 -145.14583333 432.58333333 -144.71875 430.875 C-144.44417969 429.77542969 -144.16960937 428.67585938 -143.88671875 427.54296875 C-143.30845343 425.23245488 -142.72783581 422.92252808 -142.14453125 420.61328125 C-138.33135837 405.48136894 -134.84937198 390.50475617 -133 375 C-132.80470703 373.56914063 -132.80470703 373.56914063 -132.60546875 372.109375 C-129.75510655 347.93830357 -132.63357339 329.43585925 -147.875 309.875 C-149.23591603 308.23818677 -150.61152172 306.6134987 -152 305 C-152.77214844 304.09378906 -153.54429687 303.18757813 -154.33984375 302.25390625 C-160.04618071 295.75427126 -166.14070763 290.2535311 -173 285 C-173.53544434 284.58911133 -174.07088867 284.17822266 -174.62255859 283.75488281 C-180.5570966 278.97595905 -180.5570966 278.97595905 -187 275 C-187 274.34 -187 273.68 -187 273 C-172.67711161 272.84905621 -158.37954959 273.13070477 -144.0625 273.5 C-129.37016193 273.87890869 -114.69829328 274.14536774 -100 274 C-100.33 271.69 -100.66 269.38 -101 267 C-102.04125534 267.00444122 -103.08251068 267.00888245 -104.15531921 267.01345825 C-113.96941659 267.05400624 -123.78349696 267.08398534 -133.59765911 267.10362434 C-138.64318522 267.11406036 -143.68864368 267.12821632 -148.73413086 267.15087891 C-153.60353574 267.17261365 -158.47287556 267.18457 -163.34232521 267.18975449 C-165.19985796 267.1934491 -167.05738715 267.20066371 -168.9148922 267.21146011 C-171.51715152 267.22598336 -174.1191422 267.22797759 -176.72143555 267.22705078 C-177.4889212 267.23424133 -178.25640686 267.24143188 -179.04714966 267.24884033 C-183.12169533 267.23314346 -186.40559086 267.00103166 -190 265 C-192.1272776 261.8090836 -192.33381412 259.79840226 -192.55859375 256.03515625 C-191.66146714 252.76660405 -189.80889865 251.79876792 -187 250 C-184.18789745 249.64093278 -181.78600812 249.50817097 -178.984375 249.57421875 C-177.79529793 249.5786071 -177.79529793 249.5786071 -176.5821991 249.58308411 C-173.97088253 249.59816127 -171.36095708 249.64242163 -168.75 249.6875 C-166.93433901 249.70455173 -165.1186639 249.72015603 -163.30297852 249.734375 C-157.53459696 249.78865897 -151.76752556 249.888272 -146 250 C-145.01932556 250.01887268 -144.03865112 250.03774536 -143.02825928 250.05718994 C-130.35035884 250.30686869 -117.67481823 250.62624644 -105 251 C-105.24451904 250.02627441 -105.48903809 249.05254883 -105.7409668 248.04931641 C-107.96668792 239.17389359 -110.16402163 230.29216076 -112.31982422 221.3994751 C-112.82908712 219.30684114 -113.3439492 217.21563558 -113.859375 215.12451172 C-115.63809338 207.8717317 -117.31111074 200.61637915 -118.79296875 193.296875 C-119.22419335 191.23399907 -119.65822544 189.17173602 -120.09335327 187.10968018 C-120.49216441 185.16324239 -120.85353682 183.20925349 -121.21411133 181.25537109 C-122.23342027 175.26636981 -122.23342027 175.26636981 -125.72973633 170.62304688 C-127.8222047 169.81932741 -129.79573118 169.39176943 -132 169 C-133.30396184 168.54963437 -134.6001096 168.07590263 -135.88671875 167.578125 C-137.15311865 167.13391088 -138.42004493 166.69119445 -139.6875 166.25 C-140.32494141 166.01667969 -140.96238281 165.78335938 -141.61914062 165.54296875 C-145.52593858 164.19635315 -148.06740198 163.69630419 -152 165 C-153.91854021 166.89554125 -153.91854021 166.89554125 -155.48046875 169.3671875 C-156.08697266 170.25277344 -156.69347656 171.13835937 -157.31835938 172.05078125 C-157.93517578 172.98277344 -158.55199219 173.91476562 -159.1875 174.875 C-159.81591797 175.79925781 -160.44433594 176.72351563 -161.09179688 177.67578125 C-162.74213747 180.10804792 -164.37552404 182.55041536 -166 185 C-166.66 185.99 -167.32 186.98 -168 188 C-168.99 188 -169.98 188 -171 188 C-173.015625 185.83984375 -173.015625 185.83984375 -175.25 182.9375 C-177.87308737 179.61633293 -180.43952835 176.42460959 -183.5 173.5 C-187.28079602 169.85048162 -190.5013559 165.80061488 -193.796875 161.71484375 C-197.61429568 157.01075266 -201.50806147 152.39223795 -205.875 148.1875 C-208 146 -208 146 -209 143 C-209.99 142.67 -210.98 142.34 -212 142 C-212.6875 139.9375 -212.6875 139.9375 -213 138 C-185.65704123 137.79762101 -158.33493085 138.38334807 -131 139 C-131.33 137.35 -131.66 135.7 -132 134 C-132.9585791 134.01087646 -133.9171582 134.02175293 -134.90478516 134.03295898 C-148.44116245 134.13389038 -161.95258061 133.68139034 -175.47900391 133.20043945 C-179.38820379 133.06203251 -183.29758666 132.93012092 -187.20703125 132.79882812 C-189.7291801 132.71132369 -192.25131603 132.62344612 -194.7734375 132.53515625 C-195.92371429 132.49656998 -197.07399109 132.4579837 -198.25912476 132.41822815 C-201.5075084 132.30044104 -204.75334323 132.15812266 -208 132 C-209.11691223 131.95028046 -210.23382446 131.90056091 -211.38458252 131.84933472 C-212.45859314 131.78489166 -213.53260376 131.72044861 -214.63916016 131.65405273 C-215.59875641 131.60087387 -216.55835266 131.54769501 -217.54702759 131.49290466 C-220.35752802 130.92815768 -221.26706579 130.23649376 -223 128 C-224.54586876 124.90826248 -224.29359521 122.40570448 -224 119 C-222.4765625 116.79296875 -222.4765625 116.79296875 -220 115 C-217.21023801 114.65717694 -214.84464395 114.58144769 -212.0625 114.6875 C-211.21768066 114.70296875 -210.37286133 114.7184375 -209.50244141 114.734375 C-206.33401715 114.79987214 -203.16751925 114.89985339 -200 115 C-197.12116025 115.08186316 -194.24221879 115.15994124 -191.36328125 115.23828125 C-186.59347018 115.36879098 -181.82374148 115.50109202 -177.05419922 115.64111328 C-163.7001435 116.02549784 -150.35983326 116.11781158 -137 116 C-137.16491943 115.29544678 -137.32983887 114.59089355 -137.49975586 113.86499023 C-138.6233003 109.06278714 -139.74659377 104.26053313 -140.86352539 99.45678711 C-141.19024751 98.05191606 -141.51698962 96.64704965 -141.84375 95.2421875 C-142.01309555 94.51401321 -142.1824411 93.78583893 -142.35691833 93.03559875 C-143.50715375 88.09671892 -144.67038927 83.16103854 -145.84007263 78.22673035 C-146.67331229 74.70595354 -147.50012718 71.18368438 -148.32595825 67.66116333 C-148.7319486 65.93596265 -149.14067883 64.21140434 -149.55221558 62.48751831 C-150.13446808 60.04669905 -150.70689617 57.60375743 -151.27734375 55.16015625 C-151.45201172 54.4383316 -151.62667969 53.71650696 -151.80664062 52.97280884 C-152.83635142 48.50724643 -153.16361278 44.54368633 -153 40 C-149.86501708 38.14223235 -147.62528568 37.79859524 -144 38 C-141.16486929 44.02210035 -138.91433321 50.02193123 -137.046875 56.40625 C-136.78527084 57.28140259 -136.52366669 58.15655518 -136.25413513 59.05822754 C-135.41422544 61.87063285 -134.58213497 64.6852857 -133.75 67.5 C-132.5983479 71.36557149 -131.44227264 75.22981106 -130.28515625 79.09375 C-130.00259476 80.03879395 -129.72003326 80.98383789 -129.4289093 81.95751953 C-126.80992041 90.69100898 -124.05030708 99.37348825 -121.18457031 108.02929688 C-120.8903418 108.92712891 -120.59611328 109.82496094 -120.29296875 110.75 C-120.0405542 111.50796875 -119.78813965 112.2659375 -119.52807617 113.046875 C-119 115 -119 115 -119 118 C-117.69881226 117.99238647 -117.69881226 117.99238647 -116.37133789 117.98461914 C-101.07575311 117.93531425 -85.79524932 118.4107748 -70.5078125 118.86767578 C-67.73444152 118.95034862 -64.96122944 119.02647481 -62.1875 119.09716797 C-59.1035458 119.17614075 -56.0207288 119.2720016 -52.9375 119.375 C-52.07761475 119.39361084 -51.21772949 119.41222168 -50.33178711 119.43139648 C-45.75077607 119.60953379 -42.65310092 120.15792908 -39 123 C-36.3748403 126.15019164 -35.98443666 127.54088154 -36.125 131.6875 C-37 135 -37 135 -40 137 C-41.92541504 137.20927429 -41.92541504 137.20927429 -44.13476562 137.15112305 C-44.96920197 137.13414368 -45.80363831 137.11716431 -46.6633606 137.09967041 C-47.5685141 137.07064636 -48.4736676 137.04162231 -49.40625 137.01171875 C-50.35128387 136.98938171 -51.29631775 136.96704468 -52.26998901 136.94403076 C-55.34701153 136.86860321 -58.42339644 136.77831444 -61.5 136.6875 C-63.59845078 136.63280047 -65.69692112 136.57884626 -67.79541016 136.52563477 C-82.86715727 136.13309792 -97.93719583 135.65408155 -113 135 C-112.67 135.99 -112.34 136.98 -112 138 C-96.42049567 138.90256582 -80.85196882 139.29213062 -65.25 139.5625 C-62.88410929 139.60583193 -60.51822381 139.64945005 -58.15234375 139.69335938 C-52.43495164 139.79886112 -46.717506 139.90087293 -41 140 C-40.43571612 144.51830808 -39.90261398 149.0397751 -39.375 153.5625 C-39.13523437 155.47772461 -39.13523437 155.47772461 -38.890625 157.43164062 C-37.55203919 169.14426642 -37.55203919 169.14426642 -40 175 C-44.50727647 174.39733215 -47.8587963 172.63400206 -51.8125 170.4375 C-52.40998047 170.10814453 -53.00746094 169.77878906 -53.62304688 169.43945312 C-55.08533998 168.63226733 -56.5431399 167.81695083 -58 167 C-62.69237984 171.58268785 -67.19680577 176.24946614 -71.45703125 181.23828125 C-71.96621094 181.81964844 -72.47539062 182.40101563 -73 183 C-73.44730469 183.59425781 -73.89460938 184.18851563 -74.35546875 184.80078125 C-76 186 -76 186 -78.53125 185.7421875 C-79.5109375 185.45601562 -80.490625 185.16984375 -81.5 184.875 C-82.4590625 184.60429687 -83.418125 184.33359375 -84.40625 184.0546875 C-85.5921875 183.70664062 -86.778125 183.35859375 -88 183 C-89.90731347 182.47478581 -91.81558382 181.95303872 -93.72460938 181.43408203 C-95.20737366 181.03070114 -95.20737366 181.03070114 -96.72009277 180.61917114 C-97.47246216 180.41484467 -98.22483154 180.21051819 -99 180 C-96.97488331 186.63083501 -94.94834276 193.26123374 -92.92089844 199.89135742 C-92.23406162 202.13800643 -91.5475285 204.38474832 -90.86132812 206.6315918 C-89.86411859 209.89657829 -88.86587525 213.16124663 -87.8671875 216.42578125 C-87.37783722 218.02705368 -87.37783722 218.02705368 -86.87860107 219.66067505 C-85.33579004 224.69598588 -83.77658577 229.72472292 -82.16894531 234.73974609 C-81.88745636 235.61898239 -81.60596741 236.49821869 -81.31594849 237.40409851 C-80.79219622 239.03333575 -80.26465875 240.66136294 -79.7326355 242.28791809 C-78.76140905 245.30605989 -78 247.80770594 -78 251 C-77.02360565 250.99333817 -76.0472113 250.98667633 -75.04122925 250.97981262 C-65.83082781 250.9189458 -56.62046728 250.87400061 -47.4099102 250.84456348 C-42.67488077 250.82892068 -37.94001397 250.8077077 -33.20507812 250.77368164 C-28.63391653 250.74103879 -24.06291117 250.72313656 -19.491642 250.71536827 C-17.74935574 250.70983361 -16.00707783 250.6990257 -14.26485825 250.68280983 C-11.82075401 250.66096987 -9.3772919 250.65803578 -6.93310547 250.65942383 C-6.21596878 250.648638 -5.49883209 250.63785217 -4.75996399 250.6267395 C0.69170165 250.66014777 4.4349863 252.14257628 8.8125 255.3125 C10.58092796 257.82552921 10.81399229 259.96187403 11 263 C10.03394425 265.74954328 9.61984486 266.69007757 7 268 C4.49763084 268.09288682 2.02337314 268.12582412 -0.47900391 268.11352539 C-1.24982803 268.11367142 -2.02065216 268.11381744 -2.81483459 268.1139679 C-5.36877229 268.11326989 -7.92263751 268.10548275 -10.4765625 268.09765625 C-12.24490316 268.09579167 -14.01324433 268.09436796 -15.78158569 268.09336853 C-20.44064759 268.0895465 -25.09967842 268.07971888 -29.75872803 268.06866455 C-34.51102274 268.05844369 -39.26332247 268.05386946 -44.015625 268.04882812 C-53.34376367 268.03809634 -62.67187925 268.02102367 -72 268 C-71.34 270.64 -70.68 273.28 -70 276 C-68.96673584 275.99214478 -68.96673584 275.99214478 -67.91259766 275.98413086 C-51.16318768 275.87639569 -34.43241834 276.05352264 -17.6875 276.4375 C-16.77454163 276.45714813 -15.86158325 276.47679626 -14.92095947 276.49703979 C-12.284417 276.55471435 -9.64807943 276.61818094 -7.01171875 276.68359375 C-6.23458023 276.70031128 -5.45744171 276.71702881 -4.65675354 276.73425293 C11.18256306 277.15856339 11.18256306 277.15856339 16.9375 282.6875 C17.43475586 283.16356689 17.93201172 283.63963379 18.44433594 284.13012695 C24.12700126 289.77576283 28.603276 296.33682314 33 303 C33.80104517 282.32858438 30.32551274 264.38198526 15.8125 248.625 C14.884375 247.75875 13.95625 246.8925 13 246 C12.30132812 245.33097656 11.60265625 244.66195312 10.8828125 243.97265625 C2.75520887 236.3773717 -6.24840674 230.31905087 -16 225 C-16 224.34 -16 223.68 -16 223 C2.81 223 21.62 223 41 223 C40.67 220.36 40.34 217.72 40 215 C39.07371796 215.01110306 38.14743591 215.02220612 37.19308472 215.03364563 C28.45364503 215.13392923 19.71439923 215.21000647 10.97451591 215.25906086 C6.48145836 215.28512848 1.98887716 215.32047407 -2.50390625 215.37719727 C-6.8416803 215.43161919 -11.17899687 215.46144186 -15.51708603 215.47438622 C-17.17010574 215.48360793 -18.82310108 215.5016163 -20.47592545 215.52865028 C-22.7958565 215.56507833 -25.1139099 215.56993996 -27.43408203 215.56762695 C-28.75312531 215.57873001 -30.07216858 215.58983307 -31.43118286 215.60127258 C-36.10080738 214.81453651 -37.68448134 213.31538191 -41 210 C-42.42662219 207.14675563 -42.31033868 205.16545451 -42 202 C-40.42767334 199.33625793 -40.42767334 199.33625793 -38 197 C-34.74761963 196.39872742 -34.74761963 196.39872742 -30.84472656 196.43237305 C-30.13213181 196.43164291 -29.41953705 196.43091278 -28.68534851 196.43016052 C-26.33632557 196.43363655 -23.98930025 196.47249336 -21.640625 196.51171875 C-20.00967492 196.52104695 -18.37871081 196.52816303 -16.7477417 196.53315735 C-12.45987101 196.55222698 -8.17285032 196.60132654 -3.88531494 196.65667725 C0.49170432 196.70787105 4.86886125 196.73067161 9.24609375 196.75585938 C17.83111877 196.80944616 26.41545358 196.89475745 35 197 C34.66403809 195.72761475 34.32807617 194.45522949 33.98193359 193.14428711 C29.57365108 176.38123595 25.3624368 159.57095829 21.17102051 142.75274658 C20.24642453 139.04392401 19.32040801 135.33545613 18.39453125 131.62695312 C16.5950084 124.41830405 14.79698909 117.20928117 13 110 C12.47567383 110.38857178 11.95134766 110.77714355 11.41113281 111.17749023 C9.02882844 112.93735042 6.63954621 114.68748725 4.25 116.4375 C3.425 117.04916016 2.6 117.66082031 1.75 118.29101562 C0.95078125 118.87431641 0.1515625 119.45761719 -0.671875 120.05859375 C-1.4050293 120.59798584 -2.13818359 121.13737793 -2.89355469 121.69311523 C-5.01724603 123.01069981 -6.51773836 123.73597012 -9 124 C-11.22878363 122.60172517 -13.11538169 121.22930107 -15.125 119.5625 C-15.70121094 119.10166016 -16.27742188 118.64082031 -16.87109375 118.16601562 C-18.58992242 116.78828488 -20.29540384 115.39527382 -22 114 C-23.66545342 112.66515152 -25.3320003 111.33166533 -27 110 C-27.79921875 109.35675781 -28.5984375 108.71351563 -29.421875 108.05078125 C-32.33952978 105.72991949 -35.29111487 103.45530063 -38.25 101.1875 C-39.34381802 100.34644263 -40.43756682 99.50529521 -41.53125 98.6640625 C-43.3279341 97.28239587 -45.12659919 95.90357704 -46.9296875 94.53027344 C-48.8747951 93.0474172 -50.81283504 91.55571058 -52.75 90.0625 C-53.35875977 89.60190186 -53.96751953 89.14130371 -54.59472656 88.66674805 C-58.88636144 85.34091568 -58.88636144 85.34091568 -60 82 C-58.9483667 82.16193848 -57.8967334 82.32387695 -56.81323242 82.49072266 C-52.81494192 83.09983959 -48.81253165 83.67711584 -44.80834961 84.24609375 C-43.09390972 84.49395688 -41.38060309 84.74982383 -39.66870117 85.01464844 C-27.80644665 86.84229365 -17.08305952 87.04258077 -5.19863892 85.30828857 C-1.4752121 84.78619741 2.26188387 84.40156041 6 84 C6.33 82.68 6.66 81.36 7 80 C6.22946793 80.00679779 5.45893585 80.01359558 4.66505432 80.02059937 C-3.73119874 80.06185744 -12.08660508 79.81073621 -20.47265625 79.4140625 C-21.81212833 79.35158503 -23.15160079 79.28911571 -24.49107361 79.22665405 C-27.26850061 79.09618906 -30.04577856 78.96293036 -32.82299805 78.828125 C-36.3765771 78.65625376 -39.93057761 78.49574144 -43.48479557 78.33771706 C-46.89780154 78.18354606 -50.31016393 78.01670855 -53.72265625 77.8515625 C-54.99552994 77.79626373 -56.26840363 77.74096497 -57.57984924 77.68399048 C-58.758853 77.62407928 -59.93785675 77.56416809 -61.15258789 77.50244141 C-62.18815323 77.45358795 -63.22371857 77.4047345 -64.29066467 77.35440063 C-66.99620017 77.00049704 -68.70246975 76.44280578 -71 75 C-72.92501277 72.43331631 -73.00464859 71.11621468 -72.875 67.875 C-72 65 -72 65 -70.3034668 63.83178711 C-59.84337079 60.05462261 -43.93323809 63.32931181 -32.93041992 63.79956055 C-29.6770911 63.93794275 -26.42354185 64.06983354 -23.16992188 64.20117188 C-21.0755046 64.28867482 -18.98110293 64.37655233 -16.88671875 64.46484375 C-15.92714767 64.50343002 -14.9675766 64.5420163 -13.97892761 64.58177185 C-8.27925807 64.83069078 -2.66344798 65.30822313 3 66 C2.54234253 64.38375732 2.54234253 64.38375732 2.07543945 62.73486328 C-0.86478036 52.28925045 -3.6403478 41.81335706 -6.22241211 31.2734375 C-6.82137149 28.83894146 -7.43320982 26.40788134 -8.04492188 23.9765625 C-8.43308383 22.39863216 -8.82048269 20.82051385 -9.20703125 19.2421875 C-9.47879936 18.17482864 -9.47879936 18.17482864 -9.75605774 17.08590698 C-10.91210562 12.27939636 -11.27168375 7.94792721 -11 3 C-7.94848239 -1.29986572 -4.88999264 -1.29734499 0 0 Z M60.11328125 331.40625 C58.7065918 332.15068359 58.7065918 332.15068359 57.27148438 332.91015625 C56.29501953 333.43480469 55.31855469 333.95945312 54.3125 334.5 C53.32443359 335.02464844 52.33636719 335.54929687 51.31835938 336.08984375 C48.87592294 337.38775683 46.43668153 338.69132388 44 340 C44.02320313 340.88558594 44.04640625 341.77117187 44.0703125 342.68359375 C44.28984286 357.75278515 42.28547905 371.62797487 38.6875 386.25 C38.40382568 387.40975342 38.12015137 388.56950684 37.82788086 389.7644043 C36.01611538 396.85490633 33.74762524 403.57712387 30.96411133 410.34667969 C29.82924305 412.99942979 29.82924305 412.99942979 30 416 C26.31214259 415.04303859 22.62478002 414.08418355 18.9375 413.125 C17.89916016 412.85558594 16.86082031 412.58617187 15.79101562 412.30859375 C14.77587891 412.04433594 13.76074219 411.78007813 12.71484375 411.5078125 C11.72516602 411.25523682 10.73548828 411.00266113 9.71582031 410.74243164 C7.43214723 410.11813734 5.26469464 409.37335386 3.04296875 408.56640625 C-0.02035073 407.6474335 -0.02035073 407.6474335 -2.4140625 409.45703125 C-3.14367187 410.23433594 -3.87328125 411.01164062 -4.625 411.8125 C-8.56471785 415.7278986 -12.5394533 418.96810144 -17.125 422.0625 C-17.99632568 422.65285034 -17.99632568 422.65285034 -18.88525391 423.25512695 C-20.25287378 424.17599649 -21.62583987 425.08891891 -23 426 C-22.48313769 432.84842564 -20.48159127 438.62463377 -18 445 C-6.662266 444.48612935 4.36708411 442.25989755 15.5 440.1875 C17.39574293 439.84000123 19.29157588 439.49299323 21.1875 439.14648438 C31.07926713 437.33065851 40.95102474 435.43070067 50.80914307 433.4405365 C58.94211504 431.80101794 67.09336316 430.26661865 75.25 428.75 C76.70054275 428.47928408 78.15106361 428.20845085 79.6015625 427.9375 C83.06745984 427.290329 86.53364088 426.6446937 90 426 C91.1474986 422.5575042 90.81987182 421.4658298 89.91796875 418.0234375 C89.5166272 416.4597644 89.5166272 416.4597644 89.10717773 414.86450195 C88.65193726 413.13719849 88.65193726 413.13719849 88.1875 411.375 C87.7066518 409.50315772 87.22587462 407.63129643 86.74708557 405.75892639 C86.39932385 404.39895979 86.05069313 403.03921515 85.70127869 401.67967224 C83.36669255 392.57703015 81.15755441 383.44360022 78.9375 374.3125 C78.50696962 372.54482776 78.07638722 370.77716818 77.64575195 369.00952148 C74.40029689 355.68024856 71.18208685 342.34455476 68 329 C64.5502512 329 63.13135092 329.79661284 60.11328125 331.40625 Z M461 419 C461.33 431.54 461.66 444.08 462 457 C471.52529657 458.90505931 481.44404801 458.38554202 489.9765625 453.453125 C494.80701356 449.98415242 497.79065011 445.92581444 499 440 C498.81393433 434.69712838 497.86874743 431.67035012 494 428 C484.01888912 421.56875304 472.58316975 420.54442263 461 419 Z " fill="#FFFFFF" transform="translate(371,212)"/>
<path d="M0 0 C-7.77647536 3.99242135 -15.61579958 7.64803968 -23.6875 11 C-25.97020188 11.9566739 -28.25274613 12.91372397 -30.53515625 13.87109375 C-32.34137451 14.62688721 -32.34137451 14.62688721 -34.18408203 15.39794922 C-40.30266571 17.96260484 -46.4046473 20.56648855 -52.50964355 23.16326904 C-58.67028596 25.78213755 -64.83492465 28.39158786 -71 31 C-71.62972717 31.26653381 -72.25945435 31.53306763 -72.90826416 31.80767822 C-76.91539367 33.50304767 -80.92557146 35.19102234 -84.9375 36.875 C-85.93797363 37.29789307 -86.93844727 37.72078613 -87.96923828 38.15649414 C-88.87528809 38.53539795 -89.78133789 38.91430176 -90.71484375 39.3046875 C-91.49980225 39.63452637 -92.28476074 39.96436523 -93.09350586 40.30419922 C-95 41 -95 41 -97 41 C-98.19996934 38.04657157 -99.38281104 35.08658106 -100.5625 32.125 C-100.90474609 31.28324219 -101.24699219 30.44148438 -101.59960938 29.57421875 C-101.91865234 28.76855469 -102.23769531 27.96289062 -102.56640625 27.1328125 C-102.86490479 26.38918457 -103.16340332 25.64555664 -103.47094727 24.87939453 C-104 23 -104 23 -103 21 C-101.31800842 20.41590881 -101.31800842 20.41590881 -99.09008789 19.93774414 C-98.24873291 19.75278885 -97.40737793 19.56783356 -96.54052734 19.37727356 C-95.61062988 19.18187485 -94.68073242 18.98647614 -93.72265625 18.78515625 C-92.7488501 18.57336227 -91.77504395 18.3615683 -90.77172852 18.14335632 C-87.53700048 17.44168799 -84.29984761 16.75197262 -81.0625 16.0625 C-78.82266407 15.57989552 -76.58300122 15.09648711 -74.34350586 14.61230469 C-70.84448179 13.85590739 -67.34532683 13.10018125 -63.84547424 12.34762573 C-55.43944707 10.53798276 -47.04563808 8.67812172 -38.65625 6.79296875 C-35.23224399 6.02666597 -31.8081278 5.26085702 -28.38400269 4.49508667 C-26.1706691 3.99858689 -23.95787705 3.49966677 -21.74563599 2.99832153 C-18.65620538 2.29896361 -15.56474762 1.60935738 -12.47265625 0.921875 C-11.55307129 0.71100754 -10.63348633 0.50014008 -9.68603516 0.28288269 C-8.84484131 0.0976857 -8.00364746 -0.08751129 -7.13696289 -0.27832031 C-6.40619034 -0.44277649 -5.67541779 -0.60723267 -4.92250061 -0.77667236 C-3 -1 -3 -1 0 0 Z " fill="#FFFFFF" transform="translate(484,188)"/>
<path d="M0 0 C0 0.66 0 1.32 0 2 C-15.83773843 9.43602191 -31.70137753 16.81204746 -47.625 24.0625 C-48.30988495 24.37510773 -48.9947699 24.68771545 -49.70040894 25.00979614 C-58.07107766 28.82846619 -66.47892289 32.52589957 -75 36 C-77.24952815 30.6301586 -79.10144467 25.78292031 -80 20 C-70.61100395 16.98869947 -61.15792273 14.44706403 -51.58203125 12.109375 C-50.14802176 11.75663127 -48.7140783 11.40361902 -47.28019714 11.050354 C-44.3067579 10.31863744 -41.33271154 9.58946269 -38.3581543 8.86230469 C-34.54289964 7.92950874 -30.72902498 6.99120547 -26.91554737 6.05117416 C-23.96927051 5.32535497 -21.02242457 4.60187005 -18.07538414 3.87915802 C-16.6673878 3.53367612 -15.25954081 3.18758498 -13.85184669 2.84087372 C-11.89764595 2.36003733 -9.94261721 1.88256977 -7.98754883 1.40527344 C-6.8764827 1.13309998 -5.76541656 0.86092651 -4.62068176 0.58050537 C-2 0 -2 0 0 0 Z " fill="#FFFFFF" transform="translate(314,230)"/>
<path d="M0 0 C0 0.99 0 1.98 0 3 C-0.72058594 3.40347656 -1.44117188 3.80695313 -2.18359375 4.22265625 C-10.23810992 8.77689048 -18.19392289 13.4841135 -26.125 18.25 C-27.19371338 18.89219482 -28.26242676 19.53438965 -29.36352539 20.19604492 C-34.56425577 23.32430674 -39.76079215 26.45938385 -44.953125 29.6015625 C-45.87077637 30.15553711 -46.78842773 30.70951172 -47.73388672 31.28027344 C-49.45583229 32.31999876 -51.17628636 33.36219949 -52.89501953 34.40722656 C-53.65927246 34.86838867 -54.42352539 35.32955078 -55.2109375 35.8046875 C-55.87399902 36.20671387 -56.53706055 36.60874023 -57.22021484 37.02294922 C-59 38 -59 38 -62 39 C-62.49161725 37.69211261 -62.96741758 36.37828093 -63.4375 35.0625 C-63.70433594 34.33160156 -63.97117187 33.60070312 -64.24609375 32.84765625 C-65.28061246 28.94007004 -65.6324209 25.01817093 -66 21 C-65.19296631 20.74943848 -64.38593262 20.49887695 -63.55444336 20.24072266 C-47.90864994 15.37863056 -32.27730419 10.47661453 -16.6875 5.4375 C-16.0155661 5.22031311 -15.3436322 5.00312622 -14.65133667 4.77935791 C-7.31850121 2.41154281 -7.31850121 2.41154281 0 0 Z " fill="#FFFFFF" transform="translate(175,420)"/>
</svg>
