<?xml version="1.0" encoding="UTF-8"?>
<svg version="1.1" xmlns="http://www.w3.org/2000/svg" viewBox="0 0 722 722">
<path d="M0 0 C7.91775854 0.69952028 15.50614589 2.73476568 23.1875 4.6875 C24.64094736 5.05347934 26.09439792 5.41944601 27.54785156 5.78540039 C35.95893229 7.91399577 44.31495483 10.18661311 52.63671875 12.64160156 C61.2595614 15.14769863 69.97210303 17.28172591 78.6875 19.4375 C90.28860895 22.30738226 101.85745952 25.25523727 113.38745117 28.40161133 C122.57692876 30.90428064 131.79720624 33.27983752 141.02316284 35.64328003 C148.49672553 37.55919511 155.95515166 39.50939107 163.375 41.625 C171.51126928 43.94143455 179.72845759 45.88667511 187.95874023 47.83813477 C197.34978563 50.06826486 206.66702446 52.49740335 215.95922852 55.11157227 C226.11765609 57.96554043 236.30921963 60.65704955 246.53707886 63.25030518 C258.52704526 66.29143785 270.50421869 69.36735137 282.4375 72.625 C293.37280914 75.60895839 304.3565851 78.37332691 315.36499023 81.07275391 C322.18750474 82.75542701 328.96740525 84.52829249 335.73046875 86.43359375 C344.52667657 88.90860093 353.37689062 91.12787407 362.25024414 93.30743408 C374.33295177 96.27860585 386.38646195 99.2745566 398.31787109 102.81225586 C406.82982459 105.30665573 415.44227935 107.39607166 424.05163574 109.52206421 C433.1522754 111.77029134 442.21523187 114.11290679 451.24462891 116.6340332 C457.15385709 118.2659645 463.08603901 119.78729306 469.03515625 121.265625 C469.83684235 121.46487076 470.63852844 121.66411652 471.46450806 121.86940002 C475.48422321 122.8665509 479.5054029 123.85740443 483.52832031 124.84155273 C490.79115949 126.62764288 497.94353171 128.49802504 505 131 C507.32558286 131.69904124 509.65933656 132.35258245 512 133 C513.58355862 137.01172454 512.38376572 140.53288655 511.33984375 144.52734375 C511.06227486 145.632808 511.06227486 145.632808 510.77909851 146.76060486 C510.17472703 149.15542862 509.55647542 151.54641317 508.9375 153.9375 C508.5188705 155.58271842 508.10074042 157.22806399 507.68310547 158.87353516 C505.26805033 168.33818758 502.77783917 177.78008449 499.94116211 187.12866211 C497.88316176 193.99611141 496.44379593 200.98102672 495 208 C495.54377792 208.131147 496.08755585 208.26229401 496.64781189 208.39741516 C502.34357392 209.77191619 508.03799402 211.15187605 513.73168945 212.53491211 C515.85244857 213.0493145 517.97353801 213.56235715 520.0949707 214.07397461 C523.15665624 214.81260535 526.21709262 215.55623281 529.27734375 216.30078125 C530.21521225 216.52590897 531.15308075 216.75103668 532.11936951 216.98298645 C545.51138058 220.25569029 545.51138058 220.25569029 551 223 C550.41918923 229.05702659 549.09800158 234.46497663 547.25 240.25 C544.75520146 248.25461652 542.59871106 256.28821644 540.73730469 264.46386719 C539.72282747 268.75642903 538.75098769 272.44112732 536 276 C535.01 276.33 534.02 276.66 533 277 C532.34 277.99 531.68 278.98 531 280 C530.34 280 529.68 280 529 280 C528.34 281.32 527.68 282.64 527 284 C526.34 284 525.68 284 525 284 C524.7421875 284.57234375 524.484375 285.1446875 524.21875 285.734375 C522.88634058 288.21128995 521.34943882 290.1341166 519.5 292.25 C518.8915625 292.95640625 518.283125 293.6628125 517.65625 294.390625 C516 296 516 296 514 296 C513.67 296.99 513.34 297.98 513 299 C512.34 299 511.68 299 511 299 C511 299.99 511 300.98 511 302 C510.01 302 509.02 302 508 302 C507.814375 302.680625 507.62875 303.36125 507.4375 304.0625 C505.44380676 308.13656879 502.50225292 311.13376943 499 314 C498.34 314 497.68 314 497 314 C496.67 314.99 496.34 315.98 496 317 C495.34 317 494.68 317 494 317 C493.34 318.65 492.68 320.3 492 322 C491.34 322 490.68 322 490 322 C490 322.66 490 323.32 490 324 C489.34 324 488.68 324 488 324 C487.731875 324.61875 487.46375 325.2375 487.1875 325.875 C486 328 486 328 483 330 C482.67 330.99 482.34 331.98 482 333 C481.01 333 480.02 333 479 333 C478.71125 333.598125 478.4225 334.19625 478.125 334.8125 C477 337 477 337 475 340 C474.34 340 473.68 340 473 340 C472.7525 340.5775 472.505 341.155 472.25 341.75 C470.81700012 344.32939979 469.21575324 346.06121592 467 348 C466.34 348 465.68 348 465 348 C464.8453125 348.8971875 464.8453125 348.8971875 464.6875 349.8125 C463.90175967 352.31258286 463.03081147 353.37535082 461 355 C460.34 355 459.68 355 459 355 C458.34 356.32 457.68 357.64 457 359 C456.01 359 455.02 359 454 359 C453.87254395 360.1648291 453.74508789 361.3296582 453.61376953 362.52978516 C453.10009194 366.62090438 452.21795586 370.52935052 451.1796875 374.5234375 C450.91080467 375.56531975 450.91080467 375.56531975 450.63648987 376.62825012 C450.05426466 378.87848203 449.46477269 381.12673562 448.875 383.375 C448.46459723 384.95474883 448.05452613 386.53458387 447.64477539 388.11450195 C445.02766057 398.18167929 442.33366984 408.22714231 439.59960938 418.26318359 C436.89300594 428.25980146 434.39388281 438.30588555 431.92749023 448.36401367 C430.24473107 455.18685317 428.47179865 461.96708175 426.56640625 468.73046875 C424.09139907 477.52667657 421.87212593 486.37689062 419.69256592 495.25024414 C416.72139415 507.33295177 413.7254434 519.38646195 410.18774414 531.31787109 C407.69334427 539.82982459 405.60392834 548.44227935 403.47793579 557.05163574 C401.22970866 566.1522754 398.88709321 575.21523187 396.3659668 584.24462891 C394.7340355 590.15385709 393.21270694 596.08603901 391.734375 602.03515625 C391.53512924 602.83684235 391.33588348 603.63852844 391.13059998 604.46450806 C390.1334491 608.48422321 389.14259557 612.5054029 388.15844727 616.52832031 C386.37235712 623.79115949 384.50197496 630.94353171 382 638 C381.30095876 640.32558286 380.64741755 642.65933656 380 645 C375.98827119 646.58356031 372.46712401 645.38376128 368.47265625 644.33984375 C367.73667709 644.15506973 367.00069794 643.97029572 366.24241638 643.77992249 C363.84656752 643.17534162 361.45457893 642.55681385 359.0625 641.9375 C357.40116266 641.51449846 355.73970365 641.09197454 354.078125 640.66992188 C345.05972685 638.36738749 336.08693103 635.94857647 327.16113281 633.30810547 C318.60760911 630.81262087 309.96034492 628.70160376 301.3125 626.5625 C289.71139434 623.69260449 278.14254078 620.74476282 266.61254883 617.59838867 C257.42307124 615.09571936 248.20279376 612.72016248 238.97683716 610.35671997 C231.50327447 608.44080489 224.04484834 606.49060893 216.625 604.375 C208.48873072 602.05856545 200.27154241 600.11332489 192.04125977 598.16186523 C182.65021437 595.93173514 173.33297554 593.50259665 164.04077148 590.88842773 C153.88234391 588.03445957 143.69078037 585.34295045 133.46292114 582.74969482 C121.47295474 579.70856215 109.49578131 576.63264863 97.5625 573.375 C86.62719086 570.39104161 75.6434149 567.62667309 64.63500977 564.92724609 C57.81249526 563.24457299 51.03259475 561.47170751 44.26953125 559.56640625 C35.47332343 557.09139907 26.62310938 554.87212593 17.74975586 552.69256592 C5.66704823 549.72139415 -6.38646195 546.7254434 -18.31787109 543.18774414 C-26.82982459 540.69334427 -35.44227935 538.60392834 -44.05163574 536.47793579 C-53.1522754 534.22970866 -62.21523187 531.88709321 -71.24462891 529.3659668 C-77.15385709 527.7340355 -83.08603901 526.21270694 -89.03515625 524.734375 C-89.83684235 524.53512924 -90.63852844 524.33588348 -91.46450806 524.13059998 C-95.48422321 523.1334491 -99.5054029 522.14259557 -103.52832031 521.15844727 C-110.79242158 519.37195092 -117.93631569 517.48344269 -125 515 C-127.65662914 514.27813285 -130.3203366 513.63337499 -133 513 C-132.3845636 507.35000726 -131.39792922 501.95618601 -130.0390625 496.44140625 C-129.84782806 495.65281723 -129.65659363 494.86422821 -129.45956421 494.05174255 C-129.05659631 492.39488618 -128.651424 490.73856452 -128.24414062 489.08276367 C-127.62788109 486.57422774 -127.02047976 484.0636655 -126.4140625 481.55273438 C-126.01875808 479.93216256 -125.62294146 478.31171558 -125.2265625 476.69140625 C-124.95919785 475.58473351 -124.95919785 475.58473351 -124.68643188 474.45570374 C-123.77927149 470.78940379 -122.76215403 467.21191477 -121.53442383 463.6394043 C-119.79012397 458.52400624 -118.50079113 453.3263811 -117.22265625 448.078125 C-116.97003525 447.05628113 -116.71741425 446.03443726 -116.45713806 444.98162842 C-115.38731213 440.65379284 -114.32590312 436.32390522 -113.26391602 431.99414062 C-108.17477809 411.28045645 -108.17477809 411.28045645 -105.96875 404.40625 C-102.90209595 394.84508476 -100.76963835 385.00999506 -98.4375 375.25 C-97.48237638 371.25410719 -96.52199561 367.259529 -95.55859375 363.265625 C-95.34601425 362.36853821 -95.13343475 361.47145142 -94.91441345 360.54718018 C-93.93383691 356.48315332 -92.87533031 352.5045011 -91.51586914 348.54980469 C-89.75412656 343.42121461 -88.47029435 338.20309024 -87.1875 332.9375 C-86.93250732 331.90616943 -86.67751465 330.87483887 -86.41479492 329.81225586 C-85.60641027 326.54234364 -84.80262074 323.27133145 -84 320 C-82.941673 315.68645783 -81.87853764 311.37414227 -80.8125 307.0625 C-80.57490967 306.08724365 -80.33731934 305.1119873 -80.0925293 304.10717773 C-79.03923089 299.84866905 -77.92999183 295.66221708 -76.5 291.51367188 C-74.71820945 286.32986304 -73.45717361 281.0473751 -72.1875 275.71875 C-71.93250732 274.66522339 -71.67751465 273.61169678 -71.41479492 272.52624512 C-70.60619247 269.18503643 -69.80247616 265.84268499 -69 262.5 C-67.94193409 258.0926653 -66.87876081 253.68660843 -65.8125 249.28125 C-65.57490967 248.28411987 -65.33731934 247.28698975 -65.0925293 246.25964355 C-63.86069502 241.17224125 -62.44863871 236.23842116 -60.7434082 231.29138184 C-59.32003865 226.90417823 -58.27867584 222.41653817 -57.1875 217.9375 C-56.93250732 216.90616943 -56.67751465 215.87483887 -56.41479492 214.81225586 C-55.60641027 211.54234364 -54.80262074 208.27133145 -54 205 C-52.941673 200.68645783 -51.87853764 196.37414227 -50.8125 192.0625 C-50.57490967 191.08724365 -50.33731934 190.1119873 -50.0925293 189.10717773 C-48.84828536 184.07667207 -47.42526573 179.1892443 -45.74118042 174.29016113 C-44.33597734 169.94824736 -43.30198015 165.51002676 -42.22265625 161.078125 C-41.97003525 160.05628113 -41.71741425 159.03443726 -41.45713806 157.98162842 C-40.38731213 153.65379284 -39.32590312 149.32390522 -38.26391602 144.99414062 C-33.1471718 124.16809399 -33.1471718 124.16809399 -29.98999023 114.32324219 C-27.65269091 106.47729436 -25.89224774 98.46261283 -24 90.5 C-19.27884255 70.63328374 -19.27884255 70.63328374 -17.06640625 63.734375 C-13.81648437 53.56184203 -11.48011466 43.11634335 -8.9375 32.75 C-7.88830097 28.47291291 -6.83425846 24.19706119 -5.77734375 19.921875 C-5.54289047 18.95916687 -5.30843719 17.99645874 -5.06687927 17.00457764 C-3.63964337 11.2333588 -1.97650917 5.60737092 0 0 Z M14 26 C13.86424561 26.59425781 13.72849121 27.18851563 13.58862305 27.80078125 C12.96057063 30.53518805 12.32409423 33.26756973 11.6875 36 C11.47416016 36.93457031 11.26082031 37.86914062 11.04101562 38.83203125 C10.82509766 39.75371094 10.60917969 40.67539063 10.38671875 41.625 C10.19295654 42.46289062 9.99919434 43.30078125 9.79956055 44.1640625 C9 47 9 47 7.58911133 50.63696289 C5.65057497 55.70484176 4.4373164 60.91115597 3.1875 66.18359375 C2.93250732 67.23853531 2.67751465 68.29347687 2.41479492 69.38038635 C1.60510877 72.73163385 0.80191073 76.08438412 0 79.4375 C-0.80230275 82.78694502 -1.60615892 86.13597999 -2.41479492 89.48390198 C-2.91614136 91.55992571 -3.41391601 93.63681649 -3.9074707 95.71470642 C-5.13659212 100.80812819 -6.54922469 105.74264807 -8.2565918 110.69419861 C-9.69855839 115.1666924 -10.72713221 119.74695356 -11.8125 124.31640625 C-12.33589578 126.48373403 -12.85933458 128.65105143 -13.3828125 130.81835938 C-14.19389895 134.19714891 -15.00330823 137.57633307 -15.81152344 140.95581055 C-16.59930066 144.24370621 -17.39315638 147.53009186 -18.1875 150.81640625 C-18.42509033 151.81869766 -18.66268066 152.82098907 -18.9074707 153.85365295 C-19.93867607 158.11280793 -21.01686015 162.23906806 -22.61328125 166.32397461 C-23.85294765 169.61018183 -24.56611115 172.52888922 -25 176 C-17.66930229 177.85800776 -10.33677765 179.70866545 -3.00292969 181.55419922 C-0.50770977 182.18303619 1.98708538 182.81356116 4.48144531 183.44580078 C8.06465366 184.35371793 11.64934045 185.25557475 15.234375 186.15625 C16.35116638 186.44060913 17.46795776 186.72496826 18.61859131 187.01794434 C19.65936829 187.27821411 20.70014526 187.53848389 21.77246094 187.80664062 C22.68735291 188.03758423 23.60224487 188.26852783 24.54486084 188.50646973 C27.23621661 189.13138459 27.23621661 189.13138459 31 189 C31 189.66 31 190.32 31 191 C31.69411484 191.16873123 32.38822968 191.33746246 33.1033783 191.51130676 C39.67962216 193.11063395 46.25495862 194.7136444 52.82932186 196.32068348 C56.20840422 197.14653275 59.58780878 197.97100867 62.96801758 198.79223633 C66.86382717 199.73879627 70.75810599 200.69152511 74.65234375 201.64453125 C75.8526976 201.9352803 77.05305145 202.22602936 78.28977966 202.52558899 C83.9615153 203.91835033 89.51664544 205.42111794 95.03422546 207.33613586 C97.96220561 208.32494764 100.93611414 209.07685556 103.93359375 209.82421875 C105.15884766 210.13037109 106.38410156 210.43652344 107.64648438 210.75195312 C108.89751953 211.06068359 110.14855469 211.36941406 111.4375 211.6875 C112.71560547 212.00783203 113.99371094 212.32816406 115.31054688 212.65820312 C121.08701371 214.30489187 121.08701371 214.30489187 127 215 C127.13575439 214.43603516 127.27150879 213.87207031 127.41137695 213.29101562 C128.03993349 210.69273368 128.67616621 208.09638773 129.3125 205.5 C129.52583984 204.613125 129.73917969 203.72625 129.95898438 202.8125 C130.28286133 201.49765625 130.28286133 201.49765625 130.61328125 200.15625 C130.90392456 198.96225586 130.90392456 198.96225586 131.20043945 197.74414062 C132 195 132 195 133.42675781 191.31323242 C135.23167071 186.58178094 136.39870284 181.75493941 137.55859375 176.83203125 C137.78901871 175.87536057 138.01944366 174.91868988 138.2568512 173.93302917 C138.98852368 170.89397776 139.71369807 167.85343477 140.4375 164.8125 C145.76740748 142.45127027 145.76740748 142.45127027 147.96875 135.625 C151.62721924 124.23324186 154.08633295 112.45403542 156.86645508 100.82446289 C157.64766514 97.56294071 158.43492957 94.30292213 159.22265625 91.04296875 C159.45710953 90.05322556 159.69156281 89.06348236 159.93312073 88.04374695 C160.94735608 83.85280494 162.003349 79.8146977 163.61108398 75.80981445 C165.17409304 71.89171745 165.62563901 68.19284306 166 64 C165.45400146 63.868853 164.90800293 63.73770599 164.34545898 63.60258484 C158.63328926 62.22948709 152.92286555 60.84929881 147.21337891 59.46508789 C145.08588398 58.95026709 142.95795881 58.43722074 140.82958984 57.92602539 C137.76022779 57.18848799 134.69249915 56.44446125 131.625 55.69921875 C130.68197021 55.47409103 129.73894043 55.24896332 128.76733398 55.01701355 C124.76162326 54.0381908 120.87437262 53.01954951 117.03491211 51.50708008 C112.08944442 49.56678157 106.97737088 48.410892 101.81640625 47.1875 C100.76146469 46.93250732 99.70652313 46.67751465 98.61961365 46.41479492 C95.26836615 45.60510877 91.91561588 44.80191073 88.5625 44 C85.21305498 43.19769725 81.86402001 42.39384108 78.51609802 41.58520508 C76.44007429 41.08385864 74.36318351 40.58608399 72.28529358 40.0925293 C67.14428873 38.85192534 62.15214835 37.43390883 57.15357971 35.70980835 C53.54175739 34.51937104 49.86255032 33.63138661 46.16796875 32.73828125 C45.36893631 32.54276169 44.56990387 32.34724213 43.74665833 32.14579773 C42.07579038 31.73811916 40.40445322 31.33235918 38.73266602 30.9284668 C36.17502541 30.30948097 33.61971423 29.68146213 31.06445312 29.05273438 C29.43242362 28.65570719 27.80026654 28.25920399 26.16796875 27.86328125 C25.40751755 27.6758284 24.64706635 27.48837555 23.86357117 27.29524231 C20.44472869 26.47585551 17.53928363 26 14 26 Z M172 66 C168.2678524 79.09578692 164.93701497 92.2529174 161.796875 105.50170898 C161.22988617 107.8886649 160.65808219 110.27443179 160.0859375 112.66015625 C159.92024261 113.36656754 159.75454773 114.07297882 159.58383179 114.80079651 C158.72488692 118.3765829 157.7414178 121.85136865 156.54541016 125.32983398 C154.78080586 130.50092284 153.48005706 135.75683596 152.1875 141.0625 C151.93250732 142.09383057 151.67751465 143.12516113 151.41479492 144.18774414 C150.60641027 147.45765636 149.80262074 150.72866855 149 154 C147.941673 158.31354217 146.87853764 162.62585773 145.8125 166.9375 C145.57490967 167.91275635 145.33731934 168.8880127 145.0925293 169.89282227 C143.83109812 174.99281632 142.39118027 179.95526509 140.68295288 184.9225769 C139.65379635 188.05309089 138.91235547 191.23105445 138.17578125 194.44140625 C138.02465378 195.09455307 137.87352631 195.74769989 137.71781921 196.42063904 C137.24529145 198.46701102 136.77877885 200.51469621 136.3125 202.5625 C135.9893332 203.96688919 135.66576849 205.37118688 135.34179688 206.77539062 C134.55661095 210.18255183 133.77680552 213.59091708 133 217 C133.845625 217.18175781 134.69125 217.36351562 135.5625 217.55078125 C136.696875 217.80214844 137.83125 218.05351562 139 218.3125 C140.11375 218.55613281 141.2275 218.79976562 142.375 219.05078125 C144.97792477 219.73236608 147.2612295 220.45168717 149.73852539 221.4296875 C154.76801826 223.37521602 159.94395017 224.57045737 165.18359375 225.8125 C166.23853531 226.06749268 167.29347687 226.32248535 168.38038635 226.58520508 C171.73163385 227.39489123 175.08438412 228.19808927 178.4375 229 C181.78694502 229.80230275 185.13597999 230.60615892 188.48390198 231.41479492 C190.55992571 231.91614136 192.63681649 232.41391601 194.71470642 232.9074707 C199.82128679 234.1397675 204.77428793 235.5513337 209.73899841 237.26333618 C213.95891873 238.63824128 218.27171041 239.65053031 222.58203125 240.69921875 C223.55863205 240.9391304 224.53523285 241.17904205 225.54142761 241.42622375 C227.58892605 241.92803801 229.63689232 242.42794691 231.68530273 242.92602539 C234.82236119 243.68990121 237.95711634 244.4627592 241.09179688 245.23632812 C243.08840949 245.72449925 245.08514991 246.21214802 247.08203125 246.69921875 C248.01747269 246.93041916 248.95291412 247.16161957 249.91670227 247.39982605 C250.78828476 247.61037125 251.65986725 247.82091644 252.55786133 248.0378418 C253.3212532 248.224207 254.08464508 248.4105722 254.87117004 248.60258484 C257.29441039 249.12234139 257.29441039 249.12234139 261 249 C261 249.66 261 250.32 261 251 C264.95025596 251.99991091 268.90127363 252.99674696 272.85302734 253.99072266 C274.19764226 254.32939287 275.54204491 254.66890698 276.88623047 255.00927734 C278.816824 255.49798109 280.74824481 255.98341312 282.6796875 256.46875 C283.84226074 256.76201172 285.00483398 257.05527344 286.20263672 257.35742188 C288.84650283 258.07462595 288.84650283 258.07462595 291 258 C291.66 254.04 292.32 250.08 293 246 C284.0349507 243.39174735 275.02576704 240.98592289 265.96484375 238.734375 C265.16638031 238.53593491 264.36791687 238.33749481 263.54525757 238.13304138 C259.47538787 237.12346781 255.40400262 236.12036956 251.33105469 235.12329102 C249.79751642 234.74499343 248.26398739 234.36665838 246.73046875 233.98828125 C246.02582993 233.81758118 245.3211911 233.6468811 244.59519958 233.4710083 C240.9228262 232.56205885 237.4946283 231.43631678 234 230 C232.53383071 229.6075381 231.05784477 229.24989455 229.57421875 228.9296875 C228.77822266 228.75566406 227.98222656 228.58164062 227.16210938 228.40234375 C226.34548828 228.22832031 225.52886719 228.05429687 224.6875 227.875 C223.85154297 227.69324219 223.01558594 227.51148438 222.15429688 227.32421875 C220.10370028 226.87894635 218.05196038 226.4389448 216 226 C216.9116193 222.43618966 217.83027432 218.87422612 218.75 215.3125 C219.12898438 213.83040039 219.12898438 213.83040039 219.515625 212.31835938 C220.84549372 207.18174144 222.26317079 202.10241733 223.875 197.046875 C226.4794379 188.69981382 228.51584262 180.21648701 230.57421875 171.72192383 C231.25666742 168.91002822 231.94831041 166.10049649 232.640625 163.29101562 C233.07867383 161.49492543 233.51619355 159.69870609 233.953125 157.90234375 C234.15931458 157.06694565 234.36550415 156.23154755 234.57794189 155.37083435 C234.76523865 154.59224564 234.9525354 153.81365692 235.14550781 153.01147461 C235.31109192 152.33120712 235.47667603 151.65093964 235.64727783 150.95005798 C236.11865973 148.67426193 236.11865973 148.67426193 236 145 C236.66 145 237.32 145 238 145 C238 143.68 238 142.36 238 141 C240.72985208 141.74756892 243.45885979 142.49802985 246.1875 143.25 C246.93708984 143.45496094 247.68667969 143.65992188 248.45898438 143.87109375 C252.90438858 145.09869491 257.30598573 146.41329226 261.69921875 147.81640625 C271.55755015 150.87162948 281.60681284 153.2215472 291.625 155.6875 C294.64556923 156.43385738 297.66587632 157.18125375 300.68588257 157.92988586 C302.55190218 158.39216447 304.41828276 158.85298909 306.2850647 159.31217957 C307.1237912 159.51942154 307.9625177 159.72666351 308.82666016 159.94018555 C309.56244293 160.12131393 310.29822571 160.30244232 311.05630493 160.48905945 C312.72283243 160.92714076 314.36528099 161.45509366 316 162 C317.28778479 156.9478041 318.56935509 151.89408779 319.84521484 146.83886719 C320.2800361 145.11968577 320.71654659 143.40093067 321.15478516 141.68261719 C321.78473347 139.21139138 322.40857289 136.73869155 323.03125 134.265625 C323.32654602 133.11540863 323.32654602 133.11540863 323.62780762 131.94195557 C324.4913123 128.48938468 325 125.58348969 325 122 C325.66 122 326.32 122 327 122 C327.50435694 120.0636296 328.00333874 118.12585854 328.5 116.1875 C328.91765625 114.56908203 328.91765625 114.56908203 329.34375 112.91796875 C330.10970948 110.01066025 330.10970948 110.01066025 330 107 C328.91283691 106.72325439 327.82567383 106.44650879 326.70556641 106.16137695 C322.57860203 105.11026996 318.45230105 104.05657759 314.32617188 103.00219727 C312.55779044 102.55067182 310.78924195 102.09980005 309.02050781 101.6496582 C299.97630453 99.3474506 290.94784634 97.01206875 281.96484375 94.48046875 C271.49843089 91.53484806 260.94387391 88.95930764 250.38354492 86.375 C241.72157624 84.25160253 233.0953891 82.08866695 224.5546875 79.515625 C214.84939952 76.59185504 205.02732428 74.17405584 195.1875 71.75 C193.3716612 71.29981619 191.55590556 70.84929683 189.74023438 70.3984375 C186.44606161 69.58094911 183.15145597 68.76526412 179.85620117 67.95214844 C177.23643627 67.30529291 174.61759532 66.6555058 172 66 Z M336 109 C333.79841167 113.88523423 332.67952202 119.00278657 331.43359375 124.19140625 C331.19463882 125.17366684 330.9556839 126.15592743 330.70948792 127.16795349 C329.94869719 130.298641 329.1930106 133.43053453 328.4375 136.5625 C327.92547114 138.67391083 327.41310506 140.78523992 326.90039062 142.89648438 C325.77190941 147.54498265 324.64670076 152.19425962 323.5243988 156.84425354 C323.02472463 158.89835975 322.51516631 160.94973019 322 163 C331.59892351 166.49253995 341.55059359 168.6114208 351.47924805 170.94238281 C359.69656927 172.87704947 367.84254597 174.86016697 375.875 177.46875 C385.42602707 180.56617699 395.1717337 182.81629571 404.9375 185.125 C407.66258518 185.77107177 410.38720921 186.41887852 413.11073303 187.07150269 C414.78609647 187.47283284 416.46233638 187.87053071 418.13963318 188.26370239 C422.77989754 189.37371747 427.26021949 190.72427277 431.77278137 192.27011108 C435.4241147 193.46670117 439.1367003 194.38331276 442.8671875 195.296875 C443.66859161 195.49476624 444.46999573 195.69265747 445.29568481 195.89654541 C446.97071978 196.30852402 448.64625351 196.71847968 450.32226562 197.12646484 C452.89153995 197.75404008 455.45742629 198.39438659 458.0234375 199.03515625 C459.65866289 199.43567757 461.29407324 199.83544469 462.9296875 200.234375 C464.07810623 200.5232962 464.07810623 200.5232962 465.24972534 200.8180542 C469.63341923 201.88628348 469.63341923 201.88628348 474 201 C478.04899225 191.82162586 479.8018595 181.11367001 482.14697266 171.37597656 C482.75771596 168.84299908 483.3765266 166.31208203 483.99609375 163.78125 C484.38849528 162.16417756 484.78043977 160.54699412 485.171875 158.9296875 C485.3561908 158.17662323 485.54050659 157.42355896 485.73040771 156.64767456 C486.43836672 153.69108263 487 151.05226726 487 148 C486.36723145 147.84442627 485.73446289 147.68885254 485.08251953 147.52856445 C482.09600064 146.7926028 479.11050969 146.05254452 476.125 145.3125 C475.13113281 145.06822266 474.13726563 144.82394531 473.11328125 144.57226562 C466.86624248 143.02032832 460.66002706 141.35797766 454.46484375 139.61328125 C443.63128222 136.56960384 432.70888894 133.90086338 421.7800293 131.22412109 C419.18461078 130.58740521 416.59031998 129.94624114 413.99609375 129.3046875 C413.22406113 129.11711884 412.4520285 128.92955017 411.65660095 128.73629761 C407.92008817 127.81058098 404.27020954 126.78363814 400.62915039 125.53173828 C395.47216207 123.77162142 390.22878098 122.47655309 384.9375 121.1875 C383.39050415 120.80501099 383.39050415 120.80501099 381.81225586 120.41479492 C378.54234364 119.60641027 375.27133145 118.80262074 372 118 C367.68645783 116.941673 363.37414227 115.87853764 359.0625 114.8125 C358.08724365 114.57490967 357.1119873 114.33731934 356.10717773 114.0925293 C350.92885547 112.81172444 345.89164963 111.36997487 340.87280273 109.55737305 C338.84643741 108.85737525 338.84643741 108.85737525 336 109 Z M-26 182 C-28.67146609 189.55829429 -30.61484095 197.21239972 -32.5 205 C-33.09025562 207.43834854 -33.68393392 209.87587142 -34.28125 212.3125 C-34.53970703 213.38113281 -34.79816406 214.44976562 -35.06445312 215.55078125 C-35.77346735 218.16480864 -36.5524578 220.67056717 -37.43164062 223.2265625 C-39.19665758 228.43422543 -40.51169094 233.72296331 -41.8125 239.0625 C-42.19498901 240.60949585 -42.19498901 240.60949585 -42.58520508 242.18774414 C-43.39358973 245.45765636 -44.19737926 248.72866855 -45 252 C-46.058327 256.31354217 -47.12146236 260.62585773 -48.1875 264.9375 C-48.42509033 265.91275635 -48.66268066 266.8880127 -48.9074707 267.89282227 C-49.95993266 272.14794916 -51.06776006 276.331943 -52.49560547 280.47753906 C-54.29450882 285.71126659 -55.58431569 291.04567457 -56.8828125 296.421875 C-57.14254852 297.48488831 -57.40228455 298.54790161 -57.66989136 299.64312744 C-58.21446618 301.87477503 -58.75725582 304.10685893 -59.29833984 306.33935547 C-60.12609429 309.75451482 -60.95904222 313.16837431 -61.79296875 316.58203125 C-62.3232168 318.75773937 -62.85317485 320.9335182 -63.3828125 323.109375 C-63.75468185 324.6360379 -63.75468185 324.6360379 -64.13406372 326.19354248 C-64.36455414 327.14513245 -64.59504456 328.09672241 -64.83251953 329.07714844 C-65.03442902 329.90937927 -65.2363385 330.74161011 -65.44436646 331.59906006 C-65.71940506 332.78752533 -65.71940506 332.78752533 -66 334 C-66.23032928 334.88528381 -66.46065857 335.77056763 -66.69796753 336.68267822 C-66.79763824 337.44739441 -66.89730896 338.2121106 -67 339 C-64.6052561 341.3947439 -63.21365686 341.60862609 -59.94287109 342.37280273 C-58.88772308 342.62323837 -57.83257507 342.87367401 -56.74545288 343.13169861 C-55.02680527 343.5286367 -55.02680527 343.5286367 -53.2734375 343.93359375 C-51.50826279 344.35149925 -51.50826279 344.35149925 -49.70742798 344.77784729 C-45.93152031 345.6712137 -42.15350235 346.55517721 -38.375 347.4375 C-34.61808683 348.3169056 -30.86174152 349.19847461 -27.10684204 350.08644104 C-24.76851854 350.63924413 -22.42902154 351.18711343 -20.08822632 351.72935486 C-14.92105171 352.94933442 -10.00253848 354.2908114 -5.07214355 356.25209045 C-0.5483537 357.88488545 4.1717233 358.89706584 8.83984375 360.03125 C9.96137344 360.30843872 11.08290314 360.58562744 12.23841858 360.87121582 C15.80367703 361.75202487 19.37041609 362.62661543 22.9375 363.5 C26.50090949 364.37378439 30.06392513 365.24904627 33.62586975 366.12878418 C35.83547116 366.67442694 38.04590975 367.21669462 40.25730896 367.75500488 C45.59834372 369.07297385 50.80844434 370.54357868 56.00828552 372.33816528 C58.82366879 373.27370018 61.67406833 373.95142249 64.56640625 374.60546875 C65.71044922 374.86650391 66.85449219 375.12753906 68.03320312 375.39648438 C69.19787109 375.65751953 70.36253906 375.91855469 71.5625 376.1875 C72.76197266 376.46013672 73.96144531 376.73277344 75.19726562 377.01367188 C78.1306232 377.67981284 81.06484821 378.34181832 84 379 C84.18175781 378.2265625 84.36351562 377.453125 84.55078125 376.65625 C84.80214844 375.6146875 85.05351562 374.573125 85.3125 373.5 C85.55613281 372.4790625 85.79976562 371.458125 86.05078125 370.40625 C87 367 87 367 88.4296875 363.29272461 C90.3670399 358.25072745 91.5683977 353.06473869 92.8125 347.81640625 C93.06749268 346.76146469 93.32248535 345.70652313 93.58520508 344.61961365 C94.39489123 341.26836615 95.19808927 337.91561588 96 334.5625 C96.80230275 331.21305498 97.60615892 327.86402001 98.41479492 324.51609802 C98.91614136 322.44007429 99.41391601 320.36318351 99.9074707 318.28529358 C101.1397675 313.17871321 102.5513337 308.22571207 104.26333618 303.26100159 C105.63824128 299.04108127 106.65053031 294.72828959 107.69921875 290.41796875 C107.9391304 289.44136795 108.17904205 288.46476715 108.42622375 287.45857239 C108.92803801 285.41107395 109.42794691 283.36310768 109.92602539 281.31469727 C110.68990121 278.17763881 111.4627592 275.04288366 112.23632812 271.90820312 C112.72449925 269.91159051 113.21214802 267.91485009 113.69921875 265.91796875 C113.93041916 264.98252731 114.16161957 264.04708588 114.39982605 263.08329773 C114.61037125 262.21171524 114.82091644 261.34013275 115.0378418 260.44213867 C115.224207 259.6787468 115.4105722 258.91535492 115.60258484 258.12882996 C116.12234139 255.70558961 116.12234139 255.70558961 116 252 C116.66 252 117.32 252 118 252 C119.00143882 248.06843948 119.99822344 244.13573137 120.99072266 240.2019043 C121.32896471 238.86401591 121.66847359 237.52644712 122.00927734 236.18920898 C122.49910619 234.26630945 122.98399397 232.34215339 123.46875 230.41796875 C123.76201172 229.26063232 124.05527344 228.1032959 124.35742188 226.91088867 C125.10778005 224.00858297 125.10778005 224.00858297 125 221 C122.91798472 220.49453964 120.83432933 219.99583165 118.75 219.5 C117.58984375 219.2215625 116.4296875 218.943125 115.234375 218.65625 C111.89669288 217.86743548 111.89669288 217.86743548 108 218 C107.67 217.34 107.34 216.68 107 216 C104.70684092 215.17607648 104.70684092 215.17607648 101.87280273 214.53540039 C100.77753769 214.264944 99.68227264 213.99448761 98.55381775 213.71583557 C97.35914383 213.4293364 96.16446991 213.14283722 94.93359375 212.84765625 C93.71100357 212.54685654 92.48841339 212.24605682 91.22877502 211.93614197 C87.96657767 211.13427317 84.7029246 210.33902415 81.43817139 209.54766846 C76.86417124 208.43846051 72.29192666 207.32221766 67.72120667 206.1995697 C65.28830952 205.60235992 62.85421784 205.00998988 60.41880798 204.42311096 C55.13191178 203.12847125 50.06264547 201.73374076 45.0063324 199.7245636 C40.76406007 198.19251631 36.34054392 197.26103562 31.95703125 196.22265625 C30.91157639 195.97003525 29.86612152 195.71741425 28.78898621 195.45713806 C25.46461497 194.65416637 22.13874762 193.85766032 18.8125 193.0625 C-7.24887568 186.82417143 -7.24887568 186.82417143 -16.60742188 183.73510742 C-19.73934732 182.77283931 -22.74339822 182.3029397 -26 182 Z M131 223 C130.76216797 223.98613281 130.76216797 223.98613281 130.51953125 224.9921875 C129.20585483 230.34850352 127.82552981 235.67391732 126.32357788 240.9801178 C123.02010072 252.66083566 120.11155798 264.430867 117.22412109 276.2199707 C116.58740521 278.81538922 115.94624114 281.40968002 115.3046875 284.00390625 C115.11711884 284.77593887 114.92955017 285.5479715 114.73629761 286.34339905 C113.81114519 290.07763449 112.78511585 293.72543729 111.53393555 297.36425781 C109.7613117 302.55788559 108.45487681 307.84010803 107.15234375 313.16796875 C106.8949794 314.20641434 106.63761505 315.24485992 106.37245178 316.31477356 C105.55738418 319.60484899 104.74702924 322.89605785 103.9375 326.1875 C103.12397388 329.48954398 102.30936126 332.79130507 101.49183655 336.09236145 C100.98520335 338.13854428 100.48088976 340.18530327 99.97923279 342.23271179 C98.82467046 346.90023799 97.55589553 351.4473519 96 356 C95.47406793 358.01227617 94.97204752 360.03093003 94.4921875 362.0546875 C94.22792969 363.16328125 93.96367187 364.271875 93.69140625 365.4140625 C93.42199219 366.55617188 93.15257812 367.69828125 92.875 368.875 C92.59785156 370.0403125 92.32070313 371.205625 92.03515625 372.40625 C91.35436425 375.27027153 90.67605898 378.13485822 90 381 C90.94617188 381.23074219 91.89234375 381.46148437 92.8671875 381.69921875 C94.2031591 382.02850752 95.53909455 382.35794298 96.875 382.6875 C98.15117187 383.00074219 99.42734375 383.31398438 100.7421875 383.63671875 C104.5235737 384.59413606 108.27812008 385.63344382 112.03257751 386.69015503 C123.60129062 389.94404772 135.24626655 392.84287403 146.91821289 395.70043945 C163.36306668 399.73326685 163.36306668 399.73326685 170.375 401.96875 C179.68387795 404.92511281 189.2062588 407.1113396 198.6875 409.4375 C202.48386314 410.37052366 206.27952124 411.30631791 210.07421875 412.24609375 C210.99774139 412.47477142 211.92126404 412.7034491 212.87277222 412.9390564 C219.5976266 414.61779896 226.28266536 416.4158756 232.94450378 418.32945251 C237.92455379 419.74960402 242.93485224 420.92336023 248 422 C248.23074219 421.12601563 248.46148437 420.25203125 248.69921875 419.3515625 C250.33552791 413.18144811 251.98733629 407.01824669 253.723526 400.87541199 C256.97488182 389.34053731 259.85083698 377.72120817 262.70043945 366.08178711 C266.73326685 349.63693332 266.73326685 349.63693332 268.96875 342.625 C271.92511281 333.31612205 274.1113396 323.7937412 276.4375 314.3125 C277.37052366 310.51613684 278.30639455 306.72049772 279.24609375 302.92578125 C279.47477142 302.00153351 279.7034491 301.07728577 279.9390564 300.12503052 C281.62119292 293.38241013 283.4564986 286.69198197 285.35362244 280.00715637 C286.84249761 274.710476 288.03825306 269.42075548 289 264 C271.17856089 258.77619285 253.20743909 254.24167174 235.17285156 249.82104492 C234.23959045 249.59090195 233.30632935 249.36075897 232.3447876 249.12364197 C230.5937407 248.6919514 228.84196087 248.26321751 227.08929443 247.83815002 C223.19725759 246.87704172 219.38845437 245.828335 215.59643555 244.5246582 C210.41672932 242.75259959 205.14687819 241.45169526 199.83203125 240.15234375 C198.79358566 239.8949794 197.75514008 239.63761505 196.68522644 239.37245178 C193.39515101 238.55738418 190.10394215 237.74702924 186.8125 236.9375 C183.51045602 236.12397388 180.20869493 235.30936126 176.90763855 234.49183655 C174.86145572 233.98520335 172.81469673 233.48088976 170.76728821 232.97923279 C166.10038752 231.82482518 161.54922596 230.56517841 157 229 C155.08346614 228.47739842 153.16130466 227.97505036 151.234375 227.4921875 C150.17992187 227.22792969 149.12546875 226.96367187 148.0390625 226.69140625 C146.95367187 226.42199219 145.86828125 226.15257812 144.75 225.875 C143.64914062 225.59785156 142.54828125 225.32070313 141.4140625 225.03515625 C140.36476563 224.77347656 139.31546875 224.51179687 138.234375 224.2421875 C137.27756836 224.0035498 136.32076172 223.76491211 135.33496094 223.51904297 C133.07326827 222.92766823 133.07326827 222.92766823 131 223 Z M300 248 C299.01 251.96 298.02 255.92 297 260 C298.423125 260.32613281 299.84625 260.65226562 301.3125 260.98828125 C303.2083988 261.42940622 305.1042285 261.87082827 307 262.3125 C307.93457031 262.52583984 308.86914062 262.73917969 309.83203125 262.95898438 C310.75371094 263.17490234 311.67539062 263.39082031 312.625 263.61328125 C313.88183594 263.90392456 313.88183594 263.90392456 315.1640625 264.20043945 C318 265 318 265 321.70043945 266.42675781 C326.42667586 268.23486844 331.24875596 269.39957351 336.16796875 270.55859375 C337.12463943 270.78901871 338.08131012 271.01944366 339.06697083 271.2568512 C342.10602224 271.98852368 345.14656523 272.71369807 348.1875 273.4375 C371.36802666 278.96269087 371.36802666 278.96269087 381.30541992 282.14477539 C385.35402008 283.42974833 389.43300704 284.51037702 393.5625 285.5 C394.32884766 285.70625 395.09519531 285.9125 395.88476562 286.125 C398.37635277 286.77146243 398.37635277 286.77146243 402 287 C404.60514716 285.3924236 404.60514716 285.3924236 406 283 C406 282.34 406 281.68 406 281 C406.66 281 407.32 281 408 281 C408.99 278.525 408.99 278.525 410 276 C409.34506058 275.8379306 408.69012115 275.67586121 408.01533508 275.50888062 C401.73714912 273.95458084 395.45989461 272.39657566 389.18357563 270.83475304 C385.959526 270.03259737 382.73508282 269.23211937 379.51000977 268.43408203 C366.35835169 265.17884801 353.24721357 261.86655482 340.24014282 258.07098389 C331.94959531 255.66247546 323.58672548 253.6147718 315.1875 251.625 C313.69325916 251.26734549 312.19911837 250.90927276 310.70507812 250.55078125 C307.13784551 249.69575227 303.56933993 248.84619505 300 248 Z M295 266 C294.76216797 266.87785156 294.76216797 266.87785156 294.51953125 267.7734375 C294.28621094 268.63195312 294.05289063 269.49046875 293.8125 270.375 C293.5340625 271.40109375 293.255625 272.4271875 292.96875 273.484375 C292.31609936 275.85286522 291.64911978 278.21744803 290.96875 280.578125 C288.15866625 290.36589285 285.65731598 300.2235146 283.24008179 310.11444092 C282.87275955 311.61712097 282.503973 313.11944386 282.13369751 314.62139893 C281.60888597 316.75423349 281.09056481 318.88853967 280.57421875 321.0234375 C280.11921997 322.89394775 280.11921997 322.89394775 279.6550293 324.80224609 C278.8662176 328.10907997 278.8662176 328.10907997 279 332 C278.01 332.495 278.01 332.495 277 333 C276.26784667 335.05182843 276.26784667 335.05182843 275.71875 337.67578125 C275.33396484 339.30894287 275.33396484 339.30894287 274.94140625 340.97509766 C274.79525879 341.60482483 274.64911133 342.234552 274.49853516 342.88336182 C273.50726866 347.09199683 272.45043417 351.28471457 271.40625 355.48046875 C270.92830358 357.40557864 270.45044046 359.33070922 269.97265625 361.25585938 C269.73047363 362.23063232 269.48829102 363.20540527 269.23876953 364.2097168 C268.74500114 366.19996566 268.25249429 368.19052792 267.76123047 370.18139648 C267.04212047 373.09443787 266.31836582 376.00629272 265.59375 378.91796875 C265.37803345 379.79631882 265.16231689 380.67466888 264.94006348 381.57963562 C263.72136341 386.45574888 262.30565561 391.20088935 260.67721558 395.95524597 C259.76159189 398.71983864 259.06217286 401.51388854 258.39453125 404.34765625 C258.13349609 405.44658203 257.87246094 406.54550781 257.60351562 407.67773438 C257.34248047 408.79470703 257.08144531 409.91167969 256.8125 411.0625 C256.53986328 412.21427734 256.26722656 413.36605469 255.98632812 414.55273438 C255.32056001 417.36764869 254.65854087 420.18338779 254 423 C257.77131688 424.31609006 261.45081006 425.38258569 265.375 426.125 C266.68597656 426.37636719 266.68597656 426.37636719 268.0234375 426.6328125 C268.67570312 426.75398437 269.32796875 426.87515625 270 427 C270.598125 426.236875 271.19625 425.47375 271.8125 424.6875 C274 422 274 422 275.75 420.3125 C277.22988506 419.06070402 277.22988506 419.06070402 277 417 C277.99 417 278.98 417 280 417 C280.33 416.01 280.66 415.02 281 414 C282.46545878 412.76250148 283.93407592 411.52803222 285.43359375 410.33203125 C287.64083821 408.45504781 289.33853916 406.36438658 291 404 C291 403.34 291 402.68 291 402 C291.5775 401.773125 292.155 401.54625 292.75 401.3125 C295.56913681 399.66800353 297.01254869 397.5644533 299 395 C299.99 394.34 300.98 393.68 302 393 C302 392.34 302 391.68 302 391 C302.99 390.67 303.98 390.34 305 390 C306.33528524 388.43518515 306.33528524 388.43518515 307.5 386.5625 C309.25977667 383.86079158 310.1990713 382.8672858 313 381 C313 380.34 313 379.68 313 379 C313.99 378.67 314.98 378.34 316 378 C317.24398158 376.55960027 318.48300406 375.11352214 319.6640625 373.62109375 C321 372 321 372 323.75 369.3125 C326.19748805 367.13240313 326.19748805 367.13240313 327 364 C329.0625 362.8125 329.0625 362.8125 331 362 C331 361.34 331 360.68 331 360 C331.99 359.67 332.98 359.34 334 359 C334 358.34 334 357.68 334 357 C334.66 357 335.32 357 336 357 C337.35278115 355.01310269 338.68568305 353.01254782 340 351 C340.66 350.67 341.32 350.34 342 350 C342 349.34 342 348.68 342 348 C342.99 347.67 343.98 347.34 345 347 C345 346.34 345 345.68 345 345 C345.99 344.67 346.98 344.34 348 344 C349.31017517 342.48760214 350.55209919 340.91529128 351.75 339.3125 C354.29978072 336.01195052 356.77216693 333.14393643 360 330.5 C360.99 329.675 361.98 328.85 363 328 C363 327.34 363 326.68 363 326 C363.66 326 364.32 326 365 326 C365 325.01 365 324.02 365 323 C365.99 322.67 366.98 322.34 368 322 C369.71358643 320.38161281 371.3707726 318.70328319 373 317 C374.16561607 315.85309795 375.33233671 314.7073177 376.5 313.5625 C378.71509454 311.3570363 380.783133 309.11646226 382.75 306.6875 C385 304 385 304 388 302 C388 301.34 388 300.68 388 300 C388.66 300 389.32 300 390 300 C391.35712166 298.44144019 391.35712166 298.44144019 392.625 296.5 C393.07101562 295.8503125 393.51703125 295.200625 393.9765625 294.53125 C394.48316406 293.77328125 394.48316406 293.77328125 395 293 C391.95732868 290.43023391 389.40376782 289.35883655 385.5480957 288.421875 C384.45628494 288.15149414 383.36447418 287.88111328 382.23957825 287.60253906 C381.06352524 287.32120117 379.88747223 287.03986328 378.67578125 286.75 C377.45980759 286.45061523 376.24383392 286.15123047 374.99101257 285.84277344 C371.75903997 285.04820201 368.52538494 284.26143443 365.29046631 283.47900391 C360.75403949 282.38041787 356.22047201 281.27016267 351.68754578 280.15722656 C349.27781982 279.56625304 346.86706553 278.97945206 344.45515442 278.39746094 C338.87419891 277.03503561 333.41949793 275.5498331 327.99183655 273.66757202 C324.98496643 272.65980742 321.9297418 271.91636748 318.84765625 271.17578125 C316.94209961 270.71655273 316.94209961 270.71655273 314.99804688 270.24804688 C314.352146 270.09456787 313.70624512 269.94108887 313.04077148 269.78295898 C311.04096983 269.30737984 309.04288818 268.82502253 307.04492188 268.34179688 C301.08821253 266.69852745 301.08821253 266.69852745 295 266 Z M-70 347 C-70.1967205 347.79687477 -70.1967205 347.79687477 -70.39741516 348.60984802 C-71.77221563 354.17580078 -73.15212601 359.74046928 -74.53491211 365.30444336 C-75.0492254 367.37671416 -75.5622671 369.44930101 -76.07397461 371.5222168 C-76.8128388 374.51436495 -77.55638027 377.50531889 -78.30078125 380.49609375 C-78.52590897 381.41208847 -78.75103668 382.32808319 -78.98298645 383.27183533 C-80.01251254 387.39100008 -81.1087818 391.43640449 -82.49291992 395.45141602 C-84.27398119 400.64778487 -85.54011519 405.9412464 -86.8125 411.28125 C-87.06749268 412.33477661 -87.32248535 413.38830322 -87.58520508 414.47375488 C-88.39380753 417.81496357 -89.19752384 421.15731501 -90 424.5 C-91.05806591 428.9073347 -92.12123919 433.31339157 -93.1875 437.71875 C-93.42509033 438.71588013 -93.66268066 439.71301025 -93.9074707 440.74035645 C-95.14959097 445.87023928 -96.56797344 450.85398414 -98.28796387 455.84295654 C-99.48475393 459.46851437 -100.38915269 463.16054739 -101.296875 466.8671875 C-101.49476624 467.66859161 -101.69265747 468.46999573 -101.89654541 469.29568481 C-102.30852402 470.97071978 -102.71847968 472.64625351 -103.12646484 474.32226562 C-103.75404008 476.89153995 -104.39438659 479.45742629 -105.03515625 482.0234375 C-105.43567757 483.65866289 -105.83544469 485.29407324 -106.234375 486.9296875 C-106.5232962 488.07810623 -106.5232962 488.07810623 -106.8180542 489.24972534 C-107.88628348 493.63341923 -107.88628348 493.63341923 -107 498 C-104.89806047 498.90064627 -104.89806047 498.90064627 -102.28515625 499.4296875 C-101.28677734 499.66816406 -100.28839844 499.90664063 -99.25976562 500.15234375 C-98.20466797 500.39082031 -97.14957031 500.62929688 -96.0625 500.875 C-88.81859359 502.5644583 -81.62655976 504.3537812 -74.46875 506.375 C-63.63505766 509.42833498 -52.71152991 512.09848978 -41.7800293 514.77587891 C-39.18461078 515.41259479 -36.59031998 516.05375886 -33.99609375 516.6953125 C-33.22406113 516.88288116 -32.4520285 517.07044983 -31.65660095 517.26370239 C-27.91889727 518.18971406 -24.26731188 519.21694111 -20.62475586 520.46826172 C-15.49105656 522.22038249 -10.27342224 523.52139484 -5.0078125 524.8125 C-3.98122528 525.06749268 -2.95463806 525.32248535 -1.89694214 525.58520508 C1.35954472 526.3935202 4.61719322 527.19702286 7.875 528 C11.12545784 528.80378827 14.37565012 529.60862786 17.6255188 530.41479492 C19.63870206 530.91391661 21.6522479 531.41157916 23.66622925 531.9074707 C30.13840686 533.50855712 36.57509918 535.21878917 43 537 C46.20919812 526.03009683 49.05158471 514.97638373 51.76293945 503.8744812 C52.12890847 502.37648352 52.49641847 500.87886146 52.86547852 499.38162231 C53.39054746 497.24777685 53.90914425 495.11246318 54.42578125 492.9765625 C54.72911377 491.72955566 55.03244629 490.48254883 55.3449707 489.19775391 C56.1337824 485.89092003 56.1337824 485.89092003 56 482 C56.66 482 57.32 482 58 482 C58.16873123 481.30588516 58.33746246 480.61177032 58.51130676 479.8966217 C60.11063395 473.32037784 61.7136444 466.74504138 63.32068348 460.17067814 C64.14653275 456.79159578 64.97100867 453.41219122 65.79223633 450.03198242 C66.73879627 446.13617283 67.69152511 442.24189401 68.64453125 438.34765625 C68.9352803 437.1473024 69.22602936 435.94694855 69.52558899 434.71022034 C70.91835033 429.0384847 72.42111794 423.48335456 74.33613586 417.96577454 C75.32494764 415.03779439 76.07685556 412.06388586 76.82421875 409.06640625 C77.13037109 407.84115234 77.43652344 406.61589844 77.75195312 405.35351562 C78.06068359 404.10248047 78.36941406 402.85144531 78.6875 401.5625 C79.00783203 400.28439453 79.32816406 399.00628906 79.65820312 397.68945312 C81.30489187 391.91298629 81.30489187 391.91298629 82 386 C81.43603516 385.86424561 80.87207031 385.72849121 80.29101562 385.58862305 C77.69273368 384.96006651 75.09638773 384.32383379 72.5 383.6875 C71.613125 383.47416016 70.72625 383.26082031 69.8125 383.04101562 C68.9359375 382.82509766 68.059375 382.60917969 67.15625 382.38671875 C66.36025391 382.19295654 65.56425781 381.99919434 64.74414062 381.79956055 C62 381 62 381 58.31323242 379.57324219 C53.58178094 377.76832929 48.75493941 376.60129716 43.83203125 375.44140625 C42.87536057 375.21098129 41.91868988 374.98055634 40.93302917 374.7431488 C37.89397776 374.01147632 34.85343477 373.28630193 31.8125 372.5625 C9.45127027 367.23259252 9.45127027 367.23259252 2.625 365.03125 C-8.76675814 361.37278076 -20.54596458 358.91366705 -32.17553711 356.13354492 C-35.43705929 355.35233486 -38.69707787 354.56507043 -41.95703125 353.77734375 C-42.94677444 353.54289047 -43.93651764 353.30843719 -44.95625305 353.06687927 C-49.13163667 352.05640915 -53.14527403 351.00969842 -57.12768555 349.38891602 C-61.32771432 347.70996035 -65.51310107 347.30120386 -70 347 Z M88 388 C87.49453964 390.08201528 86.99583165 392.16567067 86.5 394.25 C86.2215625 395.41015625 85.943125 396.5703125 85.65625 397.765625 C84.86743548 401.10330712 84.86743548 401.10330712 85 405 C84.01 405.495 84.01 405.495 83 406 C82.17607648 408.29315908 82.17607648 408.29315908 81.53540039 411.12719727 C81.264944 412.22246231 80.99448761 413.31772736 80.71583557 414.44618225 C80.28608681 416.23819313 80.28608681 416.23819313 79.84765625 418.06640625 C79.54685654 419.28899643 79.24605682 420.51158661 78.93614197 421.77122498 C78.13427317 425.03342233 77.33902415 428.2970754 76.54766846 431.56182861 C75.43846051 436.13582876 74.32221766 440.70807334 73.1995697 445.27879333 C72.60235992 447.71169048 72.00998988 450.14578216 71.42311096 452.58119202 C70.12847125 457.86808822 68.73374076 462.93735453 66.7245636 467.9936676 C65.19251631 472.23593993 64.26103562 476.65945608 63.22265625 481.04296875 C62.97003525 482.08842361 62.71741425 483.13387848 62.45713806 484.21101379 C61.65416637 487.53538503 60.85766032 490.86125238 60.0625 494.1875 C59.01653093 498.55716292 57.9666307 502.9258333 56.91015625 507.29296875 C56.65819489 508.33508514 56.40623352 509.37720154 56.14663696 510.45089722 C54.58297568 516.83930652 52.86790396 523.11229132 50.75952148 529.3449707 C49.84616099 532.53776896 49.41077404 535.70847291 49 539 C50.11745605 539.27674561 51.23491211 539.55349121 52.38623047 539.83862305 C56.62514516 540.88914118 60.86321826 541.94302249 65.10107422 542.99780273 C66.91791182 543.44953361 68.73496157 543.90041224 70.55224609 544.3503418 C80.55741218 546.82810152 90.52575595 549.38829925 100.44763184 552.18171692 C107.67717133 554.20913082 114.9437243 556.06785703 122.23730469 557.85009766 C124.4260581 558.38753711 126.61131277 558.93802586 128.796875 559.48828125 C130.20553316 559.83413263 131.61438015 560.17921606 133.0234375 560.5234375 C134.89394775 560.9862915 134.89394775 560.9862915 136.80224609 561.45849609 C139.76854321 561.96080538 141.27701153 562.16458232 144 561 C146.95278233 558.39056445 148.7455037 556.7634889 150 553 C150.99 552.67 151.98 552.34 153 552 C153 551.34 153 550.68 153 550 C153.99 549.67 154.98 549.34 156 549 C156.45375 548.236875 156.9075 547.47375 157.375 546.6875 C159.18995582 543.68584229 161.2640794 542.1443702 164 540 C164 539.34 164 538.68 164 538 C164.99 537.67 165.98 537.34 167 537 C167 536.34 167 535.68 167 535 C167.99 534.67 168.98 534.34 170 534 C172.40995366 531.36458982 172.40995366 531.36458982 173 528 C173.66 528 174.32 528 175 528 C175 527.34 175 526.68 175 526 C175.8353125 525.6596875 175.8353125 525.6596875 176.6875 525.3125 C180.34339324 523.23753357 183.3951948 520.72136865 184.8125 516.6875 C184.874375 516.130625 184.93625 515.57375 185 515 C185.66 515 186.32 515 187 515 C188.41754725 513.75149165 188.41754725 513.75149165 190 512 C190.86625 511.175 191.7325 510.35 192.625 509.5 C195.1812626 507.16311246 195.1812626 507.16311246 196 504 C196.99 503.67 197.98 503.34 199 503 C200.72943475 501.68732044 200.72943475 501.68732044 202 500 C202 499.01 202 498.02 202 497 C202.5775 496.938125 203.155 496.87625 203.75 496.8125 C206.92448483 495.66615826 208.12848575 493.74043158 210 491 C210 490.34 210 489.68 210 489 C210.99 488.67 211.98 488.34 213 488 C213 487.34 213 486.68 213 486 C213.66 486 214.32 486 215 486 C215.2475 485.38125 215.495 484.7625 215.75 484.125 C217.20628639 481.64931313 218.37812506 481.04874998 221 480 C221 479.34 221 478.68 221 478 C221.66 478 222.32 478 223 478 C225.04456059 475.82735345 225.04456059 475.82735345 227.125 473.125 C227.84945312 472.22007812 228.57390625 471.31515625 229.3203125 470.3828125 C231.19205234 468.21344189 231.19205234 468.21344189 231 466 C231.598125 465.896875 232.19625 465.79375 232.8125 465.6875 C235.4834544 464.84805719 236.27437659 464.21389543 238 462 C238.80271746 459.5521037 239.46057859 457.20619601 240.04296875 454.70703125 C240.21629227 454.00100266 240.38961578 453.29497406 240.56819153 452.56755066 C241.11797227 450.31816192 241.65289304 448.06553797 242.1875 445.8125 C242.55826975 444.28426832 242.93000351 442.75627018 243.30273438 441.22851562 C244.21301972 437.48829221 245.10999713 433.74509919 246 430 C237.91646892 425.79895029 228.98356001 423.90142128 220.1875 421.75 C218.97860107 421.45061523 217.76970215 421.15123047 216.52416992 420.84277344 C212.68362183 419.89174752 208.84199834 418.9451446 205 418 C199.93641994 416.75434216 194.87413999 415.50351911 189.8125 414.25 C188.66225342 413.96866211 187.51200684 413.68732422 186.3269043 413.39746094 C180.86279644 412.04383682 175.52740444 410.56075502 170.20840454 408.72128296 C166.00725913 407.34915456 161.71004258 406.34503025 157.41796875 405.30078125 C156.44136795 405.0608696 155.46476715 404.82095795 154.45857239 404.57377625 C152.41107395 404.07196199 150.36310768 403.57205309 148.31469727 403.07397461 C145.17763881 402.31009879 142.04288366 401.5372408 138.90820312 400.76367188 C136.91159051 400.27550075 134.91485009 399.78785198 132.91796875 399.30078125 C131.98252731 399.06958084 131.04708588 398.83838043 130.08329773 398.60017395 C129.21171524 398.38962875 128.34013275 398.17908356 127.44213867 397.9621582 C126.6787468 397.775793 125.91535492 397.5894278 125.12882996 397.39741516 C122.70558961 396.87765861 122.70558961 396.87765861 119 397 C119 396.34 119 395.68 119 395 C115.06843948 393.99856118 111.13573137 393.00177656 107.2019043 392.00927734 C105.86401591 391.67103529 104.52644712 391.33152641 103.18920898 390.99072266 C101.26630945 390.50089381 99.34215339 390.01600603 97.41796875 389.53125 C96.26063232 389.23798828 95.1032959 388.94472656 93.91088867 388.64257812 C91.00858297 387.89221995 91.00858297 387.89221995 88 388 Z M419.9375 396.875 C417.77541538 398.76703874 417.77541538 398.76703874 418 401 C417.01 401.33 416.02 401.66 415 402 C415 402.66 415 403.32 415 404 C414.13375 404.3403125 414.13375 404.3403125 413.25 404.6875 C410.41626105 406.34051439 408.96855887 408.39642213 407 411 C406.4225 411.556875 405.845 412.11375 405.25 412.6875 C403.77011494 413.93929598 403.77011494 413.93929598 404 416 C403.01 416.33 402.02 416.66 401 417 C399.49985609 418.33289654 399.49985609 418.33289654 398 420 C397.360625 420.61875 396.72125 421.2375 396.0625 421.875 C391.76225062 425.83812428 391.76225062 425.83812428 390 431 C388.68 431.66 387.36 432.32 386 433 C386 433.66 386 434.32 386 435 C385.45859375 435.20625 384.9171875 435.4125 384.359375 435.625 C381.07881988 437.53684669 378.76155826 440.20498504 376.25 443 C375.74339844 443.5465625 375.23679687 444.093125 374.71484375 444.65625 C371.90222912 447.39407208 371.90222912 447.39407208 371 451 C369.515 451.495 369.515 451.495 368 452 C370.91907612 454.91907612 374.46630641 455.24846572 378.375 456.125 C379.14328125 456.30675781 379.9115625 456.48851562 380.703125 456.67578125 C384.30932098 457.50558067 387.25371241 458 391 458 C391 458.66 391 459.32 391 460 C392.9363704 460.50435694 394.87414146 461.00333874 396.8125 461.5 C397.89144531 461.7784375 398.97039063 462.056875 400.08203125 462.34375 C402.98933975 463.10970948 402.98933975 463.10970948 406 463 C406.27674561 461.91283691 406.55349121 460.82567383 406.83862305 459.70556641 C407.88973004 455.57860203 408.94342241 451.45230105 409.99780273 447.32617188 C410.44932818 445.55779044 410.90019995 443.78924195 411.3503418 442.02050781 C413.91174302 431.95806458 416.52097838 421.91678427 419.3769989 411.93325806 C420.9616126 406.34283143 422.15198462 400.74625345 423 395 C421.6587587 394.88788787 421.6587587 394.88788787 419.9375 396.875 Z M252 431 C251.32900016 433.60311992 250.66304662 436.20735398 250 438.8125 C249.80921875 439.55048828 249.6184375 440.28847656 249.421875 441.04882812 C248.64737086 444.10535341 248 446.83373478 248 450 C249.70884005 448.37660195 251.37446717 446.70680947 253 445 C253 444.34 253 443.68 253 443 C253.99 443 254.98 443 256 443 C256 442.01 256 441.02 256 440 C256.66 440 257.32 440 258 440 C259.35712166 438.44144019 259.35712166 438.44144019 260.625 436.5 C261.40875 435.345 262.1925 434.19 263 433 C257.555 432.01 257.555 432.01 252 431 Z M361 459 C361 459.99 361 460.98 361 462 C360.38125 462.2475 359.7625 462.495 359.125 462.75 C356.84998472 463.82396211 356.84998472 463.82396211 356 466.0625 C355.67 466.701875 355.34 467.34125 355 468 C353.66666667 468.33333333 352.33333333 468.66666667 351 469 C350.29605388 470.31403276 349.63654342 471.6520257 349 473 C347.33333333 474.66666667 345.66666667 476.33333333 344 478 C344 478.66 344 479.32 344 480 C342.515 480.495 342.515 480.495 341 481 C341 481.66 341 482.32 341 483 C340.38125 483.0825 339.7625 483.165 339.125 483.25 C336.8653367 483.77905978 336.8653367 483.77905978 336.0625 485.75 C335.711875 486.4925 335.36125 487.235 335 488 C333.33333333 489.66666667 331.66666667 491.33333333 330 493 C330 493.66 330 494.32 330 495 C328.68 495.33 327.36 495.66 326 496 C326 496.99 326 497.98 326 499 C325.01 499 324.02 499 323 499 C322.34 500.65 321.68 502.3 321 504 C320.34 504 319.68 504 319 504 C319 504.66 319 505.32 319 506 C317.515 506.495 317.515 506.495 316 507 C315.26676204 509.01508358 315.26676204 509.01508358 315 511 C314.01 511 313.02 511 312 511 C312 511.99 312 512.98 312 514 C311.38125 514.2475 310.7625 514.495 310.125 514.75 C307.86253506 515.82143729 307.86253506 515.82143729 307 518 C306 520 306 520 303.9375 521 C301.78719721 521.8295822 301.78719721 521.8295822 301.25 524.125 C301.1675 524.74375 301.085 525.3625 301 526 C299.02 526.495 299.02 526.495 297 527 C297 527.99 297 528.98 297 530 C296.01 530.33 295.02 530.66 294 531 C294 531.66 294 532.32 294 533 C292.02 533.99 292.02 533.99 290 535 C290 535.66 290 536.32 290 537 C288.02 537.99 288.02 537.99 286 539 C286 539.66 286 540.32 286 541 C285.01 541.33 284.02 541.66 283 542 C283 542.99 283 543.98 283 545 C282.01 545.33 281.02 545.66 280 546 C280 546.66 280 547.32 280 548 C278.02 548.99 278.02 548.99 276 550 C276 550.66 276 551.32 276 552 C275.01 552 274.02 552 273 552 C272.67 552.99 272.34 553.98 272 555 C269.50152571 557.63727842 266.87759489 560.11684124 264.25 562.625 C261.80995326 564.86533112 261.80995326 564.86533112 261 568 C260.01 568 259.02 568 258 568 C255.95968196 570.12130253 255.95968196 570.12130253 254 572.8125 C250.18300654 577.82230392 250.18300654 577.82230392 248.25 579.69921875 C246.76903589 580.93967501 246.76903589 580.93967501 247 583 C246.01 583 245.02 583 244 583 C242.28288757 585.44496043 242.28288757 585.44496043 241 588 C243.95757717 588.89838722 246.91603824 589.7936925 249.875 590.6875 C250.67808594 590.93177734 251.48117187 591.17605469 252.30859375 591.42773438 C268.24527213 596.2330687 284.30848193 600.36511462 300.50170898 604.203125 C302.8886649 604.77011383 305.27443179 605.34191781 307.66015625 605.9140625 C308.71977318 606.16260483 308.71977318 606.16260483 309.80079651 606.41616821 C313.42144214 607.28588879 316.9421877 608.2857636 320.46704102 609.48901367 C324.88309755 610.99626861 329.33268482 612.17013982 333.8671875 613.26171875 C335.06929367 613.55499809 335.06929367 613.55499809 336.29568481 613.85420227 C337.97075825 614.26184728 339.64629135 614.66760785 341.32226562 615.0715332 C343.89069033 615.69128603 346.4571122 616.31888254 349.0234375 616.94726562 C350.65874114 617.34421593 352.29415399 617.74071665 353.9296875 618.13671875 C354.69529999 618.3241716 355.46091248 618.51162445 356.24972534 618.70475769 C359.23868263 619.42103876 361.91433782 620 365 620 C365.15557373 619.36723145 365.31114746 618.73446289 365.47143555 618.08251953 C366.2073972 615.09600064 366.94745548 612.11050969 367.6875 609.125 C367.93177734 608.13113281 368.17605469 607.13726563 368.42773438 606.11328125 C369.97967168 599.86624248 371.64202234 593.66002706 373.38671875 587.46484375 C376.43039616 576.63128222 379.09913662 565.70888894 381.77587891 554.7800293 C382.41259479 552.18461078 383.05375886 549.59031998 383.6953125 546.99609375 C383.88288116 546.22406113 384.07044983 545.4520285 384.26370239 544.65660095 C385.18971406 540.91889727 386.21694111 537.26731188 387.46826172 533.62475586 C389.22038249 528.49105656 390.52139484 523.27342224 391.8125 518.0078125 C392.06749268 516.98122528 392.32248535 515.95463806 392.58520508 514.89694214 C393.3935202 511.64045528 394.19702286 508.38280678 395 505.125 C395.80378827 501.87454216 396.60862786 498.62434988 397.41479492 495.3744812 C397.91391661 493.36129794 398.41157916 491.3477521 398.9074707 489.33377075 C400.50855712 482.86159314 402.21878917 476.42490082 404 470 C389.76895178 465.8924433 375.41895435 462.38311067 361 459 Z " fill="#ffffff" transform="translate(171,38)"/>
<!-- die acht --><path d="M0 0 C0 0.66 0 1.32 0 2 C0.86625 2.20625 1.7325 2.4125 2.625 2.625 C8.48841034 5.0137968 12.1449607 9.40412297 15 15 C15.51171875 17.97265625 15.51171875 17.97265625 15.6875 21.0625 C15.75324219 22.08472656 15.81898438 23.10695313 15.88671875 24.16015625 C15.97760597 26.43860482 16 28.71973941 16 31 C15.34 31 14.68 31 14 31 C13.9175 31.721875 13.835 32.44375 13.75 33.1875 C12.84286169 36.58926868 11.39989121 38.45466084 9 41 C8.34 41 7.68 41 7 41 C7 41.66 7 42.32 7 43 C5.515 43.495 5.515 43.495 4 44 C4.268125 44.53625 4.53625 45.0725 4.8125 45.625 C5.204375 46.40875 5.59625 47.1925 6 48 C6.5053125 48.90105469 7.010625 49.80210937 7.53125 50.73046875 C10.08485275 56.41495146 10.0379488 61.91026243 9 68 C5.43015886 75.09656826 0.13125656 81.62291448 -7.5625 84.1875 C-9.2640625 84.5896875 -9.2640625 84.5896875 -11 85 C-11.9590625 85.309375 -11.9590625 85.309375 -12.9375 85.625 C-23.51606555 87.54837555 -34.09057725 83.384449 -44 80 C-44 79.34 -44 78.68 -44 78 C-44.88171875 77.58041016 -44.88171875 77.58041016 -45.78125 77.15234375 C-52.72663386 73.54514615 -55.98005621 69.20286831 -58.3515625 61.75390625 C-59.52908595 56.75297836 -59.64732491 51.94197473 -58 47 C-57.34 47 -56.68 47 -56 47 C-55.938125 46.113125 -55.87625 45.22625 -55.8125 44.3125 C-54.65377893 39.58848331 -52.17199289 37.38054206 -48.11328125 34.80078125 C-46.43081905 33.82816112 -44.71752283 32.90927679 -43 32 C-43.99 30.6078125 -43.99 30.6078125 -45 29.1875 C-48.08741019 23.84180744 -47.79644976 17.57504141 -46.48046875 11.66796875 C-46.32191406 11.11753906 -46.16335937 10.56710937 -46 10 C-45.34 10 -44.68 10 -44 10 C-44 8.68 -44 7.36 -44 6 C-43.34 6 -42.68 6 -42 6 C-42 5.01 -42 4.02 -42 3 C-28.95671427 -7.43462859 -14.87304565 -4.22787084 0 0 Z M-25 17 C-27.05664043 19.98212862 -27.43597537 22.42500196 -27 26 C-25.8808206 28.83859805 -25.8808206 28.83859805 -24 31 C-22.68 31 -21.36 31 -20 31 C-19.67 31.66 -19.34 32.32 -19 33 C-13.63556637 33.37272318 -13.63556637 33.37272318 -8.625 31.875 C-6.38680591 29.29246835 -5.59524924 27.37307903 -5 24 C-6.24943341 20.6649267 -6.24943341 20.6649267 -8 18 C-8.66 18 -9.32 18 -10 18 C-10 17.34 -10 16.68 -10 16 C-14.90418689 14.4306602 -20.6867596 13.80500711 -25 17 Z M-34.60546875 49.265625 C-36.46831024 51.58243627 -36.40127698 53.05697779 -36.375 56 C-36.38273437 56.86625 -36.39046875 57.7325 -36.3984375 58.625 C-35.92211454 61.4642584 -35.28535358 62.29780561 -33 64 C-26.69543257 66.21212892 -21.55495588 65.99398921 -15 65 C-12.14031897 58.7010896 -12.14031897 58.7010896 -13 52 C-13.66 52 -14.32 52 -15 52 C-15 51.34 -15 50.68 -15 50 C-16.63608876 47.8452818 -17.66108356 47.08559076 -20.3046875 46.41796875 C-25.92991775 45.9135788 -29.97621492 45.61628621 -34.60546875 49.265625 Z " fill="#ffffff" transform="translate(174,442)"/>
<!-- die drei --><path d="M0 0 C1.85045676 1.01792563 1.85045676 1.01792563 3.96875 1.44140625 C6.74953675 2.16807275 8.04215563 3.78656958 9.8671875 5.9375 C9.8671875 6.5975 9.8671875 7.2575 9.8671875 7.9375 C10.8571875 8.2675 11.8471875 8.5975 12.8671875 8.9375 C16.44379951 13.88973202 17.00885097 18.5094829 16.9921875 24.5 C16.99605469 25.89412109 16.99605469 25.89412109 17 27.31640625 C16.88028714 29.67897476 16.53711983 31.67780763 15.8671875 33.9375 C15.2071875 33.9375 14.5471875 33.9375 13.8671875 33.9375 C13.7846875 34.68 13.7021875 35.4225 13.6171875 36.1875 C12.71908951 39.48052595 11.48302676 40.79726788 8.8671875 42.9375 C8.2071875 42.9375 7.5471875 42.9375 6.8671875 42.9375 C6.8671875 43.5975 6.8671875 44.2575 6.8671875 44.9375 C5.8771875 45.2675 4.8871875 45.5975 3.8671875 45.9375 C4.34577991 47.54183809 4.82508308 49.14596416 5.3046875 50.75 C5.57152344 51.64332031 5.83835937 52.53664063 6.11328125 53.45703125 C6.67106623 55.29223055 7.26063325 57.11783726 7.8671875 58.9375 C7.62586622 61.0095344 7.30479121 63.07296206 6.9296875 65.125 C6.73503906 66.21167969 6.54039062 67.29835938 6.33984375 68.41796875 C6.18386719 69.24941406 6.02789062 70.08085937 5.8671875 70.9375 C5.2071875 70.9375 4.5471875 70.9375 3.8671875 70.9375 C3.8671875 72.2575 3.8671875 73.5775 3.8671875 74.9375 C3.2071875 74.9375 2.5471875 74.9375 1.8671875 74.9375 C1.78210938 75.54078125 1.69703125 76.1440625 1.609375 76.765625 C0.65013948 79.57265106 -0.4865188 80.19134769 -3.0078125 81.6875 C-3.70648438 82.11546875 -4.40515625 82.5434375 -5.125 82.984375 C-7.1328125 83.9375 -7.1328125 83.9375 -10.1328125 83.9375 C-10.1328125 84.5975 -10.1328125 85.2575 -10.1328125 85.9375 C-23.74757027 86.90359319 -35.33539341 85.19755156 -46.0378418 76.13427734 C-52.59804681 70.23543165 -52.59804681 70.23543165 -53.1328125 65.9375 C-53.7928125 65.9375 -54.4528125 65.9375 -55.1328125 65.9375 C-55.5078125 63.75 -55.5078125 63.75 -55.1328125 60.9375 C-50.49188052 56.40449667 -45.68051862 52.87288659 -39.1328125 51.9375 C-38.8028125 52.9275 -38.4728125 53.9175 -38.1328125 54.9375 C-37.6171875 55.453125 -37.1015625 55.96875 -36.5703125 56.5 C-36.0959375 56.974375 -35.6215625 57.44875 -35.1328125 57.9375 C-35.1328125 58.5975 -35.1328125 59.2575 -35.1328125 59.9375 C-34.1428125 59.9375 -33.1528125 59.9375 -32.1328125 59.9375 C-31.8028125 61.2575 -31.4728125 62.5775 -31.1328125 63.9375 C-25.8388706 65.3420152 -20.53487745 66.48797322 -15.1328125 65.25 C-13.03164461 64.1050351 -13.03164461 64.1050351 -12.1953125 62.125 C-12.06979965 57.7320503 -14.20113942 54.0946864 -17.1328125 50.9375 C-19.22697054 50.14126178 -19.22697054 50.14126178 -21.1328125 49.9375 C-21.1328125 49.2775 -21.1328125 48.6175 -21.1328125 47.9375 C-23.11848958 47.7421875 -25.10416667 47.546875 -27.08984375 47.3515625 C-29.1328125 46.9375 -29.1328125 46.9375 -32.1328125 44.9375 C-31.42947712 41.96027453 -30.55032713 39.08493457 -29.5703125 36.1875 C-29.30089844 35.38828125 -29.03148437 34.5890625 -28.75390625 33.765625 C-28.54894531 33.16234375 -28.34398437 32.5590625 -28.1328125 31.9375 C-26.37904297 31.97230469 -26.37904297 31.97230469 -24.58984375 32.0078125 C-23.04167308 32.02657821 -21.49349547 32.04477755 -19.9453125 32.0625 C-19.17638672 32.07925781 -18.40746094 32.09601563 -17.61523438 32.11328125 C-13.34390799 32.149945 -9.98752658 32.01367368 -6.1328125 29.9375 C-3.90071855 28.12487153 -3.90071855 28.12487153 -3.8828125 25.5625 C-4.15499838 22.70454825 -4.5187108 21.3020174 -6.1328125 18.9375 C-11.37136086 16.56000497 -17.10833085 15.06113704 -22.6328125 17.125 C-24.56115361 18.12360522 -26.48451968 19.13289288 -28.3828125 20.1875 C-30.1328125 20.9375 -30.1328125 20.9375 -32.0390625 20.84375 C-35.2321567 19.46166445 -35.89664271 17.26492229 -37.3828125 14.1875 C-37.90359375 13.14078125 -38.424375 12.0940625 -38.9609375 11.015625 C-40.09534556 8.03591316 -40.38905172 6.08225404 -40.1328125 2.9375 C-26.82014304 -3.47411654 -14.08623321 -7.45419345 0 0 Z " fill="#ffffff" transform="translate(379.1328125,320.0625)"/> -->
</svg>
