<?xml version="1.0" encoding="UTF-8"?>
<svg version="1.1" xmlns="http://www.w3.org/2000/svg" viewBox="0 0 1080 1080">
<path d="M0 0 C2.55329995 0.31824016 5.10656878 0.63672656 7.65982056 0.95535278 C8.37734025 1.04475789 9.09485994 1.134163 9.83412266 1.22627735 C15.31791443 1.91089832 20.79726825 2.62392269 26.2734375 3.3671875 C27.59744316 3.54623375 27.59744316 3.54623375 28.94819641 3.72889709 C31.75731965 4.10955789 34.56619713 4.49198279 37.375 4.875 C38.8392894 5.07441696 38.8392894 5.07441696 40.3331604 5.27786255 C52.0973445 6.88268614 63.84765347 8.53843061 75.57519531 10.39453125 C86.9079107 12.1739003 98.26738558 13.76383885 109.625 15.375 C124.75951204 17.522972 139.88629552 19.71012055 155 22 C169.5108866 24.19681624 184.03237481 26.30930369 198.5625 28.375 C216.23348316 30.88744713 233.90017725 33.42732938 251.5625 36 C252.71510315 36.16787018 253.8677063 36.33574036 255.05523682 36.50869751 C261.9360727 37.51106666 268.816761 38.51444555 275.6973877 39.51824951 C279.9357776 40.13650143 284.17423089 40.75431808 288.41268921 41.37210083 C321.18650547 46.14913433 321.18650547 46.14913433 335.94238281 48.30793762 C340.94068009 49.03913926 345.93907014 49.7697053 350.9375 50.5 C351.92153809 50.64380096 352.90557617 50.78760193 353.91943359 50.9357605 C370.46864515 53.3528039 387.02498264 55.71797864 403.58322144 58.07226562 C417.17761198 60.00669373 430.75948856 62.00360819 444.33154297 64.08862305 C456.56306648 65.95718087 468.81194873 67.69865545 481.0625 69.4375 C495.61365667 71.50297078 510.15724395 73.60479978 524.6875 75.8125 C537.09677289 77.69704433 549.5150598 79.51288272 561.94140625 81.28125 C562.65373602 81.38262331 563.36606579 81.48399662 564.09998131 81.58844185 C570.07290095 82.43817736 576.04600839 83.28659094 582.01916122 84.13468552 C598.95287154 86.53935372 615.8834399 88.95999748 632.796875 91.50390625 C633.46787987 91.60481127 634.13888474 91.70571629 634.83022308 91.80967903 C641.74962059 92.85101378 648.66781704 93.90009439 655.58496094 94.95629883 C668.93601755 96.98761796 682.29813132 98.8828985 695.68933105 100.62850952 C703.10058792 101.59680772 710.49141414 102.65193769 717.875 103.8125 C719.58586792 104.07933594 719.58586792 104.07933594 721.33129883 104.3515625 C722.30091553 104.50367187 723.27053223 104.65578125 724.26953125 104.8125 C734.35773669 106.37609667 744.46047523 107.8413265 754.5625 109.3125 C756.10810608 109.53762772 756.10810608 109.53762772 757.68493652 109.76730347 C772.99465804 111.99544065 788.30869561 114.19262951 803.625 116.375 C821.673571 118.94668614 839.7189903 121.53967438 857.76141357 124.15411377 C860.46515215 124.54589156 863.16896911 124.93712071 865.87286377 125.32781982 C889.95985517 128.8101448 889.95985517 128.8101448 900.02734375 130.4375 C913.85479389 132.66457311 927.73477335 134.55966913 941.60092163 136.527771 C950.22406561 137.751738 958.84638006 138.98153184 967.46875 140.2109375 C968.7461181 140.39300688 968.7461181 140.39300688 970.04929161 140.57875443 C989.16571019 143.30382276 1008.27504072 146.0761931 1027.37974548 148.88223267 C1032.51390973 149.63627561 1037.64866009 150.38613662 1042.78401184 151.13204956 C1046.02207898 151.60253245 1049.25991633 152.07458332 1052.49771118 152.54693604 C1053.9736676 152.76192095 1055.44971836 152.9762594 1056.9258728 153.18988037 C1058.90397886 153.47627702 1060.88168896 153.76540466 1062.859375 154.0546875 C1063.95733398 154.21437012 1065.05529297 154.37405273 1066.18652344 154.53857422 C1069 155 1069 155 1073 156 C1073 394.59 1073 633.18 1073 879 C1056.73548866 882.48525243 1056.73548866 882.48525243 1048.6875 884 C1047.3586377 884.25209229 1047.3586377 884.25209229 1046.00292969 884.50927734 C1039.54729271 885.72708203 1033.08088884 886.87472065 1026.60791016 887.99609375 C1023.23746615 888.58521338 1019.89261064 889.21417118 1016.5625 890 C1012.30468711 890.99512102 1008.00173291 891.67737936 1003.6875 892.375 C997.11224355 893.43888636 990.58632653 894.65712168 984.0625 896 C976.40539246 897.57509494 968.7349552 898.90151166 961.00219727 900.04882812 C957.89042481 900.51487001 954.99207854 901.00264049 952 902 C949.81553508 902.40928425 947.62579457 902.79065991 945.43359375 903.15625 C944.14388672 903.37410156 942.85417969 903.59195313 941.52539062 903.81640625 C939.47583109 904.15968223 937.42609968 904.50189848 935.3762207 904.84326172 C933.3948954 905.17407589 931.41423329 905.50885447 929.43359375 905.84375 C927.65553345 906.14055664 927.65553345 906.14055664 925.84155273 906.44335938 C923.06591784 906.85582103 923.06591784 906.85582103 921 908 C918.875 907.5625 918.875 907.5625 917 907 C916.67 907.66 916.34 908.32 916 909 C913.49078219 909.56144156 911.05093501 909.99618679 908.51171875 910.3671875 C907.74534088 910.48677826 906.97896301 910.60636902 906.18936157 910.72958374 C904.54402086 910.98574966 902.89807657 911.23806231 901.25161743 911.48693848 C896.99547759 912.13107594 892.74393703 912.80414962 888.4921875 913.4765625 C887.66002213 913.60760376 886.82785675 913.73864502 885.97047424 913.87365723 C876.02604646 915.45150718 866.1682853 917.41727205 856.33740234 919.58789062 C855.43586426 919.78060547 854.53432617 919.97332031 853.60546875 920.171875 C852.7755542 920.35331055 851.94563965 920.53474609 851.09057617 920.72167969 C849 921 849 921 847 920 C846.67 920.66 846.34 921.32 846 922 C840.55072464 923.27536232 840.55072464 923.27536232 838 922 C837.67 922.66 837.34 923.32 837 924 C834.39850033 924.45437152 831.87163138 924.79710598 829.25 925.0625 C824.79169486 925.54762133 820.38627816 926.04248181 816 927 C808.8125 928.4375 808.8125 928.4375 806.78222656 928.84179688 C804.007268 929.39491813 801.23339907 929.95073086 798.46484375 930.53515625 C791.85313572 931.92279868 785.18928952 932.94024395 778.51074219 933.94726562 C777.71442383 934.06908203 776.91810547 934.19089844 776.09765625 934.31640625 C775.02269897 934.47798218 775.02269897 934.47798218 773.92602539 934.64282227 C771.79151295 934.99285997 771.79151295 934.99285997 769 936 C767.06779115 936.38198068 765.12930621 936.73275932 763.1875 937.0625 C762.17042969 937.23910156 761.15335938 937.41570313 760.10546875 937.59765625 C757.03147516 937.99592209 754.09571544 938.06941066 751 938 C750.67 938.66 750.34 939.32 750 940 C747.74291036 940.38379662 745.46613678 940.65236151 743.1875 940.875 C735.62425365 941.6813051 728.25854853 943.06203565 720.82885742 944.67919922 C716.46710894 945.60544094 712.49112163 946.21801561 708 946 C707.67 946.66 707.34 947.32 707 948 C705.10829376 948.27024375 703.21392838 948.52860716 701.3125 948.71875 C698.98700793 949.00158012 696.77896159 949.46191185 694.5 950 C691.54277983 950.69070021 688.64195236 951.21439011 685.625 951.5625 C682.05407285 951.87071008 682.05407285 951.87071008 679 953 C674.35415823 953.70470634 669.70191474 954.15167467 665 954 C664.67 954.66 664.34 955.32 664 956 C661.4375 956.52734375 661.4375 956.52734375 658 956.9375 C645.87632789 958.51023377 633.84089488 960.61033719 621.95703125 963.49609375 C617.30507623 964.58917608 612.67394373 965.35366226 607.9375 966 C602.81949228 966.69891073 597.9877365 967.68743776 593 969 C590.66769907 969.34048189 588.33419175 969.67273188 586 970 C583.2667048 970.45628533 580.53978464 970.94670095 577.8125 971.4375 C572.71356967 972.34873462 567.61343507 973.23542321 562.5 974.0625 C556.90940956 974.98536691 551.41241119 976.18661335 545.90234375 977.5 C541.7074356 978.47449772 537.52731239 979.24601416 533.265625 979.87109375 C525.14605299 981.10330447 517.07655277 982.57925321 509 984.0625 C507.51174705 984.33413945 506.02346592 984.60562458 504.53515625 984.87695312 C497.38183552 986.16320835 497.38183552 986.16320835 490.25390625 987.57983398 C487.47594559 988.09769255 484.81884591 988.06555456 482 988 C481.67 988.66 481.34 989.32 481 990 C478.97511372 990.28926947 476.94755984 990.57272154 474.91015625 990.75390625 C472.91747967 990.90406878 472.91747967 990.90406878 471 992 C469.51434845 992.18156362 468.02342693 992.32116481 466.53125 992.4375 C461.10026155 992.9376198 455.83709678 993.89742611 450.5 995 C449.60796875 995.17789063 448.7159375 995.35578125 447.796875 995.5390625 C443.26884291 996.37730759 443.26884291 996.37730759 439 998 C437.29297265 998.06996014 435.58331997 998.08440154 433.875 998.0625 C432.96492188 998.05347656 432.05484375 998.04445313 431.1171875 998.03515625 C430.41851562 998.02355469 429.71984375 998.01195312 429 998 C428.67 998.66 428.34 999.32 428 1000 C425.74291036 1000.38379662 423.46613678 1000.65236151 421.1875 1000.875 C414.568708 1001.59210543 408.08521608 1002.66888344 401.5625 1004 C400.74740967 1004.16612793 399.93231934 1004.33225586 399.0925293 1004.50341797 C395.13853616 1005.3211528 391.1957576 1006.1786249 387.2578125 1007.0703125 C383.95389954 1007.80891468 380.66712024 1008.40602313 377.3125 1008.875 C371.04291884 1009.81098013 364.80248284 1010.8839389 358.5625 1012 C357.14094604 1012.24919189 357.14094604 1012.24919189 355.69067383 1012.50341797 C350.96199796 1013.35752744 346.54613953 1014.41125835 342 1016 C339.92193777 1016.23461993 337.84317681 1016.46454408 335.76147461 1016.66430664 C332.45296677 1017.06649904 329.21443439 1017.67892871 325.94140625 1018.30859375 C319.66124602 1019.50523814 313.37528173 1020.66326587 307.08203125 1021.7890625 C306.24178406 1021.93950516 305.40153687 1022.08994781 304.53582764 1022.24494934 C301.96147563 1022.70547449 299.38700441 1023.16532768 296.8125 1023.625 C294.18952856 1024.09351713 291.5665947 1024.56224016 288.94377136 1025.03158569 C287.3300192 1025.3203502 285.71618327 1025.6086471 284.10224915 1025.89639282 C280.3929764 1026.56001417 276.69454213 1027.25965819 273 1028 C270.09147106 1028.54020913 267.18038639 1029.06624108 264.26953125 1029.59375 C262.56312151 1029.90478592 260.85674218 1030.21598876 259.15039062 1030.52734375 C256.47105801 1031.0160193 253.79157592 1031.5037865 251.11157227 1031.98876953 C248.5178717 1032.45845565 245.92490028 1032.93199791 243.33203125 1033.40625 C242.52683548 1033.55106812 241.72163971 1033.69588623 240.89204407 1033.84509277 C236.82836023 1034.54238854 236.82836023 1034.54238854 233 1036 C231.36748724 1036.2483797 229.73406663 1036.49186489 228.09716797 1036.70947266 C224.06935112 1037.26745892 220.06813772 1037.99026813 216.0625 1038.6875 C215.0919165 1038.85612549 214.12133301 1039.02475098 213.12133789 1039.19848633 C202.6442687 1041.03589797 192.19183546 1043.0037099 181.74047852 1044.98120117 C181.07267365 1045.10740845 180.40486877 1045.23361572 179.71682739 1045.36364746 C177.8956349 1045.70809593 176.07464146 1046.05359641 174.25366211 1046.39916992 C171.17400402 1046.96786795 168.09033863 1047.49302341 165 1048 C163.124218 1048.32890424 161.24918577 1048.66211862 159.375 1049 C158.45460937 1049.165 157.53421875 1049.33 156.5859375 1049.5 C155.07866947 1049.79143551 153.57491815 1050.10641955 152.08569336 1050.47924805 C137.2710767 1054.17813337 122.04063877 1056.43622679 107 1059 C102.87444982 1059.70516696 98.74959044 1060.41424379 94.625 1061.125 C93.69260498 1061.28355469 92.76020996 1061.44210937 91.79956055 1061.60546875 C86.81458233 1062.46434112 81.87639458 1063.43178483 76.94482422 1064.55786133 C74.63798025 1065.082302 72.32169314 1065.54628884 70 1066 C69.2678125 1066.15339844 68.535625 1066.30679687 67.78125 1066.46484375 C61.84140345 1067.69553113 55.88509114 1068.66012527 49.8828125 1069.53515625 C47.52913785 1069.91467831 45.30609149 1070.41669451 43 1071 C38.05158972 1072.00690043 33.34281449 1072.13096024 28.3203125 1072.09765625 C27.50754852 1072.0962413 26.69478455 1072.09482635 25.85739136 1072.09336853 C23.27988899 1072.08780335 20.7024758 1072.0752574 18.125 1072.0625 C16.36979293 1072.0574805 14.61458448 1072.05291838 12.859375 1072.04882812 C8.57288268 1072.03784534 4.28645643 1072.02060492 0 1072 C-0.21009778 1007.3120011 -0.39109886 942.62393078 -0.5528124 877.93579322 C-0.56246052 874.07828582 -0.57215078 870.22077853 -0.58184195 866.36327124 C-0.78149135 786.68750552 -0.94663264 707.01155173 -0.56734159 273.6202906 C-0.56086763 270.20012559 -0.5544162 266.77996053 -0.54796402 263.35979548 C-0.39082751 180.08462509 -0.21979877 96.80948771 0 0 Z M35 43 C35 79.96 35 116.92 35 155 C66.55428663 158.33214043 66.55428663 158.33214043 98.13848877 161.26687622 C104.13339759 161.78446728 110.12729224 162.31350908 116.12109375 162.84375 C117.27130005 162.94547012 118.42150635 163.04719025 119.60656738 163.1519928 C127.78827929 163.88046195 135.95838554 164.67945587 144.125 165.5625 C156.90164897 166.94187106 169.69818675 168.06992042 182.5 169.1875 C183.5325592 169.27830841 184.56511841 169.36911682 185.62896729 169.462677 C188.57534553 169.72117306 191.52198435 169.9764312 194.46875 170.23046875 C195.35694427 170.30842682 196.24513855 170.38638489 197.1602478 170.46670532 C197.98844025 170.53723114 198.81663269 170.60775696 199.66992188 170.68041992 C200.74783997 170.77343636 200.74783997 170.77343636 201.84753418 170.86833191 C204.22764452 171.0139252 206.61544079 171 209 171 C209 136.35 209 101.7 209 66 C203.72 65.34 198.44 64.68 193 64 C192.67 63.67 192.34 63.34 192 63 C189.88103187 62.737318 187.75384336 62.53948017 185.625 62.375 C184.46226562 62.27960938 183.29953125 62.18421875 182.1015625 62.0859375 C178.96374422 61.82187287 178.96374422 61.82187287 176 63 C176 62.34 176 61.68 176 61 C174.92878906 60.93941406 173.85757813 60.87882812 172.75390625 60.81640625 C171.35675609 60.73201463 169.95962143 60.64736594 168.5625 60.5625 C167.85544922 60.52318359 167.14839844 60.48386719 166.41992188 60.44335938 C161.11328125 60.11328125 161.11328125 60.11328125 160 59 C157.0201796 58.64504642 154.04981627 58.33797203 151.0625 58.0625 C140.59395944 57.04327609 140.59395944 57.04327609 135.75 55.9375 C130.24037302 54.68486722 124.65217064 54.52143493 119.02734375 54.24609375 C116 54 116 54 115 53 C113.12125678 52.6528676 111.23184326 52.36320255 109.33984375 52.09765625 C108.16107666 51.93048096 106.98230957 51.76330566 105.76782227 51.59106445 C104.50381592 51.41663818 103.23980957 51.24221191 101.9375 51.0625 C100.65866943 50.88356201 99.37983887 50.70462402 98.06225586 50.52026367 C94.37565775 50.00729487 90.68816754 49.50154881 87 49 C86.11473633 48.87947266 85.22947266 48.75894531 84.31738281 48.63476562 C77.66008603 47.73875569 71.01554467 46.96857777 64.3125 46.5 C47.67005814 45.33502907 47.67005814 45.33502907 43 43 C40.36 43 37.72 43 35 43 Z M243 70 C242.9768794 83.54264178 242.95908636 97.0852789 242.94818783 110.62793636 C242.94295838 116.91562024 242.93585961 123.20329066 242.92456055 129.4909668 C242.91373386 135.55337723 242.90772363 141.61577469 242.90512276 147.67819405 C242.90326811 149.99676277 242.89964675 152.31533074 242.89426994 154.63389397 C242.88706242 157.86914508 242.88600894 161.10434183 242.88647461 164.33959961 C242.88287933 165.30848114 242.87928406 166.27736267 242.87557983 167.27560425 C242.8769545 168.15205093 242.87832916 169.02849762 242.87974548 169.9315033 C242.87882369 170.69751327 242.8779019 171.46352324 242.87695217 172.25274563 C242.81013209 174.02869406 242.81013209 174.02869406 244 175 C245.77926921 175.25549103 247.56754217 175.44853529 249.35717773 175.61669922 C251.08621841 175.78240669 251.08621841 175.78240669 252.85018921 175.95146179 C254.11521271 176.06802628 255.38023621 176.18459076 256.68359375 176.3046875 C258.6417955 176.49022942 258.6417955 176.49022942 260.63955688 176.67951965 C264.17363555 177.01415497 267.7082213 177.34311781 271.242939 177.67092514 C274.1635238 177.94251382 277.08378485 178.21749476 280.00404644 178.49253368 C296.64970912 180.05999456 313.29846605 181.58948416 329.95629883 183.02246094 C336.3518588 183.57581501 342.74223963 184.16151118 349.12890625 184.80859375 C349.80460159 184.87702988 350.48029694 184.945466 351.1764679 185.01597595 C354.33971511 185.33777243 357.50231648 185.66484766 360.66430664 185.9987793 C369.45245243 186.90902736 378.15885932 187.44742871 387 188 C387 155.66 387 123.32 387 90 C382.23781846 89.04756369 377.48832663 88.27923159 372.6875 87.5625 C371.80392822 87.43053223 370.92035645 87.29856445 370.01000977 87.16259766 C360.07785896 85.69507389 350.13513947 84.31201131 340.125 83.5 C335.74745616 83.13849112 331.57421631 82.33067499 327.28515625 81.40625 C324.177275 80.85373778 321.14838113 80.93826704 318 81 C316.32853578 80.6916232 314.66204612 80.35565657 313 80 C301.33093203 77.87164427 289.74442824 75.81168997 277.88671875 75.2109375 C274.34899299 74.9524298 271.01737173 74.24155026 267.5625 73.46875 C263.52587385 72.73034278 259.4648349 72.55234828 255.37109375 72.34375 C252.57184268 72.05831072 250.02280843 71.6021069 247.28930664 70.97851562 C246.48441299 70.79599243 245.67951935 70.61346924 244.85023499 70.42541504 C244.23965744 70.28502808 243.6290799 70.14464111 243 70 Z M421 94 C420.97687868 106.62995485 420.95908599 119.2599047 420.94818783 131.88987637 C420.94295854 137.75382164 420.93586006 143.61775249 420.92456055 149.48168945 C420.9137333 155.13561712 420.90772351 160.78953087 420.90512276 166.44346809 C420.90326821 168.6057361 420.89964705 170.76800331 420.89426994 172.93026543 C420.88706167 175.94758657 420.88600897 178.96484943 420.88647461 181.98217773 C420.88287933 182.8856041 420.87928406 183.78903046 420.87557983 184.71983337 C420.48460545 188.67553903 420.48460545 188.67553903 422 192 C424.01742876 192.26155588 426.04313282 192.45947123 428.07006836 192.63256836 C429.37330551 192.74616196 430.67654266 192.85975555 432.01927185 192.97679138 C433.45946048 193.09783267 434.89965117 193.21884945 436.33984375 193.33984375 C437.81990947 193.46768854 439.29993523 193.59599671 440.77992249 193.7247467 C444.70018823 194.06481635 448.62086744 194.39984264 452.54168701 194.73345947 C459.49573105 195.32570387 466.44915819 195.92511253 473.40234375 196.52734375 C474.14786436 196.59177673 474.89338497 196.65620972 475.66149712 196.72259521 C485.16399541 197.54595969 494.64865096 198.45365026 504.12280273 199.55981445 C510.53557845 200.28786902 516.9610954 200.86620334 523.38989258 201.43261719 C525.59432538 201.62781811 527.79811407 201.82946788 530.00195312 202.03125 C531.44006962 202.15924294 532.87821952 202.28686119 534.31640625 202.4140625 C535.57912354 202.5270166 536.84184082 202.6399707 538.14282227 202.75634766 C542.42079105 203.02658076 546.71350459 203 551 203 C551 172.97 551 142.94 551 112 C543.49297745 110.31468223 543.49297745 110.31468223 535.99609375 109.21875 C534.93253662 109.09999512 533.86897949 108.98124023 532.77319336 108.85888672 C531.12202515 108.68123779 531.12202515 108.68123779 529.4375 108.5 C527.13536662 108.2426348 524.83328315 107.98482271 522.53125 107.7265625 C521.41878906 107.60313477 520.30632812 107.47970703 519.16015625 107.35253906 C514.91686189 106.87916784 510.67613295 106.38835163 506.4375 105.875 C505.19871094 105.72804688 503.95992188 105.58109375 502.68359375 105.4296875 C500 105 500 105 499 104 C497.31851547 103.71353458 495.62712075 103.48476644 493.93359375 103.28125 C492.89009766 103.15363281 491.84660156 103.02601562 490.77148438 102.89453125 C489.67126953 102.76433594 488.57105469 102.63414063 487.4375 102.5 C485.8277832 102.30470703 485.8277832 102.30470703 484.18554688 102.10546875 C482.07502904 101.84957008 479.96427228 101.59563357 477.85327148 101.34375 C475.52547554 101.06330706 473.20016048 100.76994726 470.875 100.46875 C465.19661639 99.78184876 459.50277638 99.26672954 453.80664062 98.75 C452.94361328 98.6675 452.08058594 98.585 451.19140625 98.5 C450.40967041 98.4278125 449.62793457 98.355625 448.82250977 98.28125 C447 98 447 98 446 97 C444.15153557 96.70151 442.29362103 96.46107178 440.43359375 96.24609375 C439.30888672 96.11396484 438.18417969 95.98183594 437.02539062 95.84570312 C435.24938477 95.64364258 435.24938477 95.64364258 433.4375 95.4375 C432.24962891 95.29892578 431.06175781 95.16035156 429.83789062 95.01757812 C426.89235278 94.67452352 423.94640467 94.33551453 421 94 Z M585 116 C585 146.03 585 176.06 585 207 C606.285 208.98 606.285 208.98 628 211 C633.94 211.66 639.88 212.32 646 213 C651.12964047 213.49197608 656.25698238 213.9803784 661.38989258 214.43261719 C663.59432538 214.62781811 665.79811407 214.82946788 668.00195312 215.03125 C669.44006962 215.15924294 670.87821952 215.28686119 672.31640625 215.4140625 C673.57912354 215.5270166 674.84184082 215.6399707 676.14282227 215.75634766 C680.42079105 216.02658076 684.71350459 216 689 216 C689 187.62 689 159.24 689 130 C675.5455056 127.85968758 675.5455056 127.85968758 662 127 C659.90234375 126.6328125 659.90234375 126.6328125 657.9375 126.125 C649.70152692 124.17400807 641.47074015 122.80748318 633 123 C632.505 122.505 632.505 122.505 632 122 C629.85742602 121.81226403 627.71029759 121.67578534 625.5625 121.5625 C620.30836763 121.22644889 615.34180795 120.59690772 610.20703125 119.46875 C606.82986271 118.75147527 603.42853708 118.39751155 600 118 C592.575 117.01 592.575 117.01 585 116 Z M724 135 C724 163.05 724 191.1 724 220 C739.95597367 221.59559737 755.86311173 223.18299442 771.83203125 224.53515625 C776.54463641 224.94634648 781.23820222 225.4572879 785.9375 226 C796.93684764 227.21372112 807.97211606 228.08100967 819 229 C819 202.27 819 175.54 819 148 C814.57039671 147.11407934 810.13472558 146.29009637 805.6875 145.5 C804.96626953 145.36980469 804.24503906 145.23960937 803.50195312 145.10546875 C795.56899702 143.6967465 787.68142991 142.86303099 779.63671875 142.37890625 C775.73861005 141.97276603 771.95623593 141.28240735 768.10668945 140.55932617 C762.34296303 139.52162894 756.54629065 138.707446 750.75 137.875 C749.5228125 137.69324219 748.295625 137.51148438 747.03125 137.32421875 C741.2915203 136.49804554 735.79630679 135.82338123 730 136 C728.32546201 135.708776 726.65449105 135.38929201 725 135 C724.67 135 724.34 135 724 135 Z M853 152 C853 178.4 853 204.8 853 232 C866.56837504 233.70189613 866.56837504 233.70189613 880.16015625 235.03515625 C881.1197374 235.11873886 882.07931854 235.20232147 883.06797791 235.28843689 C886.0659148 235.5492952 889.06416487 235.80626318 892.0625 236.0625 C895.09293192 236.3227069 898.12327445 236.58383513 901.15342712 236.84727478 C903.02090238 237.00953195 904.88853985 237.16993715 906.75636292 237.32814026 C910.34659338 237.63926275 913.87591794 237.97990313 917.43530273 238.55639648 C922.29778936 239.16150149 927.10686834 239.07963505 932 239 C932.02312428 229.10810624 932.04091552 219.21621886 932.05181217 209.32430363 C932.05704082 204.7315736 932.06413812 200.138862 932.07543945 195.54614258 C932.086269 191.11766312 932.09227698 186.68920144 932.09487724 182.26070976 C932.09673137 180.56734372 932.10035175 178.87397871 932.10573006 177.18062019 C932.1129414 174.81708768 932.1139909 172.45362955 932.11352539 170.09008789 C932.1189183 169.02949661 932.1189183 169.02949661 932.12442017 167.94747925 C932.39649445 164.69361952 932.39649445 164.69361952 931 162 C927.67092535 161.70830083 924.34113803 161.55107957 921.00390625 161.37890625 C917.21692097 161.09676489 913.59631916 160.33843268 909.88452148 159.55932617 C904.04450021 158.42691071 898.14224556 157.68093024 892.25 156.875 C890.96222656 156.69324219 889.67445313 156.51148438 888.34765625 156.32421875 C887.10371094 156.15277344 885.85976563 155.98132813 884.578125 155.8046875 C883.45825195 155.64983887 882.33837891 155.49499023 881.18457031 155.33544922 C878.09437057 155.0099406 875.1041392 154.97153687 872 155 C870.38715933 154.73589413 868.7812066 154.42458591 867.1875 154.0625 C862.40521809 152.98107947 857.99475074 152.5549723 853 152 Z M967 168 C967 192.75 967 217.5 967 243 C978.818125 244.175625 978.818125 244.175625 990.875 245.375 C994.51378174 245.73924072 994.51378174 245.73924072 998.22607422 246.11083984 C1000.2522566 246.3110956 1002.27845985 246.51114032 1004.3046875 246.7109375 C1005.272854 246.80866455 1006.24102051 246.9063916 1007.23852539 247.00708008 C1019.48080244 248.20809017 1031.7263153 249.05587041 1044 250 C1044 225.91 1044 201.82 1044 177 C1039.05 176.67 1034.1 176.34 1029 176 C1028.505 175.505 1028.505 175.505 1028 175 C1025.84333261 174.63998819 1023.67676718 174.33901101 1021.5078125 174.0625 C1020.84723846 173.97750244 1020.18666443 173.89250488 1019.506073 173.80493164 C1018.09903267 173.62476827 1016.69172392 173.44669109 1015.28417969 173.27050781 C1013.16798631 173.00538544 1011.05271129 172.73377198 1008.9375 172.4609375 C1002.04713765 171.58062972 995.16150641 170.80883452 988.23925781 170.21923828 C984.70042902 169.87276333 981.27319774 169.14218988 977.80078125 168.40234375 C974.23463225 167.89005177 970.60275753 168 967 168 Z M35 189 C35 226.95 35 264.9 35 304 C51.83 304.66 68.66 305.32 86 306 C107.25 307 107.25 307 117.6640625 307.4921875 C129.78243528 308.05337604 141.90397255 308.53373051 154.0267334 308.98925781 C156.37485699 309.0778392 158.72292395 309.1679384 161.07092285 309.25976562 C164.39347157 309.38902609 167.71620738 309.51171194 171.0390625 309.6328125 C172.44519302 309.68890182 172.44519302 309.68890182 173.87973022 309.74612427 C185.59554593 310.15606316 197.25567107 310 209 310 C209 275.35 209 240.7 209 205 C200.09 204.34 191.18 203.68 182 203 C171.1875 202 171.1875 202 166.17578125 201.50390625 C162.42511847 201.13269016 158.67279991 200.79122204 154.91796875 200.46484375 C153.90903564 200.37654297 152.90010254 200.28824219 151.8605957 200.19726562 C149.9127585 200.02779152 147.96468557 199.86099907 146.01635742 199.69726562 C145.14213135 199.62056641 144.26790527 199.54386719 143.3671875 199.46484375 C142.59487793 199.399021 141.82256836 199.33319824 141.02685547 199.26538086 C139 199 139 199 136 198 C134.50062972 197.95653999 132.99946695 197.96001421 131.5 198 C128.54075767 198.07891313 126.86660758 197.95553586 124 197 C120.49201588 196.52653691 116.96304312 196.25083003 113.4375 195.9375 C112.48552734 195.84662109 111.53355469 195.75574219 110.55273438 195.66210938 C105.00240936 195.15959527 99.55344089 194.92525306 93.98071289 195.06469727 C92 195 92 195 90 194 C88.35439334 193.76747646 86.70160145 193.58489655 85.04711914 193.42749023 C84.01587418 193.32746201 82.98462921 193.22743378 81.9221344 193.12437439 C80.24558022 192.96806297 80.24558022 192.96806297 78.53515625 192.80859375 C77.39090683 192.69902847 76.24665741 192.5894632 75.06773376 192.47657776 C72.64437344 192.24529037 70.22082868 192.01592877 67.79711914 191.78833008 C64.08113204 191.43925029 60.36573064 191.08440998 56.65039062 190.72851562 C54.29951134 190.50486983 51.94860088 190.28155159 49.59765625 190.05859375 C47.92413841 189.89924599 47.92413841 189.89924599 46.21681213 189.73667908 C44.66521645 189.59136497 44.66521645 189.59136497 43.08227539 189.44311523 C42.17119522 189.35730698 41.26011505 189.27149872 40.32142639 189.18309021 C37.88965378 188.96068723 37.88965378 188.96068723 35 189 Z M244 209 C242.03571633 210.96428367 242.87976083 213.98297163 242.87557983 216.59747314 C242.87917511 217.5476532 242.88277039 218.49783325 242.88647461 219.47680664 C242.88632858 220.47181686 242.88618256 221.46682709 242.8860321 222.49198914 C242.88673169 225.79806662 242.89452621 229.10408854 242.90234375 232.41015625 C242.90420777 234.69559193 242.90563175 236.98102801 242.90663147 239.26646423 C242.91045793 245.29498387 242.9202893 251.32347959 242.93133545 257.35198975 C242.94154683 263.49832841 242.9461285 269.64467093 242.95117188 275.79101562 C242.96191146 287.86068762 242.9789894 299.93034182 243 312 C267.09809568 313.43821489 291.19659386 314.56387994 315.32177734 315.43261719 C319.76654286 315.59282308 324.21099091 315.76052901 328.65540504 315.93017006 C332.18883135 316.06399676 335.72241491 316.19325549 339.25605392 316.32133102 C340.89252542 316.38124097 342.52894669 316.44254649 344.16530228 316.50554276 C358.46054271 317.05230467 372.6739261 317 387 317 C387 285.65 387 254.3 387 222 C378.42 221.34 369.84 220.68 361 220 C354.8767843 219.44334403 349.03133305 218.87728481 343 218 C337.30119713 217.32831789 331.60234584 216.90614075 325.875 216.5625 C316.59273677 215.96604935 307.41015687 214.71654028 298.1953125 213.49609375 C285.64011245 211.91737058 273.04383886 211.07587071 260.41992188 210.24169922 C255.76123026 209.91245131 251.10963239 209.50493321 246.45800781 209.08813477 C245.64686523 209.05905029 244.83572266 209.02996582 244 209 Z M421 225 C421 256.02 421 287.04 421 319 C427.54405192 319.83504515 427.54405192 319.83504515 434.05731201 320.27210999 C434.97652435 320.30714127 435.89573669 320.34217255 436.84280396 320.37826538 C437.82377045 320.41207306 438.80473694 320.44588074 439.81542969 320.48071289 C440.87021515 320.5198732 441.92500061 320.55903351 443.01174927 320.59938049 C446.48167412 320.72728306 449.951758 320.85008649 453.421875 320.97265625 C455.8479297 321.06066128 458.27397532 321.14891696 460.70001221 321.2374115 C465.78039982 321.42196781 470.86086638 321.60410858 475.94140625 321.78442383 C482.42850463 322.01476445 488.91540823 322.25013236 495.40226364 322.48720646 C500.41243499 322.66991376 505.42268401 322.85041189 510.43296051 323.03021049 C512.82339756 323.11616359 515.21381449 323.20267822 517.6042099 323.28978157 C520.95839762 323.41157455 524.31267531 323.53050602 527.66699219 323.64868164 C528.63986176 323.68451355 529.61273132 323.72034546 530.61508179 323.75726318 C537.42306368 323.99293968 544.17724508 324 551 324 C551 295.62 551 267.24 551 238 C547.77541046 236.38770523 544.37528399 236.98498698 540.82421875 237.0625 C538 237 538 237 535.75634766 236.53881836 C532.53208266 235.90853024 529.34683478 235.60711701 526.07421875 235.31640625 C524.7134582 235.19313828 523.35269981 235.06984639 521.99194336 234.9465332 C521.2877829 234.88374176 520.58362244 234.82095032 519.85812378 234.7562561 C509.23163368 233.80770512 498.62388956 232.83437967 488.05859375 231.33203125 C484.93671496 230.93631419 484.93671496 230.93631419 481.5234375 231.0078125 C477.97077521 230.9999352 474.6961528 230.60198982 471.1875 230.0625 C465.63446887 229.25591059 460.16952531 228.80672615 454.5625 228.5625 C443.33156668 227.90185686 432.16347065 226.39543383 421 225 Z M585 241 C585 268.72 585 296.44 585 325 C603.05152862 326.63524913 603.05152862 326.63524913 621.109375 327.6328125 C622.21138245 327.67437469 623.31338989 327.71593689 624.4487915 327.75875854 C626.74017321 327.84375442 629.03165947 327.92597922 631.32324219 328.00537109 C634.73407176 328.12444394 638.14432746 328.25494816 641.5546875 328.38671875 C643.82289183 328.46943395 646.09112045 328.55148618 648.359375 328.6328125 C649.32905212 328.67028595 650.29872925 328.7077594 651.29779053 328.74636841 C663.87245152 329.16666641 676.39963336 329 689 329 C689 303.26 689 277.52 689 251 C682.00152533 250.21504482 682.00152533 250.21504482 675 249.5625 C670.30221333 249.14433818 665.62035575 248.62083857 660.9375 248.0625 C660.22039352 247.97716507 659.50328705 247.89183014 658.76445007 247.8039093 C658.03353653 247.71691269 657.30262299 247.62991608 656.54956055 247.5402832 C643.87782954 246.03237653 631.27608679 244.58834163 618.51171875 244.17578125 C615 244 615 244 609 243 C601.08 242.34 593.16 241.68 585 241 Z M724 254 C724 279.41 724 304.82 724 331 C730.703125 331.28875 737.40625 331.5775 744.3125 331.875 C757.01523011 332.42376161 769.71743581 332.98043031 782.41796875 333.578125 C783.8924926 333.64744736 783.8924926 333.64744736 785.39680481 333.71817017 C790.10229444 333.93988748 794.80767238 334.1637469 799.51293945 334.39013672 C801.21695847 334.47105324 802.92097859 334.55194645 804.625 334.6328125 C805.77049568 334.68891693 805.77049568 334.68891693 806.93913269 334.74615479 C810.97136589 334.93633272 814.95854606 335 819 335 C819 311.24 819 287.48 819 263 C809.43 262.01 799.86 261.02 790 260 C787.69 259.67 785.38 259.34 783 259 C781.04211271 258.81391914 779.08230704 258.6469393 777.12109375 258.5 C776.04206787 258.41814453 774.96304199 258.33628906 773.85131836 258.25195312 C772.7247583 258.16880859 771.59819824 258.08566406 770.4375 258 C768.6886853 257.86754883 768.6886853 257.86754883 766.90454102 257.73242188 C762.1978735 257.3776727 757.49130286 257.02571882 752.78125 256.71875 C744.95529311 256.20677151 737.2028475 255.36505107 729.421875 254.40234375 C726.24318848 253.96107484 726.24318848 253.96107484 724 254 Z M853 266 C853 289.1 853 312.2 853 336 C861.94549643 336.63896403 870.83859998 337.21357232 879.79296875 337.53515625 C880.9456575 337.57813339 882.09834625 337.62111053 883.28596497 337.66539001 C885.6983314 337.75473995 888.1107418 337.84291031 890.52319336 337.92993164 C894.18942212 338.06256954 897.85545094 338.19997036 901.52148438 338.33789062 C903.88280209 338.42476258 906.24412991 338.51136051 908.60546875 338.59765625 C910.22620552 338.65857201 910.22620552 338.65857201 911.87968445 338.72071838 C912.91478653 338.7575322 913.94988861 338.79434601 915.01635742 338.83227539 C915.90900803 338.86478897 916.80165863 338.89730255 917.72135925 338.93080139 C922.47990231 339.03123465 927.24039719 339 932 339 C932 317.55 932 296.1 932 274 C922.39748628 272.24014734 922.39748628 272.24014734 912.99609375 272.02734375 C911 272 911 272 909 271 C907.50066785 270.95524382 905.99949427 270.9610521 904.5 271 C900.22222222 271.11111111 900.22222222 271.11111111 898 270 C896.31309769 269.95509079 894.624553 269.96116137 892.9375 270 C891.29210014 270.03777102 889.64517844 270.04642479 888 270 C887.505 269.505 887.505 269.505 887 269 C885.2554718 268.78343788 883.50321519 268.62850792 881.75 268.5 C880.66589844 268.4175 879.58179688 268.335 878.46484375 268.25 C877.32144531 268.1675 876.17804687 268.085 875 268 C872.77073322 267.83467778 870.54156408 267.6680331 868.3125 267.5 C867.31863281 267.4278125 866.32476563 267.355625 865.30078125 267.28125 C861.19322231 266.93125681 857.09722897 266.45524766 853 266 Z M967 277 C967 298.12 967 319.24 967 341 C974.87875 341.33 982.7575 341.66 990.875 342 C993.30085449 342.10441406 995.72670898 342.20882812 998.22607422 342.31640625 C1000.25226168 342.39885538 1002.27846528 342.4809094 1004.3046875 342.5625 C1005.75693726 342.62727539 1005.75693726 342.62727539 1007.23852539 342.69335938 C1019.50633753 343.17591438 1031.69204237 343 1044 343 C1044 323.53 1044 304.06 1044 284 C1037.36722306 283.14375773 1037.36722306 283.14375773 1030.875 283 C1027.10953717 283.09876624 1023.70964908 282.64953165 1020 282 C1017.47979324 281.69094454 1014.96154205 281.39823311 1012.4375 281.125 C1011.68952148 281.04330566 1010.94154297 280.96161133 1010.17089844 280.87744141 C1007.44756874 280.58208226 1004.72380548 280.29093892 1002 280 C1000.82002441 279.87302734 999.64004883 279.74605469 998.42431641 279.61523438 C994.53328436 279.19789659 990.64172958 278.78577886 986.75 278.375 C984.85785767 278.17221436 984.85785767 278.17221436 982.92749023 277.96533203 C981.72938721 277.84013184 980.53128418 277.71493164 979.296875 277.5859375 C977.69344238 277.41650635 977.69344238 277.41650635 976.05761719 277.24365234 C973.04686331 277.0037344 970.02029792 277 967 277 Z M35 338 C35 375.62 35 413.24 35 452 C92.42 452 149.84 452 209 452 C209 416.69 209 381.38 209 345 C204.994084 344.33234733 201.95273509 343.88134508 198.03125 343.9375 C197.13019531 343.94523437 196.22914063 343.95296875 195.30078125 343.9609375 C194.37652344 343.97382813 193.45226562 343.98671875 192.5 344 C186.83922302 344.07895086 181.58800208 343.98930051 176 343 C172.11699788 342.9343949 168.24614491 343.00105013 164.36328125 343.0625 C161.27301896 343.06533608 158.26813202 342.85316726 155.1953125 342.53125 C145.81014646 341.60825211 136.35525739 341.63495962 126.93286133 341.44775391 C124.3939467 341.39599262 121.85519454 341.33882982 119.31640625 341.28125 C118.15232994 341.26088684 118.15232994 341.26088684 116.96473694 341.2401123 C113.47884926 341.15973039 110.3625235 340.87131604 107 340 C105.41016701 339.93210194 103.81768573 339.91500621 102.2265625 339.9375 C101.3190625 339.94523437 100.4115625 339.95296875 99.4765625 339.9609375 C97.58333186 339.98687217 95.69010268 340.01291295 93.796875 340.0390625 C89.03467915 340.07953442 84.70136368 339.79494657 80 339 C75.81077368 338.87445245 71.62150031 338.97685226 67.43164062 339.0390625 C66.15256836 339.05066406 66.15256836 339.05066406 64.84765625 339.0625 C64.08461182 339.07410156 63.32156738 339.08570313 62.53540039 339.09765625 C59.33831433 338.97451379 56.16730056 338.45247151 53 338 C47.06 338 41.12 338 35 338 Z M243 346 C243 380.98 243 415.96 243 452 C290.52 452 338.04 452 387 452 C387 419 387 386 387 352 C383.00472771 351.33412129 379.97558959 350.88107799 376.06640625 350.9375 C375.16986328 350.94523437 374.27332031 350.95296875 373.34960938 350.9609375 C371.49544194 350.98692443 369.64127527 351.01296587 367.78710938 351.0390625 C362.72684887 351.08265412 358.01585131 350.73881354 353 350 C349.28206829 349.88123577 345.56611824 349.97528099 341.84765625 350.0390625 C337.41984694 350.08463172 333.19704106 349.80132415 328.79443359 349.25830078 C321.97468596 348.62792397 315.09448256 348.60864699 308.25 348.4375 C306.64712648 348.39420977 305.04426176 348.35059252 303.44140625 348.30664062 C295.7581483 348.06541786 295.7581483 348.06541786 288.07324219 348.05102539 C286 348 286 348 285 347 C283.09642719 346.924693 281.19010638 346.91687032 279.28515625 346.9375 C278.12435547 346.94523437 276.96355469 346.95296875 275.76757812 346.9609375 C273.30143186 346.98693799 270.83528602 347.01297952 268.36914062 347.0390625 C267.20705078 347.04679687 266.04496094 347.05453125 264.84765625 347.0625 C263.77523682 347.07410156 262.70281738 347.08570313 261.59790039 347.09765625 C259 347 259 347 257 346 C252.38 346 247.76 346 243 346 Z M421 353 C421 385.67 421 418.34 421 452 C463.9 452 506.8 452 551 452 C551 420.98 551 389.96 551 358 C534.63262787 357.17488745 534.63262787 357.17488745 518.26733398 356.70874023 C496.99082658 356.31694428 475.76500394 355.22601315 454.52075195 354.01611328 C453.33270966 353.94970139 452.14466736 353.88328949 450.92062378 353.81486511 C448.70706289 353.69074705 446.49368065 353.56337385 444.2805481 353.43183899 C436.48137801 352.9951662 428.8465863 353 421 353 Z M585 360 C585 390.36 585 420.72 585 452 C619.32 452 653.64 452 689 452 C689 422.96 689 393.92 689 364 C682.48811227 363.14707073 682.48811227 363.14707073 676.08984375 362.9375 C675.24486328 362.94523437 674.39988281 362.95296875 673.52929688 362.9609375 C672.67400391 362.97382813 671.81871094 362.98671875 670.9375 363 C665.14525487 363.0869054 659.74415068 362.85197136 654 362 C651.36513875 361.95741638 648.75709243 361.95183265 646.125 362 C641.04655777 362.05114476 636.11598067 361.91176025 631.08203125 361.21875 C627.87175317 360.88145999 624.68026555 360.97697471 621.45703125 361.0625 C619 361 619 361 613 360 C603.76 360 594.52 360 585 360 Z M724 365 C724 393.71 724 422.42 724 452 C755.35 452 786.7 452 819 452 C819 424.61 819 397.22 819 369 C808.88294105 368.16441146 808.88294105 368.16441146 798.875 368 C795.47744135 368.06645591 793.23637355 368.07879118 790 367 C788.44283856 366.93002308 786.88279796 366.915606 785.32421875 366.9375 C784.41349609 366.94523437 783.50277344 366.95296875 782.56445312 366.9609375 C780.65820096 366.98682008 778.75195092 367.01285978 776.84570312 367.0390625 C769.59072486 367.10041538 769.59072486 367.10041538 766.05859375 366.5 C761.18386786 365.70310994 756.30393243 365.93823393 751.375 366 C749.3203658 366.02555515 747.26566888 366.04657185 745.2109375 366.0625 C743.85427979 366.07990234 743.85427979 366.07990234 742.47021484 366.09765625 C740 366 740 366 736 365 C732.04 365 728.08 365 724 365 Z M853 370 C853 397.06 853 424.12 853 452 C879.07 452 905.14 452 932 452 C932 425.93 932 399.86 932 373 C917.386233 372.15282453 917.386233 372.15282453 902.8125 372 C897.79363892 372.08586589 893.06171396 371.92115424 888.07446289 371.22265625 C883.35992986 370.71663599 878.59511063 370.96362373 873.86132812 371.0390625 C866.78831977 371.1054238 860.14455048 370.54958081 853 370 Z M967 374 C967 399.74 967 425.48 967 452 C992.41 452 1017.82 452 1044 452 C1044 427.58 1044 403.16 1044 378 C1036.93497155 377.41124763 1030.26705319 376.86583072 1023.25 377 C1018.4826356 377.08910961 1013.97968547 376.91205646 1009.24169922 376.25390625 C1004.49507033 375.71627893 999.70902611 375.65701548 994.9375 375.5 C985.60319511 375.18477019 976.32734929 374.62182329 967 374 Z M35 487 C35 523.96 35 560.92 35 599 C53.48052859 599.0591394 53.48052859 599.0591394 71.93359375 598.6328125 C73.00835968 598.59388885 74.08312561 598.55496521 75.19046021 598.51486206 C78.60633453 598.38959949 82.02190475 598.25763631 85.4375 598.125 C87.87035699 598.03373837 90.30321839 597.94259447 92.73608398 597.8515625 C107.47618985 597.29214343 122.20926666 596.63606833 136.94036865 595.87756348 C160.94919663 594.64376029 184.97526826 593.86022057 209 593 C209 558.02 209 523.04 209 487 C151.58 487 94.16 487 35 487 Z M243 487 C243 521.32 243 555.64 243 591 C255.14711106 591 267.14059303 590.9976602 279.24609375 590.4140625 C280.61707486 590.3517226 281.98807791 590.28986383 283.35910034 590.22843933 C286.23892126 590.09869456 289.11860386 589.96634765 291.99819946 589.83169556 C298.82338 589.51284738 305.64921715 589.20856563 312.47504997 588.90405464 C314.0179609 588.83519519 315.56086482 588.76617836 317.10376167 588.69700432 C340.39739245 587.65349854 363.69780703 586.8345138 387 586 C387 553.33 387 520.66 387 487 C339.48 487 291.96 487 243 487 Z M421 487 C421 519.01 421 551.02 421 584 C437.97347064 584.00814984 437.97347064 584.00814984 454.90161133 583.39038086 C476.4022178 582.22622723 497.91146166 581.42194004 519.4309082 580.69775391 C520.56757935 580.65849289 521.70425049 580.61923187 522.87536621 580.57878113 C524.98824064 580.50584019 527.10119242 580.43508697 529.2142334 580.36714172 C536.51248073 580.11346197 543.70074964 579.5614808 551 579 C551 548.64 551 518.28 551 487 C508.1 487 465.2 487 421 487 Z M585 487 C585 517.03 585 547.06 585 578 C612.4828608 577.21706183 612.4828608 577.21706183 639.9375 576 C643.38529416 575.82177163 646.83323375 575.64653171 650.28125 575.47265625 C651.52538918 575.40970116 651.52538918 575.40970116 652.79466248 575.34547424 C661.62949574 574.90600475 670.46809484 574.59269412 679.31030273 574.34179688 C680.80992554 574.29442383 680.80992554 574.29442383 682.33984375 574.24609375 C683.19956787 574.22216553 684.05929199 574.1982373 684.94506836 574.17358398 C687.06393335 574.12234195 687.06393335 574.12234195 689 573 C689 544.62 689 516.24 689 487 C654.68 487 620.36 487 585 487 Z M724 487 C724 515.05 724 543.1 724 572 C739.39090182 572.00567835 739.39090182 572.00567835 754.76171875 571.6328125 C755.88028763 571.59316376 756.99885651 571.55351501 758.15132141 571.51266479 C760.48953305 571.42859669 762.82768414 571.34282788 765.16577148 571.25537109 C768.66434898 571.12585703 772.1631708 571.00602585 775.66210938 570.88671875 C777.96616748 570.80267461 780.27020475 570.71805723 782.57421875 570.6328125 C783.58022629 570.59938751 784.58623383 570.56596252 785.62272644 570.53152466 C796.80988517 570.09456462 807.79978358 568.97393186 819 568 C819 541.27 819 514.54 819 487 C787.65 487 756.3 487 724 487 Z M853 487 C853 513.4 853 539.8 853 567 C880.62813353 566.36046486 880.62813353 566.36046486 908.25 565.5 C909.28036377 565.46463135 910.31072754 565.4292627 911.37231445 565.39282227 C918.28666544 565.13182793 925.08772449 564.57602296 932 564 C932 538.59 932 513.18 932 487 C905.93 487 879.86 487 853 487 Z M967 487 C967 512.08 967 537.16 967 563 C982.09439026 562.37987688 982.09439026 562.37987688 997.1887207 561.75830078 C1006.53517035 561.37441602 1015.88127263 560.99085121 1025.23046875 560.6796875 C1027.12285278 560.61575806 1027.12285278 560.61575806 1029.0534668 560.55053711 C1031.30089124 560.47682757 1033.54845213 560.40713597 1035.79614258 560.34204102 C1036.76060303 560.31037842 1037.72506348 560.27871582 1038.71875 560.24609375 C1039.53279297 560.22216553 1040.34683594 560.1982373 1041.18554688 560.17358398 C1043.01981935 560.19236513 1043.01981935 560.19236513 1044 559 C1044.09436529 556.76070114 1044.11742327 554.5183825 1044.11352539 552.27709961 C1044.11364593 551.56330171 1044.11376646 550.8495038 1044.11389065 550.11407566 C1044.11314165 547.79346713 1044.10551405 545.47293799 1044.09765625 543.15234375 C1044.09618679 541.7236739 1044.0951661 540.29500351 1044.09460449 538.86633301 C1044.08935208 533.55671382 1044.07539099 528.24710614 1044.0625 522.9375 C1044.0315625 505.1484375 1044.0315625 505.1484375 1044 487 C1018.59 487 993.18 487 967 487 Z M1009.6875 594.4375 C1008.54861328 594.47681641 1007.40972656 594.51613281 1006.23632812 594.55664062 C1001.90417936 594.72083285 997.67406364 594.90027352 993.3828125 595.53515625 C988.6417923 596.18663593 983.96537657 596.06594723 979.1875 596 C977.30604626 595.97455776 975.42452646 595.95350191 973.54296875 595.9375 C972.3058313 595.92009766 972.3058313 595.92009766 971.04370117 595.90234375 C968.93275134 595.86528546 968.93275134 595.86528546 967 597 C967 617.79 967 638.58 967 660 C986.5833585 658.62399231 986.5833585 658.62399231 1005.97265625 656.57421875 C1018.60235957 655.05666412 1031.33712756 654.12786718 1044 653 C1044 633.53 1044 614.06 1044 594 C1026.83149982 593.99164134 1026.83149982 593.99164134 1009.6875 594.4375 Z M915.1875 598.4375 C913.35723267 598.50408813 913.35723267 598.50408813 911.48999023 598.57202148 C904.01946076 598.85481912 896.58021186 599.26573719 889.125 599.81640625 C885.1389151 600.05058874 881.1785774 600.01213128 877.1875 599.96875 C872.61837863 600.01354531 868.07474895 600.32241775 863.51782227 600.64453125 C859.98962111 600.89172162 856.54413528 601 853 601 C853 624.1 853 647.2 853 671 C867.33384344 669.67194422 881.66741775 668.34152137 896 667 C896.84709534 666.92076294 897.69419067 666.84152588 898.56695557 666.7598877 C903.01120551 666.34378658 907.45516265 665.92479963 911.89865112 665.50064087 C913.83795315 665.31602672 915.77749533 665.13394083 917.71704102 664.9519043 C918.88033936 664.84015869 920.0436377 664.72841309 921.2421875 664.61328125 C922.74048096 664.47079956 922.74048096 664.47079956 924.26904297 664.32543945 C926.86525874 664.01605669 929.4361886 663.51276228 932 663 C932 641.55 932 620.1 932 598 C926.39029366 598 920.79301927 598.23229559 915.1875 598.4375 Z M787 604 C784.3323501 604.13680256 781.68463906 604.23162885 779.015625 604.28125 C778.24176453 604.29965942 777.46790405 604.31806885 776.67059326 604.33703613 C774.19713615 604.39550384 771.72360662 604.44827518 769.25 604.5 C766.02594669 604.56920235 762.80200042 604.64169175 759.578125 604.71875 C758.78104126 604.73776367 757.98395752 604.75677734 757.16271973 604.77636719 C750.40298882 604.95464279 743.66695603 605.34050435 736.92089844 605.79882812 C732.6190688 606.01954466 728.30748814 606 724 606 C724 631.41 724 656.82 724 683 C733.219375 682.21625 742.43875 681.4325 751.9375 680.625 C754.81073975 680.38217285 757.68397949 680.1393457 760.64428711 679.88916016 C773.46381712 678.79664348 786.22942113 677.55908804 799 676 C808.9 675.01 808.9 675.01 819 674 C819 650.57 819 627.14 819 603 C802.89637971 602.45353668 802.89637971 602.45353668 787 604 Z M667 609 C665.27746803 609.07314361 663.55208006 609.08360248 661.828125 609.0625 C660.77794189 609.05412109 659.72775879 609.04574219 658.64575195 609.03710938 C657.52515381 609.02486328 656.40455566 609.01261719 655.25 609 C647.15633794 608.94963282 639.20700593 609.06546926 631.14453125 609.78125 C626.47873145 610.10582738 621.83023573 610.02486422 617.15625 609.9375 C613.50539098 609.93357352 613.50539098 609.93357352 608 611 C600.41 611.33 592.82 611.66 585 612 C585 639.72 585 667.44 585 696 C620.0199389 693.15678128 620.0199389 693.15678128 655 689.875 C655.80332764 689.79495728 656.60665527 689.71491455 657.43432617 689.63244629 C667.98111932 688.5773321 678.47705248 687.31536844 689 686 C689 660.26 689 634.52 689 608 C677.61250001 606.8585237 677.61250001 606.8585237 667 609 Z M540.0625 613.5 C534.2961323 613.96649267 528.61076149 614.02255016 522.8293457 613.96875 C519.13491644 613.99889899 515.50064484 614.2018503 511.81640625 614.46875 C501.2499471 615.18371006 490.67166159 615.3446733 480.08544922 615.55224609 C477.50999396 615.6039354 474.93470212 615.661076 472.359375 615.71875 C471.18601593 615.73911316 471.18601593 615.73911316 469.98895264 615.7598877 C466.4948405 615.8400301 463.37059121 616.12740315 460 617 C458.36979102 617.06840277 456.73695919 617.08484281 455.10546875 617.0625 C454.15615479 617.05412109 453.20684082 617.04574219 452.22875977 617.03710938 C451.22514404 617.02486328 450.22152832 617.01261719 449.1875 617 C440.06927109 616.93684344 431.08336854 617.19641605 422 618 C420.82186172 622.20737501 420.86739848 626.28468569 420.88647461 630.62402344 C420.88632858 631.49267532 420.88618256 632.36132721 420.8860321 633.25630188 C420.88672809 636.12401843 420.89450585 638.99166981 420.90234375 641.859375 C420.90420904 643.8490597 420.90563242 645.83874485 420.90663147 647.82843018 C420.91044788 653.06285879 420.92027071 658.29725961 420.93133545 663.53167725 C420.94156838 668.87397892 420.94613313 674.21628509 420.95117188 679.55859375 C420.96189374 690.0390747 420.97895968 700.51953504 421 711 C431.05075295 710.442922 441.08154427 709.80390365 451.109375 708.9140625 C452.27274384 708.81256393 453.43611267 708.71106537 454.63473511 708.60649109 C458.34007568 708.28212497 462.0450538 707.95383764 465.75 707.625 C467.65202179 707.45742691 467.65202179 707.45742691 469.59246826 707.28646851 C484.71083447 705.95387234 499.8211686 704.58593511 514.91088867 702.95800781 C523.2485399 702.05889406 531.59384862 701.30863145 539.95361328 700.64575195 C540.82614746 700.57445068 541.69868164 700.50314941 542.59765625 700.4296875 C543.35570557 700.37022949 544.11375488 700.31077148 544.89477539 700.24951172 C547.339631 700.0048151 547.339631 700.0048151 551 699 C551 670.62 551 642.24 551 613 C547.26697786 613 543.76381716 613.16394094 540.0625 613.5 Z M360.6328125 620.78125 C357.00450138 621.08271205 353.38727479 621.03202531 349.75 621 C343.24353055 620.94281284 336.85195087 621.24239854 330.36328125 621.78125 C325.84838391 622.07490186 321.36148722 622.02873114 316.83984375 621.9375 C314.06338343 621.91009995 314.06338343 621.91009995 311.65429688 622.5 C308.92217612 623.01465998 306.46833671 623.09832815 303.69140625 623.0625 C302.69689453 623.05476562 301.70238281 623.04703125 300.67773438 623.0390625 C298.60481709 623.01306981 296.53190042 622.98702833 294.45898438 622.9609375 C289.49132522 622.92235374 284.8953048 623.06197752 280 624 C278.2296729 624.04233966 276.45785881 624.04099239 274.6875 624 C268.75288489 623.94057957 262.88148229 624.24880408 256.96362305 624.64453125 C253.83743214 624.84993626 250.7511342 624.99770101 247.6171875 624.96875 C245.01752366 624.80936203 245.01752366 624.80936203 243 626 C243 659.66 243 693.32 243 728 C257.23341701 727.17474031 257.23341701 727.17474031 271.4375 726.0625 C272.30697266 725.98837891 273.17644531 725.91425781 274.07226562 725.83789062 C279.84532403 725.33104824 285.60169637 724.71131094 291.359375 724.0546875 C300.87129789 722.97638837 310.39930517 722.13255816 319.93630981 721.31069946 C335.27842341 719.98675907 350.60803726 718.59845901 365.91918945 716.95141602 C372.94479508 716.19658987 379.95312664 715.58723945 387 715 C387 683.65 387 652.3 387 620 C373.51874363 619.82402893 373.51874363 619.82402893 360.6328125 620.78125 Z M183.68359375 627.78125 C180.14066359 628.0700478 176.61371661 628.03105104 173.0625 628 C165.09482027 627.93895487 157.14975716 628.14371809 149.1875 628.4375 C148.07963135 628.47681641 146.9717627 628.51613281 145.83032227 628.55664062 C140.38881466 628.76678425 134.97660476 629.06938154 129.55078125 629.53515625 C125.05965409 629.90263972 120.6386126 630.03772534 116.1328125 630 C108.67713967 629.94218808 101.30621205 630.43714463 93.875 631 C85.7812209 631.60929771 77.77157633 632.07990463 69.65332031 632.00390625 C66.05793919 631.99861309 62.52316444 632.23302188 58.9375 632.5 C53.38932891 632.89340248 47.89414153 633.07764766 42.33203125 632.9375 C39.53172944 632.94651582 39.53172944 632.94651582 35 634 C35 671.62 35 709.24 35 748 C50.736875 746.576875 66.47375 745.15375 82.6875 743.6875 C87.59197998 743.24494873 92.49645996 742.80239746 97.54956055 742.34643555 C101.53700104 741.98544671 105.52440669 741.62411848 109.51171875 741.26171875 C110.57607336 741.16501074 111.64042797 741.06830273 112.73703575 740.96866417 C124.77763032 739.87238216 136.80948794 738.73757473 148.83203125 737.45703125 C168.8646866 735.39687673 188.93739851 733.74457404 209 732 C209 697.35 209 662.7 209 627 C196.05152422 626.86251722 196.05152422 626.86251722 183.68359375 627.78125 Z M1036.625 687.5 C1033.38603059 688.11694656 1030.29397951 688 1027 688 C1024.99930219 688.32911912 1022.99935009 688.66279035 1021 689 C1019.15448581 689.16859887 1017.30643763 689.31117904 1015.45703125 689.4296875 C1013.84151367 689.53990234 1013.84151367 689.53990234 1012.19335938 689.65234375 C1010.02164109 689.79536852 1007.84977544 689.9361825 1005.67773438 690.07421875 C992.71343076 690.96726477 979.96315589 692.55964935 967 694 C967 717.76 967 741.52 967 766 C972.69988473 766.03685323 972.69988473 766.03685323 978.22167969 765.51269531 C978.97575607 765.40534561 979.72983246 765.29799591 980.50675964 765.18739319 C981.30374771 765.06883469 982.10073578 764.95027618 982.921875 764.828125 C983.77223831 764.70565903 984.62260162 764.58319305 985.49873352 764.45701599 C988.24988838 764.05954931 990.9999468 763.65501278 993.75 763.25 C995.64114392 762.97466752 997.5323389 762.69968555 999.42358398 762.42504883 C1003.18824426 761.87749602 1006.95244437 761.3269231 1010.71630859 760.77392578 C1014.71458819 760.1869967 1018.71392148 759.60805589 1022.71432495 759.03579712 C1025.83086602 758.58970426 1028.94663819 758.13830922 1032.0625 757.6875 C1033.73554199 757.44918457 1033.73554199 757.44918457 1035.44238281 757.20605469 C1036.44237305 757.05942383 1037.44236328 756.91279297 1038.47265625 756.76171875 C1039.33125244 756.63756592 1040.18984863 756.51341309 1041.07446289 756.38549805 C1042.99968627 756.18515969 1042.99968627 756.18515969 1044 755 C1044.0942174 752.88318683 1044.11742761 750.76319242 1044.11352539 748.64428711 C1044.11367142 747.98089828 1044.11381744 747.31750946 1044.1139679 746.63401794 C1044.11326881 744.43176044 1044.10547665 742.22958655 1044.09765625 740.02734375 C1044.09579206 738.50419664 1044.09436816 736.98104893 1044.09336853 735.457901 C1044.08954346 731.44162349 1044.07971328 727.42538192 1044.06866455 723.40911865 C1044.05845019 719.31376634 1044.05387086 715.21840824 1044.04882812 711.12304688 C1044.038091 703.08201472 1044.02101472 695.04101183 1044 687 C1041.42830543 686.96582466 1039.14882227 686.968669 1036.625 687.5 Z M925.1875 697.4375 C924.12917969 697.51871094 923.07085938 697.59992187 921.98046875 697.68359375 C919.17018961 697.9047104 919.17018961 697.9047104 917.17762756 698.48498535 C914.50910542 699.11609786 911.91117029 699.33483669 909.17749023 699.55664062 C907.42063148 699.70184143 907.42063148 699.70184143 905.62828064 699.84997559 C904.36778397 699.95104614 903.10728729 700.0521167 901.80859375 700.15625 C899.82752574 700.32000629 897.84645807 700.48376669 895.8654108 700.64777374 C891.68490876 700.99281459 887.50393511 701.33209171 883.32299805 701.67181396 C879.87693477 701.95197117 876.43099934 702.23351038 872.98536682 702.5189209 C870.40144606 702.73266706 867.81725084 702.94312516 865.23277283 703.15002441 C864.06468582 703.24682495 862.89659882 703.34362549 861.69311523 703.44335938 C860.14901222 703.56874084 860.14901222 703.56874084 858.57371521 703.69665527 C855.88633365 703.92510639 855.88633365 703.92510639 853 705 C853 730.41 853 755.82 853 782 C862.2944852 781.3361082 871.35853137 780.53117298 880.5546875 779.22265625 C881.78107941 779.05124619 883.00747131 778.87983612 884.27102661 778.70323181 C886.83758498 778.34328304 889.4038171 777.98100079 891.96972656 777.61645508 C895.88514317 777.06106121 899.80183246 776.51539947 903.71875 775.97070312 C906.22664394 775.6177657 908.73445934 775.26426964 911.2421875 774.91015625 C912.40378387 774.74862564 913.56538025 774.58709503 914.76217651 774.42066956 C916.40526291 774.18548866 916.40526291 774.18548866 918.08154297 773.94555664 C919.03415009 773.81089493 919.9867572 773.67623322 920.9682312 773.53749084 C924.6835756 772.87881146 928.33938064 771.91515484 932 771 C932 746.58 932 722.16 932 697 C929.72815606 697 927.45004624 697.25966988 925.1875 697.4375 Z M810.0625 708.4375 C809.02222656 708.51871094 807.98195313 708.59992187 806.91015625 708.68359375 C804.14268262 708.91194391 804.14268262 708.91194391 802.078125 709.50439453 C799.94820236 710.01235306 798.02571752 710.17190743 795.83984375 710.24609375 C795.05206543 710.27767578 794.26428711 710.30925781 793.45263672 710.34179688 C792.6226416 710.37337891 791.79264648 710.40496094 790.9375 710.4375 C784.77797229 710.71038315 778.93815642 711.24128373 772.8984375 712.52734375 C768.21107804 713.29172447 763.48839952 713.45677134 758.74755859 713.65820312 C755.61009737 713.79966676 752.99758169 714.0008061 750 715 C748.80375 714.979375 747.6075 714.95875 746.375 714.9375 C738.88555354 715.02458659 731.43865111 716.12486458 724 717 C724 744.72 724 772.44 724 801 C760.16480775 796.0658442 760.16480775 796.0658442 796.31329346 791.01373291 C798.14429945 790.75483192 799.97547668 790.497139 801.80682373 790.24066162 C804.34177251 789.88525485 806.87603914 789.52534488 809.41015625 789.1640625 C810.15669968 789.06019226 810.9032431 788.95632202 811.67240906 788.8493042 C815.45396131 788.33377938 815.45396131 788.33377938 819 787 C819 760.93 819 734.86 819 708 C815.99199268 708 813.0605047 708.196622 810.0625 708.4375 Z M670.8828125 721.5859375 C669.62581543 721.7111377 668.36881836 721.83633789 667.07373047 721.96533203 C665.11910889 722.16811768 665.11910889 722.16811768 663.125 722.375 C661.75542508 722.51339338 660.38579539 722.65124579 659.01611328 722.78857422 C656.95939059 722.99498464 654.90272928 723.20189396 652.84628296 723.41104126 C648.72730171 723.82981781 644.60711072 724.22941127 640.484375 724.609375 C639.52515137 724.69783691 638.56592773 724.78629883 637.57763672 724.87744141 C635.82941077 725.03757701 634.08104601 725.19620732 632.33251953 725.35302734 C628.48746628 725.71001643 624.78485416 726.21263983 621 727 C619 727 617 727 615 727 C614.01 727.33 613.02 727.66 612 728 C610.0312289 728 608.06236282 727.99762054 606.09375 727.97265625 C603.01646931 728.01284462 600.04184327 728.54372351 597 729 C591.06 729.495 591.06 729.495 585 730 C585 759.7 585 789.4 585 820 C591.77998738 819.38363751 598.49276118 818.73866305 605.23046875 817.8359375 C606.08452301 817.72304382 606.93857727 817.61015015 607.81851196 817.49383545 C610.6085607 817.12372535 613.39806022 816.74967023 616.1875 816.375 C617.14812347 816.24671814 618.10874695 816.11843628 619.09848022 815.98626709 C642.4300141 812.8668254 665.71280263 809.43468988 689 806 C689 777.95 689 749.9 689 721 C679.87068627 720.97978102 679.87068627 720.97978102 670.8828125 721.5859375 Z M536 735 C533.66666667 735 531.33333333 735 529 735 C528.11183594 735.1546875 527.22367188 735.309375 526.30859375 735.46875 C521.61729695 736.22201607 516.93071953 736.3830288 512.18945312 736.60546875 C508.35117935 736.80370551 504.76850198 737.21181658 501 738 C498.77319988 738.19576265 496.54350606 738.36009369 494.3125 738.5 C487.33047072 738.97029213 480.39829924 739.54614326 473.4609375 740.47265625 C465.59255531 741.52022193 457.81363918 742.23781931 449.88427734 742.60327148 C443.50029735 742.91853827 437.18057645 743.57101986 430.83642578 744.33984375 C427.51662367 744.73958275 424.35130664 745 421 745 C421 777.34 421 809.68 421 843 C429.23543098 842.41175493 437.20821335 841.83137172 445.328125 840.6171875 C446.72692902 840.41468887 446.72692902 840.41468887 448.1539917 840.20809937 C451.18667052 839.76824256 454.21831177 839.32162839 457.25 838.875 C461.60908181 838.24016441 465.96863223 837.60856891 470.328125 836.9765625 C472.00279846 836.73299011 472.00279846 836.73299011 473.71130371 836.48449707 C481.71506709 835.32269278 489.72310168 834.19470002 497.734375 833.0859375 C498.85177063 832.93103851 499.96916626 832.77613953 501.12042236 832.61654663 C505.46154233 832.01516343 509.80270726 831.41417983 514.14465332 830.81878662 C517.13849464 830.40802258 520.13177557 829.99335703 523.125 829.578125 C523.97543884 829.46270355 524.82587769 829.3472821 525.7020874 829.22836304 C534.18888641 828.04522141 542.54004754 826.49293279 551 825 C551 794.97 551 764.94 551 734 C541.09141031 733.55535135 541.09141031 733.55535135 536 735 Z M373.8125 749.4375 C372.30623047 749.55931641 372.30623047 749.55931641 370.76953125 749.68359375 C368.41279696 749.95283984 366.29139954 750.42715011 364 751 C361.66666667 751 359.33333333 751 357 751 C356.01 751.33 355.02 751.66 354 752 C352.13213 751.98943512 350.264249 751.97706748 348.39648438 751.95458984 C343.65241923 752.0444835 338.95566142 752.74037459 334.25 753.3125 C323.15866471 754.60873953 312.06759653 755.61509522 300.9375 756.5 C289.14165163 757.43998312 277.38882543 758.52817591 265.64428711 759.99804688 C258.07846232 760.93479885 250.64166392 761.45416686 243 762 C243 796.98 243 831.96 243 868 C255.32175103 867.32865327 255.32175103 867.32865327 267.3125 865.7421875 C276.31083605 864.22574182 285.33643367 862.9430334 294.375 861.6953125 C295.88907963 861.48574428 297.4031584 861.27616983 298.91723633 861.06658936 C302.82496504 860.52628949 306.73294234 859.98780769 310.64099121 859.4498291 C323.76203123 857.64309754 336.8817771 855.82707184 350 854 C351.22780182 853.82920174 351.22780182 853.82920174 352.48040771 853.654953 C357.43322784 852.96562908 362.38544897 852.27223129 367.33691406 851.57323837 C368.89419751 851.35391432 370.45165075 851.13579221 372.00927734 850.91891861 C374.15640981 850.61968719 376.30287311 850.31604714 378.44921875 850.01123047 C379.66955811 849.83961395 380.88989746 849.66799744 382.1472168 849.49118042 C384.93574872 849.1525269 384.93574872 849.1525269 387 848 C387 815.33 387 782.66 387 749 C382.50395779 749 378.2613559 749.06340474 373.8125 749.4375 Z M200.2734375 765.83984375 C199.49239655 765.92625626 198.71135559 766.01266876 197.90664673 766.10169983 C196.24713968 766.28552555 194.58766595 766.46965235 192.92822266 766.65405273 C190.40670672 766.93398006 187.88500188 767.21215795 185.36328125 767.49023438 C183.74998802 767.66916282 182.1367064 767.84819605 180.5234375 768.02734375 C179.7752475 768.10967758 179.0270575 768.19201141 178.25619507 768.27684021 C174.89126975 768.65232513 171.54833286 769.06661612 168.19775391 769.56079102 C164.76443508 770.03235466 161.46127203 770 158 770 C157.36320312 770.165 156.72640625 770.33 156.0703125 770.5 C153.12667479 771.21091628 150.32695373 771.02127176 147.31640625 770.9375 C144.98490078 770.93299322 144.98490078 770.93299322 142.68676758 771.47460938 C140.00614891 771.9987976 137.41812208 772.26631063 134.6953125 772.46875 C129.85292668 772.84819621 125.01558424 773.26453284 120.1796875 773.71875 C119.50327209 773.78215576 118.82685669 773.84556152 118.12994385 773.91088867 C116.74399429 774.04108307 115.35806912 774.17153742 113.97216797 774.30224609 C111.87083509 774.50039273 109.76940989 774.69753642 107.66796875 774.89453125 C102.05131033 775.42222959 96.43531952 775.9508673 90.82421875 776.53515625 C84.87209888 777.13681905 78.9049027 777.5217106 72.9375 777.9375 C60.20777224 778.85109611 47.635559 780.19492014 35 782 C35 820.28 35 858.56 35 898 C61.43410615 894.71100844 61.43410615 894.71100844 87.8125 891.0625 C89.60989827 890.80290126 91.40734429 890.54363294 93.20483398 890.28466797 C96.79886992 889.76653945 100.39270136 889.24703298 103.98632812 888.72607422 C111.1771832 887.68397832 118.36963157 886.65309471 125.5625 885.625 C126.55966034 885.48235214 126.55966034 885.48235214 127.57696533 885.33682251 C143.11021137 883.11576891 158.6489075 880.93327382 174.1875 878.75 C176.09391769 878.48186493 176.09391769 878.48186493 178.03884888 878.20831299 C181.6859622 877.69549995 185.33319561 877.18355 188.98046875 876.671875 C190.0748526 876.51792267 191.16923645 876.36397034 192.29678345 876.20535278 C193.32572723 876.06120941 194.35467102 875.91706604 195.41479492 875.76855469 C196.30406174 875.64373718 197.19332855 875.51891968 198.10954285 875.39031982 C201.73624076 874.90057996 205.36864487 874.45391939 209 874 C209 838.03 209 802.06 209 765 C206.10063887 765 203.15701185 765.51991553 200.2734375 765.83984375 Z M1035.00390625 790.8046875 C1033.80443359 790.97613281 1032.60496094 791.14757812 1031.36914062 791.32421875 C1030.11294922 791.50597656 1028.85675781 791.68773437 1027.5625 791.875 C1026.34111328 792.04902344 1025.11972656 792.22304688 1023.86132812 792.40234375 C1018.13276717 793.22550046 1012.41807019 794.08614761 1006.71484375 795.0703125 C1002.30095083 795.82097206 997.91329766 796.34756823 993.45605469 796.75390625 C989.1574675 797.18461956 984.8946001 797.84761027 980.625 798.5 C979.31208984 798.69529297 979.31208984 798.69529297 977.97265625 798.89453125 C974.24300991 799.45824879 970.66688824 800.08327794 967 801 C967 823.77 967 846.54 967 870 C977.34025772 868.17287764 977.34025772 868.17287764 987.68041992 866.34521484 C994.34343498 865.16822678 1001.00669438 863.99376456 1007.67578125 862.8515625 C1008.65409912 862.68366211 1009.63241699 862.51576172 1010.64038086 862.34277344 C1012.35563154 862.04936925 1014.07123854 861.75803249 1015.78735352 861.46972656 C1025.23850921 859.85121496 1034.58473944 857.88305211 1044 856 C1044 834.22 1044 812.44 1044 790 C1040.90777049 790 1038.06484955 790.36620401 1035.00390625 790.8046875 Z M921.8203125 806.5859375 C920.68517212 806.77373779 920.68517212 806.77373779 919.52709961 806.96533203 C918.73440674 807.10052246 917.94171387 807.23571289 917.125 807.375 C909.44234359 808.64507124 901.76377156 809.6892408 894.02734375 810.5703125 C891.08683301 810.8244649 891.08683301 810.8244649 889 812 C885.7 812.33 882.4 812.66 879 813 C870.42 814.32 861.84 815.64 853 817 C853 841.09 853 865.18 853 890 C860.10075392 889.35447692 866.88845493 888.62140934 873.85546875 887.328125 C874.75961014 887.16382996 875.66375153 886.99953491 876.59529114 886.83026123 C878.50071983 886.48291325 880.40572119 886.13321343 882.31030273 885.78125 C885.13486171 885.25971921 887.9608145 884.74640464 890.78710938 884.234375 C904.58223159 881.707901 918.26130344 878.86222845 932 876 C932 852.9 932 829.8 932 806 C926.81229095 805.99081046 926.81229095 805.99081046 921.8203125 806.5859375 Z M809.60864258 822.53491211 C808.77460403 822.65180893 807.94056549 822.76870575 807.08125305 822.8891449 C805.75132576 823.08130333 805.75132576 823.08130333 804.39453125 823.27734375 C803.01390755 823.47355064 803.01390755 823.47355064 801.60539246 823.67372131 C799.66612542 823.95027456 797.72710851 824.2285868 795.78833008 824.50854492 C792.81338609 824.93737227 789.83744521 825.35869721 786.86132812 825.77929688 C784.97649818 826.04903008 783.09173028 826.31919733 781.20703125 826.58984375 C779.86799492 826.77896584 779.86799492 826.77896584 778.50190735 826.97190857 C777.67732529 827.09195755 776.85274323 827.21200653 776.00317383 827.33569336 C774.91326897 827.49224648 774.91326897 827.49224648 773.80134583 827.65196228 C771.90758411 827.93395009 771.90758411 827.93395009 770 829 C767.89935265 829.20633917 765.79402491 829.36640386 763.6875 829.5 C759.1299447 829.78364089 759.1299447 829.78364089 754.625 830.4765625 C752.37022749 830.92617488 750.21024371 831.20776976 747.92578125 831.4296875 C747.17490234 831.50316406 746.42402344 831.57664062 745.65039062 831.65234375 C744.11187861 831.7988687 742.57280714 831.93965182 741.03320312 832.07421875 C734.84421725 832.69575095 730.20599504 834.13820149 724 836 C724 861.74 724 887.48 724 914 C728.59558149 913.34348836 733.11478204 912.64452995 737.671875 911.80078125 C738.95876221 911.56407715 740.24564941 911.32737305 741.5715332 911.08349609 C742.25124176 910.95803406 742.93095032 910.83257202 743.6312561 910.70330811 C753.49602123 908.8837252 763.36461802 907.09194509 773.25390625 905.41015625 C774.01466461 905.28073135 774.77542297 905.15130646 775.55923462 905.01795959 C779.19525846 904.40070144 782.83200519 903.78807764 786.46972656 903.1809082 C797.37447018 901.34061856 808.13916294 899.17216741 819 897 C819 872.25 819 847.5 819 822 C815.65841133 822 812.85056006 822.07430826 809.60864258 822.53491211 Z M678.5625 841.4375 C672.74567639 842.43108868 667.00429749 843.24734224 661.1171875 843.6875 C654.13073187 844.38789655 647.19625075 845.57786527 640.25976562 846.65625 C638.22273769 846.96611769 636.18183857 847.25027323 634.140625 847.53125 C631.20055761 847.91050386 631.20055761 847.91050386 629.17700195 848.484375 C626.47055427 849.12539973 623.79246911 849.41809596 621.02734375 849.71875 C619.88072266 849.84636719 618.73410156 849.97398437 617.55273438 850.10546875 C615.13871781 850.36891086 612.72465509 850.63193036 610.31054688 850.89453125 C609.16521484 851.02214844 608.01988281 851.14976562 606.83984375 851.28125 C605.79175537 851.39533203 604.74366699 851.50941406 603.66381836 851.62695312 C600.90334382 851.93132984 600.90334382 851.93132984 598 853 C596.04585108 853.25214825 594.09139009 853.5036905 592.1328125 853.71875 C589.73788805 854.03456421 587.36874718 854.52625056 585 855 C585 882.72 585 910.44 585 939 C598.33746841 937.09464737 611.57323044 935.11112423 624.8125 932.6875 C626.49255095 932.38297959 628.17264624 932.07870371 629.8527832 931.7746582 C642.09434322 929.55391492 654.3254796 927.27656414 666.5480957 924.95385742 C667.75296631 924.72545166 668.95783691 924.4970459 670.19921875 924.26171875 C671.22877686 924.06537842 672.25833496 923.86903809 673.3190918 923.66674805 C678.53621095 922.72173562 683.77012297 921.87164617 689 921 C689 894.27 689 867.54 689 840 C685.48027562 840 682.0234205 840.8347515 678.5625 841.4375 Z M538.5546875 860.5859375 C537.41604248 860.77349609 537.41604248 860.77349609 536.25439453 860.96484375 C535.46919434 861.10019531 534.68399414 861.23554687 533.875 861.375 C532.18242104 861.65443059 530.48971162 861.93307208 528.796875 862.2109375 C527.56420898 862.41541504 527.56420898 862.41541504 526.30664062 862.62402344 C522.11202327 863.30773541 517.90396142 863.89087443 513.6953125 864.48046875 C511.06373752 864.85044705 508.43394524 865.22760149 505.8046875 865.61328125 C496.99155414 866.89904869 488.1713408 868.11687345 479.33984375 869.26953125 C478.48814606 869.38079849 477.63644836 869.49206573 476.75894165 869.60670471 C472.43937576 870.17031477 468.11938997 870.7304543 463.79882812 871.28637695 C462.18749309 871.49555228 460.57616468 871.7047786 458.96484375 871.9140625 C457.8489109 872.05609856 457.8489109 872.05609856 456.71043396 872.20100403 C453.41133358 872.63133813 450.21253756 873.13487567 447 874 C444.5237212 874.35414937 442.04408684 874.68519017 439.5625 875 C435.3363475 875.53718721 431.16578085 876.10518426 427 877 C426.278125 877.144375 425.55625 877.28875 424.8125 877.4375 C422.77343377 877.91606861 422.77343377 877.91606861 421 880 C420.811826 882.83173095 420.7482662 885.56490752 420.77294922 888.39697266 C420.77265717 889.26533249 420.77236511 890.13369232 420.77206421 891.02836609 C420.77346083 893.90703218 420.78903758 896.78544146 420.8046875 899.6640625 C420.80841645 901.6566046 420.81126398 903.64914853 420.81326294 905.64169312 C420.82090868 910.89262939 420.84056523 916.14345548 420.8626709 921.39434814 C420.88310909 926.74986276 420.89226031 932.10539514 420.90234375 937.4609375 C420.92381025 947.97400681 420.95795751 958.48699425 421 969 C427.59159261 968.44192014 434.00796927 967.54040534 440.4921875 966.2421875 C442.34461704 965.88062333 444.19716159 965.51964799 446.04980469 965.15917969 C447.50283997 964.87488098 447.50283997 964.87488098 448.98522949 964.58483887 C454.19606232 963.57398329 459.41443291 962.6038266 464.6328125 961.6328125 C465.7202626 961.4302887 466.80771271 961.22776489 467.92811584 961.019104 C471.3268977 960.38676529 474.72591006 959.75568038 478.125 959.125 C479.88401138 958.79834351 479.88401138 958.79834351 481.67855835 958.46508789 C497.93348137 955.44980678 514.19809962 952.51439316 530.50634766 949.80126953 C541.42797562 948.89219619 541.42797562 948.89219619 551 945 C551.09511266 942.35261911 551.12555635 939.73140999 551.11352539 937.08374023 C551.11374443 935.83994095 551.11374443 935.83994095 551.1139679 934.5710144 C551.11326851 931.81684802 551.10547493 929.06274839 551.09765625 926.30859375 C551.09579216 924.40430234 551.09436822 922.50001045 551.09336853 920.59571838 C551.08954263 915.57332037 551.07971173 910.55095108 551.06866455 905.52856445 C551.05845198 900.4077188 551.05387124 895.28686852 551.04882812 890.16601562 C551.03808953 880.11066443 551.02101224 870.0553346 551 860 C549.73012238 859.99497467 548.46024475 859.98994934 547.15188599 859.98477173 C546.08042674 859.98053161 546.08042674 859.98053161 544.98732185 859.97620583 C542.79583711 860.00244444 540.71487203 860.21901495 538.5546875 860.5859375 Z M375.51171875 883.76953125 C374.25528564 883.93477295 372.99885254 884.10001465 371.7043457 884.27026367 C370.36535397 884.45068907 369.02640611 884.63144033 367.6875 884.8125 C367.01181976 884.90270416 366.33613953 884.99290833 365.63998413 885.08584595 C356.76113035 886.27390713 347.96319255 887.65736149 339.1796875 889.4140625 C335.41475741 890.10784569 331.68927186 890.46899875 327.875 890.75390625 C324.21541357 891.06715889 320.57847307 891.52245991 316.9375 892 C315.66777344 892.165 314.39804687 892.33 313.08984375 892.5 C310.0987061 892.8262333 310.0987061 892.8262333 308 894 C305.60355564 894.3315835 303.21714347 894.61769379 300.8125 894.875 C293.40829511 895.7082785 286.01489972 896.61050191 278.625 897.5625 C277.62057861 897.68931152 276.61615723 897.81612305 275.58129883 897.94677734 C274.63923584 898.06875488 273.69717285 898.19073242 272.7265625 898.31640625 C271.46706787 898.47798218 271.46706787 898.47798218 270.18212891 898.64282227 C267.82949161 898.96859688 267.82949161 898.96859688 265 900 C263.33333333 900 261.66666667 900 260 900 C259.34 900.33 258.68 900.66 258 901 C253.05 901.66 248.1 902.32 243 903 C243 935.67 243 968.34 243 1002 C270.77727147 997.23259414 270.77727147 997.23259414 298.39013672 991.92138672 C307.14670034 990.13933315 315.96552337 988.6699292 324.76821899 987.13647461 C330.37244124 986.1600305 335.9753023 985.17584444 341.578125 984.19140625 C342.66470901 984.00059479 343.75129303 983.80978333 344.87080383 983.6131897 C356.14500588 981.62950241 367.4025725 979.56196942 378.6496582 977.4296875 C381.4275664 976.92183267 384.21447342 976.46425443 387 976 C387 945.31 387 914.62 387 883 C383.00909407 883 379.44547426 883.252087 375.51171875 883.76953125 Z M201.625 908.9375 C196.67369622 909.96512909 191.80655477 910.38683286 186.76171875 910.65625 C182.37603853 911.05701829 178.06742371 911.7375958 173.71850586 912.42480469 C169.76348916 913.03658457 165.80415739 913.60093587 161.83984375 914.1484375 C160.77060417 914.29616859 160.77060417 914.29616859 159.67976379 914.44688416 C158.19684768 914.65135102 156.71389096 914.85552355 155.230896 915.05941772 C151.27982928 915.60310343 147.3294038 916.15141542 143.37890625 916.69921875 C142.19131714 916.86382347 142.19131714 916.86382347 140.97973633 917.03175354 C133.44379896 918.07649 125.90841097 919.12466967 118.375 920.1875 C117.26374756 920.34202637 116.15249512 920.49655273 115.00756836 920.65576172 C109.36635057 921.45563264 103.80276642 922.38489354 98.24072266 923.6262207 C96 924 96 924 93.34130859 923.99291992 C90.97634698 923.82661533 90.97634698 923.82661533 89 925 C87.14852238 925.15996767 85.29331319 925.27744787 83.4375 925.375 C78.26651193 925.73629174 73.28237002 926.42342895 68.1875 927.375 C57.18880614 929.32034721 46.083155 930.61460562 35 932 C35 967.31 35 1002.62 35 1039 C42.79853664 1038.25659559 42.79853664 1038.25659559 50.48364258 1037.1237793 C51.43616409 1036.95657883 52.38868561 1036.78937836 53.37007141 1036.61711121 C54.36814316 1036.4379567 55.3662149 1036.25880219 56.39453125 1036.07421875 C57.46257492 1035.88535599 58.53061859 1035.69649323 59.63102722 1035.50190735 C61.8844553 1035.10270943 64.13756927 1034.7017347 66.39038086 1034.29907227 C69.76413334 1033.69614368 73.13879223 1033.09853647 76.51367188 1032.50195312 C88.23130302 1030.42452235 99.93220959 1028.2741279 111.61889648 1026.02954102 C122.11234606 1024.01598155 132.61946937 1022.07433163 143.125 1020.125 C144.29568024 1019.90756134 145.46636047 1019.69012268 146.67251587 1019.46609497 C163.10464065 1016.4173265 179.54759931 1013.45626374 196.03369141 1010.71337891 C197.32581543 1010.4972998 198.61793945 1010.2812207 199.94921875 1010.05859375 C201.05612061 1009.87611084 202.16302246 1009.69362793 203.3034668 1009.50561523 C206.08422896 1009.04746513 206.08422896 1009.04746513 209 1008 C209 975 209 942 209 908 C206.2811305 908 204.25238829 908.33957277 201.625 908.9375 Z " fill="#FFFFFF" transform="translate(4,4)"/>
</svg>
