<?xml version="1.0" encoding="UTF-8"?>
<svg version="1.1" xmlns="http://www.w3.org/2000/svg" viewBox="0 0 1080 1080">
<path d="M0 0 C100.32 0 200.64 0 304 0 C304 100.32 304 200.64 304 304 C293.87488252 305.12501305 293.87488252 305.12501305 289.32226658 305.12863445 C287.76628517 305.13347112 287.76628517 305.13347112 286.17886978 305.1384055 C284.51016773 305.1360826 284.51016773 305.1360826 282.80775452 305.13371277 C281.00361522 305.1371111 281.00361522 305.1371111 279.16302866 305.14057809 C275.84654485 305.14579091 272.53011551 305.14656686 269.21363151 305.14538372 C265.62884696 305.14517881 262.04407035 305.15070673 258.45928955 305.15544128 C251.44735512 305.16372609 244.43542909 305.16649505 237.42349017 305.16705366 C231.72721019 305.16752942 226.03093297 305.16958716 220.33465385 305.17275429 C204.1840613 305.18155142 188.03347537 305.18617461 171.8828804 305.18542381 C171.01330477 305.18538386 170.14372914 305.1853439 169.24780273 305.18530273 C168.37716674 305.18526185 167.50653075 305.18522097 166.60951184 305.18517885 C152.47236365 305.18477164 138.33524198 305.19436253 124.19810147 305.2084411 C109.68166569 305.22278356 95.16524288 305.22971261 80.64879984 305.22884732 C72.49878119 305.22851484 64.34879043 305.23128519 56.19877815 305.24202538 C49.26705141 305.25110189 42.33536524 305.25332887 35.40363515 305.24651595 C31.86515581 305.24323754 28.32675445 305.24324151 24.78828239 305.2518692 C20.95993821 305.26110826 17.13170961 305.25499359 13.30335999 305.24723816 C11.61123535 305.2549535 11.61123535 305.2549535 9.88492638 305.26282471 C8.86585967 305.25822592 7.84679296 305.25362712 6.79684544 305.24888897 C5.4702059 305.24921502 5.4702059 305.24921502 4.11676556 305.24954766 C2 305 2 305 0 303 C-0.24839699 300.80875814 -0.24839699 300.80875814 -0.24609566 298.02184105 C-0.25206827 296.43216452 -0.25206827 296.43216452 -0.25816154 294.81037331 C-0.25233622 293.63757505 -0.24651089 292.4647768 -0.24050903 291.25643921 C-0.24222107 290.02041458 -0.24393311 288.78438995 -0.24569702 287.51091003 C-0.24844095 284.0620993 -0.24213255 280.6135131 -0.23214546 277.16472933 C-0.22344112 273.39534559 -0.22633276 269.62596796 -0.2277813 265.85657692 C-0.22884668 258.53231415 -0.21959199 251.20810022 -0.20677864 243.88385002 C-0.19240633 235.41580724 -0.19079066 226.94779401 -0.18920898 218.47973633 C-0.17869852 196.11148312 -0.15077643 173.74324083 -0.125 151.375 C-0.08375 101.42125 -0.0425 51.4675 0 0 Z " fill="#FFFFFF" transform="translate(766,381)"/>
<path d="M0 0 C100.32 0 200.64 0 304 0 C304 100.32 304 200.64 304 304 C203.68 304 103.36 304 0 304 C0 203.68 0 103.36 0 0 Z " fill="#FFFFFF" transform="translate(388,766)"/>
<path d="M0 0 C100.32 0 200.64 0 304 0 C304 100.32 304 200.64 304 304 C203.68 304 103.36 304 0 304 C0 203.68 0 103.36 0 0 Z " fill="#FFFFFF" transform="translate(10,766)"/>
<path d="M0 0 C100.32 0 200.64 0 304 0 C304 100.32 304 200.64 304 304 C203.68 304 103.36 304 0 304 C0 203.68 0 103.36 0 0 Z " fill="#FFFFFF" transform="translate(388,10)"/>
<path d="M0 0 C100.32 0 200.64 0 304 0 C304 100.32 304 200.64 304 304 C203.68 304 103.36 304 0 304 C0 203.68 0 103.36 0 0 Z M40 40 C40 113.92 40 187.84 40 264 C113.92 264 187.84 264 264 264 C264 190.08 264 116.16 264 40 C190.08 40 116.16 40 40 40 Z " fill="#FFFFFF" transform="translate(766,766)"/>
<path d="M0 0 C100.32 0 200.64 0 304 0 C304 100.32 304 200.64 304 304 C203.68 304 103.36 304 0 304 C0 203.68 0 103.36 0 0 Z M40 40 C40 113.92 40 187.84 40 264 C113.92 264 187.84 264 264 264 C264 190.08 264 116.16 264 40 C190.08 40 116.16 40 40 40 Z " fill="#FFFFFF" transform="translate(766,10)"/>
<path d="M0 0 C100.32 0 200.64 0 304 0 C304 100.32 304 200.64 304 304 C203.68 304 103.36 304 0 304 C0 203.68 0 103.36 0 0 Z M40 40 C40 113.92 40 187.84 40 264 C113.92 264 187.84 264 264 264 C264 190.08 264 116.16 264 40 C190.08 40 116.16 40 40 40 Z " fill="#FFFFFF" transform="translate(10,10)"/>
<path d="M0 0 C100.32 0 200.64 0 304 0 C304 100.32 304 200.64 304 304 C299.58266413 304.63104798 295.90305953 305.12518886 291.55553818 305.12863445 C290.51933264 305.1318589 289.48312709 305.13508335 288.41552138 305.1384055 C287.29401883 305.1368569 286.17251628 305.1353083 285.01702881 305.13371277 C283.81260014 305.13597833 282.60817147 305.13824388 281.36724496 305.14057809 C278.03677162 305.14580243 274.70635239 305.14656486 271.37587881 305.14538372 C267.77945159 305.14517922 264.18303236 305.15070288 260.58660889 305.15544128 C253.54732756 305.16373603 246.50805461 305.16649554 239.46876881 305.16705366 C233.74956628 305.1675291 228.03036651 305.1695852 222.31116486 305.17275429 C206.09848414 305.18155533 189.88581003 305.18617418 173.67312691 305.18542381 C172.36298085 305.18536388 172.36298085 305.18536388 171.02636719 305.18530273 C169.71462424 305.18524141 169.71462424 305.18524141 168.37638143 305.18517885 C154.1848162 305.18477187 139.99327744 305.19435596 125.80171987 305.2084411 C111.23223201 305.22278748 96.66275707 305.22971234 82.09326196 305.22884732 C73.91244147 305.2285149 65.73164879 305.23128234 57.55083466 305.24202538 C50.59054179 305.25110721 43.63028934 305.25332456 36.66999313 305.24651595 C33.11722704 305.24323983 29.5645386 305.24323334 26.01177979 305.2518692 C22.16616228 305.26112123 18.32065957 305.2549873 14.47503662 305.24723816 C13.34461118 305.25238172 12.21418575 305.25752529 11.049505 305.26282471 C10.02373044 305.25822592 8.99795589 305.25362712 7.94109726 305.24888897 C7.05292871 305.24910634 6.16476017 305.24932371 5.24967742 305.24954766 C3 305 3 305 0 303 C-0.37259549 300.80875814 -0.37259549 300.80875814 -0.36914349 298.02184105 C-0.3751161 296.96205669 -0.38108871 295.90227234 -0.38724232 294.81037331 C-0.37850432 293.63757505 -0.36976633 292.4647768 -0.36076355 291.25643921 C-0.3633316 290.02041458 -0.36589966 288.78438995 -0.36854553 287.51091003 C-0.37266155 284.06199453 -0.36319913 280.61358419 -0.34821819 277.16472933 C-0.33516169 273.39534608 -0.33949914 269.62597658 -0.34167194 265.85657692 C-0.34327003 258.53228855 -0.32938801 251.2081101 -0.31016796 243.88385002 C-0.28860948 235.41580113 -0.286186 226.94781873 -0.28381348 218.47973633 C-0.26804778 196.1114734 -0.22616464 173.74323507 -0.1875 151.375 C-0.125625 101.42125 -0.06375 51.4675 0 0 Z M40 39 C40 113.25 40 187.5 40 264 C113.92 264 187.84 264 264 264 C264 189.75 264 115.5 264 39 C190.08 39 116.16 39 40 39 Z " fill="#FFFFFF" transform="translate(388,381)"/>
<path d="M0 0 C100.32 0 200.64 0 304 0 C304 100.32 304 200.64 304 304 C299.58266413 304.63104798 295.90305953 305.12518886 291.55553818 305.12863445 C290.51933264 305.1318589 289.48312709 305.13508335 288.41552138 305.1384055 C287.29401883 305.1368569 286.17251628 305.1353083 285.01702881 305.13371277 C283.81260014 305.13597833 282.60817147 305.13824388 281.36724496 305.14057809 C278.03677162 305.14580243 274.70635239 305.14656486 271.37587881 305.14538372 C267.77945159 305.14517922 264.18303236 305.15070288 260.58660889 305.15544128 C253.54732756 305.16373603 246.50805461 305.16649554 239.46876881 305.16705366 C233.74956628 305.1675291 228.03036651 305.1695852 222.31116486 305.17275429 C206.09848414 305.18155533 189.88581003 305.18617418 173.67312691 305.18542381 C172.36298085 305.18536388 172.36298085 305.18536388 171.02636719 305.18530273 C169.71462424 305.18524141 169.71462424 305.18524141 168.37638143 305.18517885 C154.1848162 305.18477187 139.99327744 305.19435596 125.80171987 305.2084411 C111.23223201 305.22278748 96.66275707 305.22971234 82.09326196 305.22884732 C73.91244147 305.2285149 65.73164879 305.23128234 57.55083466 305.24202538 C50.59054179 305.25110721 43.63028934 305.25332456 36.66999313 305.24651595 C33.11722704 305.24323983 29.5645386 305.24323334 26.01177979 305.2518692 C22.16616228 305.26112123 18.32065957 305.2549873 14.47503662 305.24723816 C13.34461118 305.25238172 12.21418575 305.25752529 11.049505 305.26282471 C10.02373044 305.25822592 8.99795589 305.25362712 7.94109726 305.24888897 C7.05292871 305.24910634 6.16476017 305.24932371 5.24967742 305.24954766 C3 305 3 305 0 303 C-0.37259549 300.80875814 -0.37259549 300.80875814 -0.36914349 298.02184105 C-0.3751161 296.96205669 -0.38108871 295.90227234 -0.38724232 294.81037331 C-0.37850432 293.63757505 -0.36976633 292.4647768 -0.36076355 291.25643921 C-0.3633316 290.02041458 -0.36589966 288.78438995 -0.36854553 287.51091003 C-0.37266155 284.06199453 -0.36319913 280.61358419 -0.34821819 277.16472933 C-0.33516169 273.39534608 -0.33949914 269.62597658 -0.34167194 265.85657692 C-0.34327003 258.53228855 -0.32938801 251.2081101 -0.31016796 243.88385002 C-0.28860948 235.41580113 -0.286186 226.94781873 -0.28381348 218.47973633 C-0.26804778 196.1114734 -0.22616464 173.74323507 -0.1875 151.375 C-0.125625 101.42125 -0.06375 51.4675 0 0 Z M40 39 C40 113.25 40 187.5 40 264 C113.92 264 187.84 264 264 264 C264 189.75 264 115.5 264 39 C190.08 39 116.16 39 40 39 Z " fill="#FFFFFF" transform="translate(10,381)"/>
</svg>
