<?xml version="1.0" encoding="UTF-8"?>
<svg version="1.1" xmlns="http://www.w3.org/2000/svg" width="450" height="450">
<path d="M0 0 C1.17504089 -0.00671722 2.35008179 -0.01343445 3.56072998 -0.02035522 C7.4300158 -0.03929245 11.29912781 -0.04325712 15.16845703 -0.04541016 C16.50800782 -0.04825983 17.84755792 -0.05145226 19.18710709 -0.05498123 C26.20125285 -0.07344604 33.21532293 -0.08165613 40.22949219 -0.08007812 C46.74384954 -0.07887703 53.25787544 -0.09998191 59.77214897 -0.13156545 C65.3860239 -0.15780324 70.99979103 -0.16844233 76.61372674 -0.16716731 C79.95753037 -0.16665995 83.30080491 -0.17408599 86.64458847 -0.19352341 C90.37791963 -0.21319596 94.11040419 -0.2073395 97.84375 -0.1953125 C98.93601898 -0.20655151 100.02828796 -0.21779053 101.15365601 -0.22937012 C109.44505103 -0.16175517 116.4984923 1.34247815 122.98876953 6.72802734 C128.06228171 13.03148187 129.20022081 17.81899075 129.19844055 25.79092407 C129.20211724 26.66918456 129.20579393 27.54744506 129.20958203 28.4523195 C129.2206302 31.40702094 129.22446465 34.36168723 129.22827148 37.31640625 C129.23453533 39.43029899 129.24118206 41.54419063 129.2481842 43.65808105 C129.2656024 49.41038654 129.27614846 55.1626837 129.28438973 60.91500902 C129.28953874 64.50868277 129.29561455 68.10235393 129.30190086 71.69602585 C129.32095625 82.93912183 129.33518599 94.18221124 129.34351283 105.42532027 C129.35328394 118.40447356 129.37959886 131.38345625 129.42001373 144.36254942 C129.45017592 154.39324228 129.46498186 164.42388625 129.46829385 174.45462358 C129.47064442 180.44593709 129.47960588 186.43706841 129.50475502 192.42833328 C129.52804202 198.06721985 129.53226626 203.70580437 129.52199364 209.34472656 C129.52149831 211.41148254 129.52781788 213.47825342 129.54154968 215.54496384 C129.55928505 218.37307897 129.55215418 221.20011206 129.53901672 224.02822876 C129.55547059 225.24650311 129.55547059 225.24650311 129.57225686 226.48938906 C129.40391547 241.5656135 116.78157786 256.05238854 106.91064453 266.57177734 C98.27252198 274.59774947 89.53858204 274.76003138 78.17626953 274.91552734 C64.41135095 273.89899559 64.41135095 273.89899559 52.05126953 277.29052734 C51.95338357 279.59930028 51.92610535 281.91107691 51.92529297 284.22192383 C51.92342484 284.94727829 51.9215567 285.67263275 51.91963196 286.41996765 C51.9156174 288.00180645 51.91355216 289.58365108 51.91316986 291.16549492 C51.90975886 294.53705046 51.88839147 297.9084124 51.867939 301.27990055 C51.82993973 307.560078 51.79864291 313.84005592 51.80078125 320.12036133 C51.80157236 324.48548847 51.77802662 328.84991656 51.73889923 333.21486092 C51.72848939 334.87284253 51.72687798 336.53090536 51.73455048 338.1889019 C51.78594418 350.53741325 50.16722885 359.49593155 41.38330078 368.72021484 C39.90418539 370.46392273 39.05915371 372.24607936 38.05126953 374.29052734 C36.43152394 376.00282982 34.75537493 377.66215996 33.05126953 379.29052734 C32.52275391 379.86287109 31.99423828 380.43521484 31.44970703 381.02490234 C26.49496846 386.31900657 20.24514804 391.00415239 12.71827316 391.4191618 C11.7935886 391.42083764 10.86890404 391.42251348 9.91619873 391.42424011 C8.85359329 391.4285051 7.79098785 391.43277008 6.69618225 391.43716431 C5.5304216 391.43671112 4.36466095 391.43625793 3.16357422 391.43579102 C1.93567673 391.43914963 0.70777924 391.44250824 -0.55732727 391.44596863 C-3.92736574 391.4538497 -7.2973426 391.45714678 -10.66738605 391.45778441 C-12.77422919 391.45849521 -14.88106588 391.46063013 -16.98790741 391.46328163 C-24.34220286 391.47253644 -31.69648017 391.47661655 -39.05078125 391.47583008 C-45.89842637 391.47522996 -52.74599253 391.48576842 -59.59361768 391.50157374 C-65.47739445 391.51466875 -71.36114548 391.52001312 -77.2449367 391.51937467 C-80.75679724 391.51912016 -84.26858768 391.52194493 -87.78043365 391.53255272 C-91.7014725 391.54407259 -95.62240404 391.53947486 -99.54345703 391.53344727 C-101.27995262 391.54187653 -101.27995262 391.54187653 -103.05152893 391.55047607 C-110.66209691 391.52074994 -117.71821172 391.43817072 -123.60785866 385.90896034 C-131.03940344 376.93908178 -129.52790421 364.51383708 -129.49804688 353.609375 C-129.50675041 351.50916319 -129.51711981 349.40895772 -129.52902222 347.3087616 C-129.55572478 341.62477298 -129.55696831 335.94105097 -129.55189562 330.25701189 C-129.54975096 325.50318667 -129.55953625 320.74941481 -129.56910646 315.99560106 C-129.59126993 304.7761606 -129.59218665 293.55685408 -129.58007812 282.33740234 C-129.56799861 270.78222904 -129.59262628 259.22754279 -129.63521826 247.67245257 C-129.67050022 237.73326067 -129.68244517 227.79422347 -129.67594278 217.85497129 C-129.67232476 211.92676564 -129.67751225 205.99890749 -129.70537186 200.07075882 C-129.73060135 194.4939819 -129.72657297 188.91796193 -129.70055008 183.34119606 C-129.69583516 181.30150275 -129.70122829 179.26175556 -129.71779633 177.2221241 C-129.88940577 154.44309428 -129.88940577 154.44309428 -121.40230751 145.69689369 C-119.96064542 144.50748796 -118.45562777 143.39612044 -116.94873047 142.29052734 C-115.16492768 140.24335329 -113.59818966 138.05454112 -112.01123047 135.85302734 C-106.28736534 128.2090637 -101.396304 122.89692768 -91.94873047 120.29052734 C-88.84035476 119.87291214 -85.76991425 119.80347516 -82.63623047 119.77880859 C-81.7819043 119.76085739 -80.92757812 119.74290619 -80.04736328 119.72441101 C-77.3478676 119.67070116 -74.64854465 119.63653995 -71.94873047 119.60302734 C-70.10625871 119.56981944 -68.26380964 119.53532661 -66.42138672 119.49951172 C-61.93062678 119.41499791 -57.43991455 119.34800078 -52.94873047 119.29052734 C-51.97952642 115.22030482 -51.81278563 111.40340391 -51.79101562 107.22460938 C-51.78593491 106.53286621 -51.78085419 105.84112305 -51.77561951 105.12841797 C-51.76495728 103.63286713 -51.75632101 102.13730074 -51.74950027 100.64172745 C-51.73765225 98.27017301 -51.71818511 95.89879589 -51.69638062 93.52731323 C-51.63495908 86.78682391 -51.5807538 80.04635535 -51.54736328 73.30566406 C-51.52636061 69.17596374 -51.49101692 65.04659191 -51.44660568 60.91707993 C-51.43249449 59.34873201 -51.42373432 57.78032604 -51.4205513 56.21191788 C-51.41561487 54.01267599 -51.39238981 51.81429896 -51.36523438 49.61523438 C-51.35714752 48.36678741 -51.34906067 47.11834045 -51.34072876 45.83206177 C-50.62033572 39.32362334 -47.83738803 34.73811632 -43.57373047 29.79052734 C-37.24565191 22.65682584 -37.24565191 22.65682584 -32.94873047 14.29052734 C-32.28873047 13.96052734 -31.62873047 13.63052734 -30.94873047 13.29052734 C-30.39185547 12.20771484 -30.39185547 12.20771484 -29.82373047 11.10302734 C-26.00653992 5.37724152 -21.03991391 2.29971335 -14.37891769 0.70812607 C-9.61486539 -0.11051957 -4.82150673 -0.00398614 0 0 Z " fill="#E9E9E8" transform="translate(229.94873046875,22.70947265625)"/>
<path d="M0 0 C1.20228745 -0.00365067 2.40457489 -0.00730133 3.64329529 -0.01106262 C6.92842902 -0.01776479 10.21319077 -0.0110765 13.49829412 0.00226951 C16.94193242 0.01361891 20.38555673 0.00947387 23.82920837 0.00752258 C29.61014683 0.00664083 35.39096776 0.01769614 41.171875 0.03613281 C47.84979481 0.05730868 54.52754263 0.06080749 61.20548922 0.05457085 C67.63836816 0.04887134 74.0711867 0.05452912 80.50405693 0.0657444 C83.23799192 0.0703816 85.97188987 0.07126807 88.70582771 0.06915855 C92.52403779 0.06878815 96.34198554 0.08140149 100.16015625 0.09765625 C101.29224518 0.09517883 102.42433411 0.09270142 103.59072876 0.09014893 C104.63228622 0.09723373 105.67384369 0.10431854 106.7469635 0.11161804 C107.64898026 0.11367091 108.55099703 0.11572378 109.48034763 0.11783886 C113.98731244 0.57026391 116.25308326 1.51241859 119.29571438 4.94460297 C121.45854961 9.25565703 121.57807022 12.46612145 121.53004456 17.21569824 C121.53699008 18.09455515 121.54393561 18.97341207 121.55109161 19.878901 C121.5693578 22.8177204 121.55909835 25.7557322 121.54882812 28.69458008 C121.55588673 30.80393579 121.5646315 32.91328643 121.57493591 35.02262878 C121.59744472 40.74778332 121.5944868 46.4726616 121.58561444 52.19784355 C121.58050626 56.97688441 121.58779566 61.75587327 121.59508651 66.53490877 C121.6120899 77.80774253 121.60851473 89.08044092 121.59179688 100.35327148 C121.57486895 111.9856824 121.59071856 123.61771825 121.62301975 135.25008821 C121.64970097 145.23666045 121.65699578 155.22311583 121.64850467 165.20972013 C121.64357197 171.1746322 121.64581011 177.13931848 121.66629219 183.10420227 C121.68462643 188.71203082 121.67871778 194.31931892 121.65409279 199.9271183 C121.64907807 201.98544863 121.65259172 204.04381997 121.66524124 206.10211754 C121.68114227 208.91167884 121.66624886 211.71945399 121.64356995 214.52893066 C121.65540567 215.34391478 121.6672414 216.1588989 121.67943579 216.9985795 C121.61382856 220.99761994 121.2251721 223.64163371 118.76021671 226.87102985 C115.99353678 229.39222029 115.10047346 230.13295349 111.46981812 230.23625183 C110.59585766 230.27348547 109.7218972 230.31071911 108.82145309 230.34908104 C107.89544926 230.35674807 106.96944542 230.36441509 106.01538086 230.37231445 C105.07800709 230.3987887 104.14063332 230.42526295 103.17485428 230.45253944 C100.0306495 230.52349116 96.88936538 230.54161851 93.74438477 230.54931641 C92.55941406 230.5558876 91.37444336 230.5624588 90.15356445 230.56922913 C86.26635665 230.58880443 82.37918696 230.60058185 78.49194336 230.6105957 C77.14668128 230.61464963 75.80141938 230.61876672 74.45615768 230.62294579 C68.1450643 230.641927 61.83398223 230.65618409 55.52286589 230.66455775 C48.2533449 230.67436616 40.98412545 230.70080808 33.71471083 230.74105865 C28.07882195 230.77119065 22.4430199 230.78602299 16.80705202 230.78933877 C13.4467478 230.79168841 10.08676848 230.80064051 6.72655106 230.82579994 C2.98745426 230.85001982 -0.75083985 230.84925879 -4.48999023 230.84228516 C-6.15603806 230.86150024 -6.15603806 230.86150024 -7.85574341 230.88110352 C-9.38210419 230.87068779 -9.38210419 230.87068779 -10.93930054 230.86006165 C-11.82229513 230.86245 -12.70528973 230.86483835 -13.61504173 230.86729908 C-16.78643509 230.2048219 -17.97151441 228.85765057 -19.98461914 226.37231445 C-21.25900857 222.54914617 -21.129295 218.95601468 -21.12506104 214.97235107 C-21.12803216 214.10493011 -21.13100328 213.23750914 -21.13406444 212.34380269 C-21.14276297 209.42588808 -21.14426066 206.50801445 -21.14575195 203.59008789 C-21.15037933 201.50250663 -21.15540388 199.41492622 -21.16079712 197.3273468 C-21.17393134 191.64748384 -21.18036813 185.9676327 -21.18480778 180.28775692 C-21.187737 176.7403313 -21.19184154 173.19290892 -21.19631195 169.64548492 C-21.2099899 158.54975739 -21.21965496 147.45403726 -21.22351384 136.35830188 C-21.22799473 123.54386056 -21.24554285 110.72952591 -21.27451444 97.91511703 C-21.29612259 88.01438991 -21.30621767 78.11369281 -21.30755496 68.21294236 C-21.30860366 62.29774011 -21.3145252 56.38263809 -21.33237457 50.46746063 C-21.34884009 44.90248558 -21.35101807 39.33768625 -21.34223557 33.77269554 C-21.34146437 31.73090584 -21.3458188 29.68910674 -21.35569382 27.64734077 C-21.3683921 24.85808845 -21.36254791 22.06946043 -21.35211182 19.2802124 C-21.36016822 18.47387666 -21.36822463 17.66754093 -21.37652516 16.83677077 C-21.3310072 11.62832574 -20.44244453 7.99235791 -17.98461914 3.37231445 C-12.72289362 -0.75822256 -6.38127816 -0.04316285 0 0 Z " fill="#E7E7E7" transform="translate(150.984619140625,151.627685546875)"/>
<path d="M0 0 C1.17504089 -0.00671722 2.35008179 -0.01343445 3.56072998 -0.02035522 C7.4300158 -0.03929245 11.29912781 -0.04325712 15.16845703 -0.04541016 C16.50800782 -0.04825983 17.84755792 -0.05145226 19.18710709 -0.05498123 C26.20125285 -0.07344604 33.21532293 -0.08165613 40.22949219 -0.08007812 C46.74384954 -0.07887703 53.25787544 -0.09998191 59.77214897 -0.13156545 C65.3860239 -0.15780324 70.99979103 -0.16844233 76.61372674 -0.16716731 C79.95753037 -0.16665995 83.30080491 -0.17408599 86.64458847 -0.19352341 C90.37791963 -0.21319596 94.11040419 -0.2073395 97.84375 -0.1953125 C98.93601898 -0.20655151 100.02828796 -0.21779053 101.15365601 -0.22937012 C109.44505103 -0.16175517 116.4984923 1.34247815 122.98876953 6.72802734 C128.06228171 13.03148187 129.20022081 17.81899075 129.19844055 25.79092407 C129.20211724 26.66918456 129.20579393 27.54744506 129.20958203 28.4523195 C129.2206302 31.40702094 129.22446465 34.36168723 129.22827148 37.31640625 C129.23453533 39.43029899 129.24118206 41.54419063 129.2481842 43.65808105 C129.2656024 49.41038654 129.27614846 55.1626837 129.28438973 60.91500902 C129.28953874 64.50868277 129.29561455 68.10235393 129.30190086 71.69602585 C129.32095625 82.93912183 129.33518599 94.18221124 129.34351283 105.42532027 C129.35328394 118.40447356 129.37959886 131.38345625 129.42001373 144.36254942 C129.45017592 154.39324228 129.46498186 164.42388625 129.46829385 174.45462358 C129.47064442 180.44593709 129.47960588 186.43706841 129.50475502 192.42833328 C129.52804202 198.06721985 129.53226626 203.70580437 129.52199364 209.34472656 C129.52149831 211.41148254 129.52781788 213.47825342 129.54154968 215.54496384 C129.55928505 218.37307897 129.55215418 221.20011206 129.53901672 224.02822876 C129.55547059 225.24650311 129.55547059 225.24650311 129.57225686 226.48938906 C129.40391547 241.5656135 116.78157786 256.05238854 106.91064453 266.57177734 C98.27252198 274.59774947 89.53858204 274.76003138 78.17626953 274.91552734 C64.41135095 273.89899559 64.41135095 273.89899559 52.05126953 277.29052734 C51.95338357 279.59930028 51.92610535 281.91107691 51.92529297 284.22192383 C51.92342484 284.94727829 51.9215567 285.67263275 51.91963196 286.41996765 C51.9156174 288.00180645 51.91355216 289.58365108 51.91316986 291.16549492 C51.90975886 294.53705046 51.88839147 297.9084124 51.867939 301.27990055 C51.82993973 307.560078 51.79864291 313.84005592 51.80078125 320.12036133 C51.80157236 324.48548847 51.77802662 328.84991656 51.73889923 333.21486092 C51.72848939 334.87284253 51.72687798 336.53090536 51.73455048 338.1889019 C51.78594418 350.53741325 50.16722885 359.49593155 41.38330078 368.72021484 C39.90418539 370.46392273 39.05915371 372.24607936 38.05126953 374.29052734 C36.43152394 376.00282982 34.75537493 377.66215996 33.05126953 379.29052734 C32.52275391 379.86287109 31.99423828 380.43521484 31.44970703 381.02490234 C26.49496846 386.31900657 20.24514804 391.00415239 12.71827316 391.4191618 C11.7935886 391.42083764 10.86890404 391.42251348 9.91619873 391.42424011 C8.85359329 391.4285051 7.79098785 391.43277008 6.69618225 391.43716431 C5.5304216 391.43671112 4.36466095 391.43625793 3.16357422 391.43579102 C1.93567673 391.43914963 0.70777924 391.44250824 -0.55732727 391.44596863 C-3.92736574 391.4538497 -7.2973426 391.45714678 -10.66738605 391.45778441 C-12.77422919 391.45849521 -14.88106588 391.46063013 -16.98790741 391.46328163 C-24.34220286 391.47253644 -31.69648017 391.47661655 -39.05078125 391.47583008 C-45.89842637 391.47522996 -52.74599253 391.48576842 -59.59361768 391.50157374 C-65.47739445 391.51466875 -71.36114548 391.52001312 -77.2449367 391.51937467 C-80.75679724 391.51912016 -84.26858768 391.52194493 -87.78043365 391.53255272 C-91.7014725 391.54407259 -95.62240404 391.53947486 -99.54345703 391.53344727 C-101.27995262 391.54187653 -101.27995262 391.54187653 -103.05152893 391.55047607 C-110.66209691 391.52074994 -117.71821172 391.43817072 -123.60785866 385.90896034 C-131.03940344 376.93908178 -129.52790421 364.51383708 -129.49804688 353.609375 C-129.50675041 351.50916319 -129.51711981 349.40895772 -129.52902222 347.3087616 C-129.55572478 341.62477298 -129.55696831 335.94105097 -129.55189562 330.25701189 C-129.54975096 325.50318667 -129.55953625 320.74941481 -129.56910646 315.99560106 C-129.59126993 304.7761606 -129.59218665 293.55685408 -129.58007812 282.33740234 C-129.56799861 270.78222904 -129.59262628 259.22754279 -129.63521826 247.67245257 C-129.67050022 237.73326067 -129.68244517 227.79422347 -129.67594278 217.85497129 C-129.67232476 211.92676564 -129.67751225 205.99890749 -129.70537186 200.07075882 C-129.73060135 194.4939819 -129.72657297 188.91796193 -129.70055008 183.34119606 C-129.69583516 181.30150275 -129.70122829 179.26175556 -129.71779633 177.2221241 C-129.88940577 154.44309428 -129.88940577 154.44309428 -121.40230751 145.69689369 C-119.96064542 144.50748796 -118.45562777 143.39612044 -116.94873047 142.29052734 C-115.16492768 140.24335329 -113.59818966 138.05454112 -112.01123047 135.85302734 C-106.28736534 128.2090637 -101.396304 122.89692768 -91.94873047 120.29052734 C-88.84035476 119.87291214 -85.76991425 119.80347516 -82.63623047 119.77880859 C-81.7819043 119.76085739 -80.92757812 119.74290619 -80.04736328 119.72441101 C-77.3478676 119.67070116 -74.64854465 119.63653995 -71.94873047 119.60302734 C-70.10625871 119.56981944 -68.26380964 119.53532661 -66.42138672 119.49951172 C-61.93062678 119.41499791 -57.43991455 119.34800078 -52.94873047 119.29052734 C-51.97952642 115.22030482 -51.81278563 111.40340391 -51.79101562 107.22460938 C-51.78593491 106.53286621 -51.78085419 105.84112305 -51.77561951 105.12841797 C-51.76495728 103.63286713 -51.75632101 102.13730074 -51.74950027 100.64172745 C-51.73765225 98.27017301 -51.71818511 95.89879589 -51.69638062 93.52731323 C-51.63495908 86.78682391 -51.5807538 80.04635535 -51.54736328 73.30566406 C-51.52636061 69.17596374 -51.49101692 65.04659191 -51.44660568 60.91707993 C-51.43249449 59.34873201 -51.42373432 57.78032604 -51.4205513 56.21191788 C-51.41561487 54.01267599 -51.39238981 51.81429896 -51.36523438 49.61523438 C-51.35714752 48.36678741 -51.34906067 47.11834045 -51.34072876 45.83206177 C-50.62033572 39.32362334 -47.83738803 34.73811632 -43.57373047 29.79052734 C-37.24565191 22.65682584 -37.24565191 22.65682584 -32.94873047 14.29052734 C-32.28873047 13.96052734 -31.62873047 13.63052734 -30.94873047 13.29052734 C-30.39185547 12.20771484 -30.39185547 12.20771484 -29.82373047 11.10302734 C-26.00653992 5.37724152 -21.03991391 2.29971335 -14.37891769 0.70812607 C-9.61486539 -0.11051957 -4.82150673 -0.00398614 0 0 Z M-21.94873047 14.29052734 C-22.9342411 17.09485536 -23.07262571 19.68759012 -23.06898499 22.64385986 C-23.07035965 23.50760223 -23.07173431 24.3713446 -23.07315063 25.26126099 C-23.06955536 26.20065521 -23.06596008 27.14004944 -23.06225586 28.10791016 C-23.06240189 29.10335846 -23.06254791 30.09880676 -23.06269836 31.12442017 C-23.06200179 34.4141864 -23.05422127 37.703896 -23.04638672 40.99365234 C-23.04452163 43.2748003 -23.04309816 45.55594866 -23.042099 47.83709717 C-23.03828095 53.84091294 -23.02845671 59.84470453 -23.01739502 65.84851074 C-23.00716561 71.97501295 -23.0025981 78.10151906 -22.99755859 84.22802734 C-22.98683383 96.24887131 -22.96976592 108.26969731 -22.94873047 120.29052734 C-22.26714371 120.30083481 -21.58555695 120.31114227 -20.88331604 120.32176208 C-13.76123393 120.43031086 -6.63926605 120.54486657 0.48266602 120.6628418 C3.13726663 120.7065123 5.79187281 120.7477214 8.4465332 120.7878418 C12.27188643 120.8459212 16.09711554 120.90950558 19.92236328 120.97412109 C21.10084335 120.99083359 22.27932343 121.00754608 23.49351501 121.02476501 C29.74758003 121.13609092 35.84778912 121.48087663 42.05126953 122.29052734 C42.38126953 123.28052734 42.71126953 124.27052734 43.05126953 125.29052734 C43.67001953 125.86802734 44.28876953 126.44552734 44.92626953 127.04052734 C50.37654979 132.81141232 50.4950605 139.09504779 50.48364258 146.63208008 C50.49893005 148.15517036 50.49893005 148.15517036 50.51452637 149.70903015 C50.54459214 153.0474504 50.55391271 156.38558339 50.56298828 159.72412109 C50.57983968 162.0458318 50.59799054 164.3675334 50.61738586 166.68922424 C50.66484164 172.78666338 50.69467981 178.88406563 50.7208252 184.98162842 C50.75065287 191.20901779 50.79717569 197.43628011 50.84228516 203.66357422 C50.9282681 215.87249207 50.99563583 228.08143611 51.05126953 240.29052734 C59.10052054 240.31367155 67.14975771 240.33145306 75.19903374 240.34233952 C78.93641203 240.34756378 82.6737676 240.35465318 86.41113281 240.3659668 C90.0161677 240.37681184 93.62118069 240.38280762 97.22623062 240.38540459 C98.60337799 240.38725591 99.98052412 240.39087095 101.3576622 240.3962574 C103.28270047 240.40348915 105.20776065 240.40393558 107.1328125 240.40405273 C108.22979462 240.40627335 109.32677673 240.40849396 110.45700073 240.41078186 C113.03640177 240.4668438 113.03640177 240.4668438 115.05126953 239.29052734 C115.05126953 238.63052734 115.05126953 237.97052734 115.05126953 237.29052734 C115.67001953 237.20802734 116.28876953 237.12552734 116.92626953 237.04052734 C119.12347023 236.48838771 119.12347023 236.48838771 120.16778851 234.77895927 C121.46241642 231.13248204 121.32964708 227.54747952 121.31196594 223.72561646 C121.31579149 222.85255195 121.31961704 221.97948744 121.32355851 221.07996643 C121.3338928 218.14895316 121.32989552 215.21813564 121.32592773 212.28710938 C121.33027399 210.18790505 121.33545685 208.08870232 121.34141541 205.98950195 C121.35482649 200.28288856 121.35538168 194.5763413 121.35285211 188.86971521 C121.35178374 184.10818569 121.35666235 179.34666962 121.36145753 174.58514297 C121.37256019 163.35265022 121.37298596 152.1201909 121.36694336 140.88769531 C121.36090301 129.29518005 121.37321446 117.70278615 121.39451343 106.1102916 C121.41212026 96.16199631 121.4181322 86.21373968 121.41487569 76.26542938 C121.41306109 70.32177742 121.41571652 64.378212 121.42959023 58.43457413 C121.44214882 52.84495492 121.44024302 47.25552505 121.42717934 41.66590881 C121.42480965 39.61402701 121.42756222 37.56213197 121.43580246 35.51026535 C121.44623845 32.70975803 121.43819444 29.90988972 121.42549133 27.10940552 C121.43286562 26.29694811 121.4402399 25.4844907 121.44783765 24.64741337 C121.39994353 19.6302331 120.81148057 15.05073838 117.05126953 11.29052734 C115.05168589 11.24971951 113.05081699 11.24798378 111.05126953 11.29052734 C111.05126953 10.63052734 111.05126953 9.97052734 111.05126953 9.29052734 C94.74386517 9.17362241 78.43659716 9.08550439 62.12887478 9.03146648 C54.55655836 9.00570656 46.9845026 8.97059885 39.41235352 8.91333008 C32.81091432 8.86342675 26.20966394 8.83122024 19.60804135 8.82008487 C16.11381179 8.81357765 12.62012232 8.79833146 9.12606621 8.76187706 C5.22139389 8.72147065 1.31724548 8.72058238 -2.58764648 8.72290039 C-3.74067261 8.70492401 -4.89369873 8.68694763 -6.08166504 8.66842651 C-13.01055922 8.71294348 -16.9006309 9.3788726 -21.94873047 14.29052734 Z M-97.94873047 133.29052734 C-100.15958949 138.22956251 -100.23422533 142.76369089 -100.20942688 148.06471252 C-100.21325243 148.9361079 -100.21707797 149.80750327 -100.22101945 150.70530456 C-100.23131976 153.61862092 -100.22736297 156.53173911 -100.22338867 159.44506836 C-100.2277367 161.53633812 -100.23292016 163.62760628 -100.23887634 165.71887207 C-100.25226561 171.39430928 -100.25284524 177.0696799 -100.25031304 182.74512982 C-100.2492436 187.4820007 -100.25412585 192.21885809 -100.25891846 196.95572609 C-100.27001272 208.12780226 -100.27045105 219.29984481 -100.2644043 230.47192383 C-100.25835926 242.00315289 -100.27068919 253.5342601 -100.29197437 265.06546837 C-100.3095744 274.96368265 -100.31559438 284.86185808 -100.31233662 294.76008743 C-100.31052157 300.67293769 -100.31318235 306.58570095 -100.32705116 312.49853706 C-100.33959937 318.05616981 -100.3377139 323.61361204 -100.32464027 329.17124176 C-100.32226864 331.2122574 -100.32503009 333.25328632 -100.3332634 335.29428673 C-100.34368256 338.07752263 -100.33566918 340.86011344 -100.32295227 343.64332581 C-100.33032656 344.45344087 -100.33770084 345.26355593 -100.34529859 346.09821993 C-100.28892714 351.95097717 -99.05002195 355.18923587 -94.94873047 359.29052734 C-92.73773525 359.59165842 -92.73773525 359.59165842 -90.1439209 359.5377655 C-88.62168411 359.54405724 -88.62168411 359.54405724 -87.06869507 359.55047607 C-85.39186142 359.54204681 -85.39186142 359.54204681 -83.68115234 359.53344727 C-82.50698761 359.53534561 -81.33282288 359.53724396 -80.12307739 359.53919983 C-76.89529244 359.54227704 -73.66767503 359.53637767 -70.43990898 359.52624679 C-67.05731233 359.51746478 -63.67471999 359.51922387 -60.29211426 359.51960754 C-54.60243428 359.5186699 -48.91280749 359.50997839 -43.22314453 359.49633789 C-36.66473018 359.48067167 -30.10637436 359.47533769 -23.54794264 359.47607344 C-16.55122201 359.47675215 -9.55452368 359.46978592 -2.55780983 359.46062684 C-0.55147337 359.4585056 1.45485943 359.457787 3.4611969 359.45738792 C7.22367213 359.45520797 10.9860755 359.44642628 14.74853516 359.43579102 C15.85023041 359.4362442 16.95192566 359.43669739 18.08700562 359.43716431 C21.0771797 359.42487083 24.06216703 359.36878194 27.05126953 359.29052734 C27.97791916 359.28350611 28.90456879 359.27648487 29.85929871 359.26925087 C30.73326797 359.23202604 31.60723724 359.19480122 32.50769043 359.15644836 C33.26679466 359.13455602 34.0258989 359.11266367 34.80800629 359.09010792 C38.34076873 357.83090295 40.31964059 355.50569538 42.05126953 352.29052734 C42.73712328 349.32909474 42.72346167 346.47710396 42.67945862 343.44714355 C42.68655301 342.56828664 42.69364739 341.68942973 42.70095676 340.78394079 C42.71853073 337.84493355 42.70043496 334.90724984 42.68237305 331.96826172 C42.68751208 329.85890603 42.69479324 327.74955463 42.70405579 325.64021301 C42.72257978 319.91497987 42.70962459 314.19021206 42.68996549 308.46499825 C42.67358611 302.47401508 42.6823909 296.48306155 42.68748474 290.49206543 C42.69200648 280.43115807 42.67613075 270.37043658 42.64819336 260.30957031 C42.61614124 248.67719425 42.61615703 237.04515344 42.63340813 225.41275358 C42.64927086 214.22355666 42.64254124 203.03448268 42.62547112 191.84529114 C42.61859782 187.08304066 42.61963598 182.32088863 42.62701607 177.55863953 C42.63467608 171.95085195 42.62256162 166.34344599 42.59516716 160.7357235 C42.58827933 158.67740194 42.58818959 156.61904477 42.59538269 154.56072426 C42.60406926 151.75136039 42.5881346 148.94317635 42.56593323 146.13391113 C42.57829438 144.91143496 42.57829438 144.91143496 42.59090525 143.66426229 C42.51496808 138.45975113 41.6317018 135.32936847 38.05126953 131.29052734 C34.61503092 129.36276364 31.68971742 129.03761472 27.7895813 129.02310181 C26.22941284 129.01030685 26.22941284 129.01030685 24.63772583 128.99725342 C22.94194901 128.99861298 22.94194901 128.99861298 21.21191406 129 C19.41352081 128.98992416 19.41352081 128.98992416 17.57879639 128.97964478 C14.29769574 128.96391826 11.01674715 128.95729072 7.73561335 128.9560132 C5.6833593 128.95458934 3.63113161 128.95031531 1.57888412 128.94501877 C-5.58740162 128.92652888 -12.75361307 128.91834688 -19.91992188 128.91992188 C-26.58934726 128.92112312 -33.25844894 128.90002185 -39.92779243 128.86843455 C-45.66300245 128.84224398 -51.39810691 128.83155573 -57.13337624 128.83283269 C-60.5547507 128.8333415 -63.97583731 128.8277038 -67.39715195 128.80647659 C-71.21523645 128.7868775 -75.03248797 128.79263183 -78.85058594 128.8046875 C-79.97705536 128.79344849 -81.10352478 128.78220947 -82.26412964 128.77062988 C-88.64349423 128.82180487 -92.92100912 129.18152691 -97.94873047 133.29052734 Z " fill="#030202" transform="translate(229.94873046875,22.70947265625)"/>
<path d="M0 0 C1.16288942 3.97255055 0.61632609 6.89834329 0 11 C-0.14328641 13.91372585 -0.13522812 16.82336451 -0.12698364 19.74017334 C-0.12854363 20.59593909 -0.13010362 21.45170483 -0.13171089 22.33340287 C-0.13568516 25.18810664 -0.13254506 28.04275681 -0.12939453 30.89746094 C-0.13075019 32.94958528 -0.13253106 35.00170937 -0.13470459 37.05383301 C-0.1392604 42.62010133 -0.13749665 48.1863511 -0.1343255 53.75261974 C-0.13179099 59.58510068 -0.13414262 65.41758004 -0.13571167 71.25006104 C-0.13753075 81.04854619 -0.13513451 90.8470238 -0.13037109 100.64550781 C-0.12493505 111.95790263 -0.1266874 123.27027941 -0.1321975 134.58267379 C-0.13674332 144.3060502 -0.1373718 154.02942119 -0.13475883 163.75279832 C-0.13320336 169.55512935 -0.13298213 175.35745193 -0.13629532 181.15978241 C-0.13919516 186.61971882 -0.13715962 192.07963211 -0.13140106 197.53956604 C-0.13008451 199.53774731 -0.1304487 201.53593055 -0.13266373 203.53411102 C-0.91848118 217.96765602 -0.91848118 217.96765602 1 232 C2.96462758 233.10549575 2.96462758 233.10549575 5 234 C5.33 234.99 5.66 235.98 6 237 C23.23741261 237.04673911 40.47480542 237.08199821 57.71226692 237.10362434 C65.71607711 237.11393302 73.71984791 237.12798555 81.72363281 237.15087891 C88.70045081 237.17082529 95.67724027 237.18371941 102.65408599 237.18817699 C106.3476139 237.19078225 110.04106019 237.19689726 113.73456192 237.21146011 C117.85969907 237.22759262 121.98469468 237.22797888 126.10986328 237.22705078 C127.94297813 237.23783661 127.94297813 237.23783661 129.81312561 237.24884033 C130.94045609 237.246091 132.06778656 237.24334167 133.22927856 237.24050903 C134.20453554 237.24235262 135.17979252 237.24419621 136.18460274 237.24609566 C142.65235337 236.68074548 146.15524929 234.1231921 151 230 C151.928125 229.67 152.85625 229.34 153.8125 229 C154.534375 228.67 155.25625 228.34 156 228 C156.38218767 226.34385343 156.71395102 224.67542976 157 223 C158.32267727 221.98594743 159.65724831 220.98731742 161 220 C161.495 219.01 161.99 218.02 162.5 217 C164 214 164 214 166.0625 212.5 C168.30794275 211.05418505 168.30794275 211.05418505 169 207.875 C169.33 206.92625 169.66 205.9775 170 205 C172.0625 204.3203125 172.0625 204.3203125 174 204 C173.99555878 203.00441574 173.99111755 202.00883148 173.98654175 200.983078 C173.94603371 191.60984272 173.91603391 182.23662515 173.89637566 172.86332226 C173.88592948 168.04417974 173.87175508 163.22510777 173.84912109 158.40600586 C173.82742243 153.75706092 173.81543766 149.10818393 173.81024551 144.45919228 C173.8065444 142.68373863 173.79931723 140.90828879 173.78853989 139.132864 C173.77406449 136.6499357 173.77202039 134.16728974 173.77294922 131.68432617 C173.76575867 130.94705292 173.75856812 130.20977966 173.75115967 129.45016479 C173.7662232 125.73948648 173.88434432 124.17348352 176 121 C178.35986328 120.67529297 178.35986328 120.67529297 181.3203125 120.7421875 C182.94888184 120.76466553 182.94888184 120.76466553 184.61035156 120.78759766 C186.35010254 120.83086182 186.35010254 120.83086182 188.125 120.875 C190.49735414 120.90459751 192.86975524 120.93064521 195.2421875 120.953125 C196.39944336 120.96537109 197.55669922 120.97761719 198.74902344 120.99023438 C202.92739927 121.00278582 207.07995377 120.87893532 211.25 120.625 C212.43078125 120.55539062 213.6115625 120.48578125 214.828125 120.4140625 C218.09343482 119.98780284 220.92039851 119.14785147 224 118 C224 117.34 224 116.68 224 116 C224.5775 115.773125 225.155 115.54625 225.75 115.3125 C228.20065237 114.07651194 228.20065237 114.07651194 229.9375 111.4375 C232 109 232 109 234.75 108.1875 C235.4925 108.125625 236.235 108.06375 237 108 C237 107.34 237 106.68 237 106 C237.66 106 238.32 106 239 106 C235.48437387 113.72059071 229.14962055 119.98800223 221.24121094 123.07788086 C217.77293801 124.06459876 214.80405194 124.30124409 211.203125 124.37890625 C209.9140625 124.41306641 208.625 124.44722656 207.296875 124.48242188 C205.94792801 124.50968157 204.59896937 124.53637102 203.25 124.5625 C189.3501166 123.55618388 189.3501166 123.55618388 177 127 C176.90211404 129.30877294 176.87483582 131.62054956 176.87402344 133.93139648 C176.8721553 134.65675095 176.87028717 135.38210541 176.86836243 136.12944031 C176.86434787 137.7112791 176.86228263 139.29312373 176.86190033 140.87496758 C176.85848933 144.24652311 176.83712194 147.61788505 176.81666946 150.98937321 C176.7786702 157.26955066 176.74737338 163.54952857 176.74951172 169.82983398 C176.75030283 174.19496113 176.72675709 178.55938922 176.6876297 182.92433357 C176.67721986 184.58231519 176.67560845 186.24037801 176.68328094 187.89837456 C176.73467465 200.2468859 175.11595931 209.2054042 166.33203125 218.4296875 C164.85291585 220.17339539 164.00788417 221.95555202 163 224 C161.38025441 225.71230248 159.7041054 227.37163262 158 229 C157.47148437 229.57234375 156.94296875 230.1446875 156.3984375 230.734375 C151.44369893 236.02847922 145.19387851 240.71362505 137.66700363 241.12863445 C136.74231907 241.1303103 135.81763451 241.13198614 134.8649292 241.13371277 C133.80232376 241.13797775 132.73971832 241.14224274 131.64491272 241.14663696 C130.47915207 241.14618378 129.31339142 241.14573059 128.11230469 241.14526367 C126.27045845 241.15030159 126.27045845 241.15030159 124.3914032 241.15544128 C121.02136473 241.16332236 117.65138787 241.16661944 114.28134441 241.16725707 C112.17450128 241.16796786 110.06766459 241.17010279 107.96082306 241.17275429 C100.60652761 241.18200909 93.2522503 241.1860892 85.89794922 241.18530273 C79.0503041 241.18470262 72.20273794 241.19524108 65.35511279 241.2110464 C59.47133602 241.22414141 53.58758499 241.22948577 47.70379376 241.22884732 C44.19193323 241.22859282 40.68014279 241.23141759 37.16829681 241.24202538 C33.24725797 241.25354525 29.32632643 241.24894751 25.40527344 241.24291992 C23.66877785 241.25134918 23.66877785 241.25134918 21.89720154 241.25994873 C14.28702553 241.23022413 7.22990242 241.14797244 1.34099579 235.61824703 C-6.10533449 226.63238594 -4.56483566 214.19271429 -4.51757812 203.27124023 C-4.52300384 201.1661633 -4.53012902 199.06109016 -4.53881836 196.95602417 C-4.55699989 191.25981738 -4.55000574 185.5639015 -4.53730202 179.86768985 C-4.52714893 173.8968166 -4.53657398 167.92596765 -4.54284668 161.95509338 C-4.55011578 151.93071029 -4.54055408 141.90644523 -4.52148438 131.88208008 C-4.49971121 120.30308339 -4.50677335 108.72436841 -4.52879 97.14537853 C-4.54695785 87.19095403 -4.54949569 77.23661419 -4.53903532 67.28217846 C-4.53280882 61.34241912 -4.53194179 55.40279208 -4.54518127 49.46304131 C-4.55675943 43.87900898 -4.5486778 38.29533898 -4.52560425 32.71134567 C-4.52032796 30.66556334 -4.52181237 28.61975036 -4.53065491 26.57398033 C-4.54163653 23.77465607 -4.52781537 20.97648241 -4.50793457 18.17723083 C-4.5213189 16.97195516 -4.5213189 16.97195516 -4.53497362 15.74233049 C-4.4530747 9.76983143 -2.74599833 5.27359365 0 0 Z " fill="#3D0201" transform="translate(105,173)"/>
<path d="M0 0 C1.84473907 -0.00087616 1.84473907 -0.00087616 3.72674561 -0.00177002 C7.08617649 0.00053374 10.4446153 0.0205458 13.80387068 0.04852581 C17.31921921 0.07358871 20.83458201 0.07588529 24.3500061 0.08062744 C31.00105166 0.09304295 37.65183316 0.12584497 44.30276263 0.1660254 C51.87708546 0.21078773 59.45142113 0.23274132 67.02584338 0.25280714 C82.6015288 0.2945791 98.17695101 0.36490307 113.75244141 0.45410156 C113.75244141 1.11410156 113.75244141 1.77410156 113.75244141 2.45410156 C114.68056641 2.35097656 115.60869141 2.24785156 116.56494141 2.14160156 C117.61681641 2.24472656 118.66869141 2.34785156 119.75244141 2.45410156 C121.56494141 4.82910156 121.56494141 4.82910156 122.75244141 7.45410156 C123.08244141 8.11410156 123.41244141 8.77410156 123.75244141 9.45410156 C123.85485536 12.24147899 123.89581448 15.00412815 123.8928833 17.79196167 C123.89585442 18.66472846 123.89882555 19.53749525 123.9018867 20.43670952 C123.9105994 23.37855158 123.91208411 26.32035307 123.91357422 29.26220703 C123.91820054 31.36436043 123.92322495 33.46651298 123.92861938 35.56866455 C123.94176252 41.29177235 123.94819197 47.01486841 123.95263004 52.73798895 C123.95555744 56.31034473 123.95966158 59.88269727 123.96413422 63.45505142 C123.97781364 74.62285754 123.98747835 85.7906563 123.99133611 96.95847023 C123.99581934 109.86747209 124.01337775 122.7763682 124.0423367 135.6853379 C124.06392268 145.65223944 124.07403872 155.61911117 124.07537723 165.58603585 C124.07642739 171.54419331 124.08238005 177.50225143 124.10019684 183.46038437 C124.11662444 189.0630922 124.11885893 194.66562543 124.11005783 200.26834869 C124.10928462 202.3275232 124.11366727 204.3867069 124.12351608 206.445858 C124.13615111 209.25154054 124.13040497 212.05659675 124.11993408 214.86227417 C124.13201869 216.09174516 124.13201869 216.09174516 124.14434743 217.34605396 C124.10670971 221.64209489 123.88024417 224.35598988 120.75244141 227.45410156 C120.74820947 226.33519689 120.74397753 225.21629221 120.73961735 224.06348133 C120.63649036 196.85634694 120.52775047 169.64923942 120.41310215 142.44215107 C120.35778981 129.28509219 120.30431104 116.1280306 120.25512695 102.97094727 C120.21226079 91.50519079 120.1659766 80.03945413 120.11556286 68.57372826 C120.08898157 62.50097953 120.06412892 56.42823468 120.04336739 50.35546303 C120.02378031 44.64200314 119.99963023 38.92858088 119.97195053 33.21515465 C119.96259109 31.11609963 119.95491184 29.01703637 119.94902229 26.91796875 C119.94074235 24.05577025 119.92646026 21.19366261 119.91065979 18.33149719 C119.90968168 17.49783467 119.90870358 16.66417215 119.90769583 15.80524713 C119.87983264 11.88957326 119.7158764 8.27779974 118.75244141 4.45410156 C112.29316102 3.28677305 105.94200134 3.32015047 99.39135742 3.34057617 C98.16138535 3.34043015 96.93141327 3.34028412 95.66416931 3.34013367 C92.30929448 3.34070892 88.954482 3.34570719 85.5996182 3.35270762 C82.08691674 3.35897981 78.57421437 3.35954801 75.06150818 3.36073303 C68.41769789 3.36383498 61.77390416 3.372033 55.13010114 3.38208252 C47.56297505 3.39327901 39.99584815 3.39876301 32.42871583 3.40377796 C16.86994812 3.4142166 1.3111969 3.43179396 -14.24755859 3.45410156 C-14.57755859 4.44410156 -14.90755859 5.43410156 -15.24755859 6.45410156 C-15.90755859 6.45410156 -16.56755859 6.45410156 -17.24755859 6.45410156 C-17.57755859 41.10410156 -17.90755859 75.75410156 -18.24755859 111.45410156 C-18.90755859 111.45410156 -19.56755859 111.45410156 -20.24755859 111.45410156 C-20.29388218 98.24132174 -20.32942797 85.02856121 -20.35118294 71.81571674 C-20.36162377 65.68058213 -20.37578858 59.54550305 -20.3984375 53.41040039 C-20.42015499 47.49061219 -20.43212496 41.57087743 -20.43731308 35.65105247 C-20.44101079 33.39160508 -20.44823138 31.13216064 -20.45901871 28.87273598 C-20.47351891 25.71009608 -20.47553713 22.54767751 -20.47460938 19.38500977 C-20.48179993 18.44921082 -20.48899048 17.51341187 -20.49639893 16.54925537 C-20.46900738 7.93010024 -20.46900738 7.93010024 -18.24755859 4.45410156 C-12.9029569 -0.71969021 -7.11567717 -0.08847432 0 0 Z " fill="#8D8D8C" transform="translate(227.24755859375,31.5458984375)"/>
<path d="M0 0 C0.33 0.66 0.66 1.32 1 2 C0.67 2.99 0.34 3.98 0 5 C-0.10040422 7.81261658 -0.14342648 10.60057485 -0.14044189 13.41342163 C-0.14341302 14.28225373 -0.14638414 15.15108583 -0.1494453 16.04624617 C-0.15814375 18.96882872 -0.1596415 21.89137036 -0.16113281 24.81396484 C-0.16576013 26.90479114 -0.17078467 28.99561658 -0.17617798 31.08644104 C-0.1893112 36.77443392 -0.19574858 42.46241499 -0.20018864 48.15042067 C-0.20311751 51.70185093 -0.20722193 55.25327794 -0.21169281 58.80470657 C-0.22536935 69.91004083 -0.23503559 81.01536768 -0.2388947 92.12070978 C-0.24337782 104.95215118 -0.26093691 117.78348618 -0.2898953 130.61489522 C-0.3114884 140.52578208 -0.32159769 150.43663894 -0.32293582 160.34754908 C-0.32398543 166.27051227 -0.32992648 172.19337546 -0.34775543 178.11631393 C-0.3641954 183.68620739 -0.36641144 189.25592525 -0.35761642 194.82583427 C-0.3568439 196.87168916 -0.36121702 198.91755334 -0.37107468 200.96338463 C-0.38373095 203.75333771 -0.37795185 206.54266286 -0.36749268 209.33261108 C-0.37554908 210.1447725 -0.38360548 210.95693393 -0.39190602 211.7937063 C-0.34768222 216.82734201 0.36894124 220.36894124 4 224 C5.70825688 224.09622036 7.42052114 224.12187628 9.13148499 224.12025452 C10.24352798 224.12162918 11.35557098 224.12300385 12.50131226 224.12442017 C13.73201447 224.12082489 14.96271667 224.11722961 16.23071289 224.11352539 C18.1621389 224.11374443 18.1621389 224.11374443 20.13258362 224.1139679 C23.6737476 224.11425586 27.21487799 224.10835936 30.75603414 224.10139394 C34.45294988 224.09516017 38.14986631 224.09455658 41.8467865 224.09336853 C48.85203899 224.09025528 55.85727595 224.08204199 62.86252159 224.07201904 C70.83578876 224.0608577 78.80905665 224.0553474 86.78232968 224.05032361 C103.18822889 224.03985937 119.59411247 224.02226005 136 224 C136.66 222.68 137.32 221.36 138 220 C138.66 220 139.32 220 140 220 C140 147.73 140 75.46 140 1 C140.99 1.495 140.99 1.495 142 2 C142.0233303 30.38912693 142.04097982 58.77825243 142.05181217 87.16738701 C142.05697485 100.34808548 142.06401701 113.528778 142.07543945 126.70947266 C142.08538715 138.1938614 142.09185363 149.67824585 142.09408849 161.16263878 C142.09539545 167.24704084 142.09848039 173.33143058 142.10573006 179.4158287 C142.11249161 185.13664707 142.11461668 190.85744798 142.11310768 196.57826996 C142.11338395 198.68343068 142.11538827 200.78859196 142.11920547 202.89374924 C142.12414481 205.75697728 142.12299737 208.62013849 142.12025452 211.48336792 C142.12316736 212.32576897 142.1260802 213.16817001 142.12908131 214.03609836 C142.11412121 219.77175758 142.11412121 219.77175758 141 222 C140.34 222 139.68 222 139 222 C138.95875 222.61875 138.9175 223.2375 138.875 223.875 C138 226 138 226 135.67990112 227.11564636 C130.51228906 228.35752661 125.54378352 228.28651685 120.24658203 228.2746582 C118.47963989 228.2823246 118.47963989 228.2823246 116.67700195 228.29014587 C113.45786612 228.30163914 110.23889052 228.3041194 107.01973963 228.30158257 C104.32608729 228.30050973 101.63245846 228.30540431 98.93881118 228.310188 C92.58012041 228.32126835 86.22148872 228.32172911 79.86279297 228.31567383 C73.31781803 228.30963666 66.77305821 228.32194175 60.22811997 228.3432439 C54.59563494 228.36089758 48.96321814 228.36685528 43.33070648 228.36360615 C39.9725286 228.3617989 36.61450413 228.3643732 33.25635147 228.37832069 C29.50813557 228.39067907 25.76041521 228.38389621 22.01220703 228.37231445 C20.3583046 228.38378006 20.3583046 228.38378006 18.67098999 228.39547729 C11.99956116 228.34999414 5.590135 228.09649728 0.28520393 223.5209856 C-1 222 -1 222 -1 220 C-1.66 220 -2.32 220 -3 220 C-3.07002134 191.90619893 -3.12295444 163.81241089 -3.15543652 135.71854019 C-3.17091808 122.67463518 -3.19203224 109.63078432 -3.22631836 96.58691406 C-3.25618123 85.22043312 -3.27556562 73.85399138 -3.28226548 62.4874723 C-3.28618301 56.46667869 -3.29541655 50.44599728 -3.31719017 44.42523956 C-3.33750612 38.76183195 -3.3438437 33.0985831 -3.33932304 27.43514252 C-3.34015044 25.35338987 -3.34614507 23.27163209 -3.35761642 21.18991089 C-3.3724839 18.35348148 -3.36897458 15.51765599 -3.36076355 12.68121338 C-3.36950207 11.85241991 -3.3782406 11.02362645 -3.38724393 10.16971803 C-3.35335653 5.85587325 -3.15082188 3.10810983 0 0 Z " fill="#5A5A5A" transform="translate(131,157)"/>
<path d="M0 0 C1.82727881 -0.01144357 3.65458018 -0.01912295 5.48188019 -0.02643585 C6.42006592 -0.03089722 7.35825165 -0.03535858 8.32486725 -0.03995514 C11.87836627 0.03731096 15.30116276 0.46360824 18.81049347 1.01409149 C18.81049347 1.67409149 18.81049347 2.33409149 18.81049347 3.01409149 C19.80049347 3.34409149 20.79049347 3.67409149 21.81049347 4.01409149 C22.49799347 6.07659149 22.49799347 6.07659149 22.81049347 8.01409149 C21.49049347 8.01409149 20.17049347 8.01409149 18.81049347 8.01409149 C18.81049347 7.35409149 18.81049347 6.69409149 18.81049347 6.01409149 C2.48560422 6.0512769 -13.83901991 6.11116498 -30.16371346 6.19799423 C-37.74376653 6.23778383 -45.32371579 6.27017666 -52.903862 6.28508759 C-59.51163475 6.29810459 -66.1191791 6.32507024 -72.72682321 6.36870456 C-76.22476282 6.39131863 -79.72242072 6.40700223 -83.22043991 6.40597534 C-87.12784451 6.40508985 -91.03467415 6.43534928 -94.94194794 6.46819305 C-96.09856934 6.46316269 -97.25519073 6.45813232 -98.44686127 6.45294952 C-104.56942582 6.53267583 -108.67095345 6.65516366 -113.18950653 11.01409149 C-114.14145328 13.81792729 -114.32232294 16.42079506 -114.34772491 19.36742401 C-114.35751373 20.23116638 -114.36730255 21.09490875 -114.377388 21.98482513 C-114.38314346 22.92421936 -114.38889893 23.86361359 -114.3948288 24.8314743 C-114.40472839 25.82692261 -114.41462799 26.82237091 -114.42482758 27.84798431 C-114.45641048 31.13770419 -114.48118742 34.42743851 -114.50591278 37.71721649 C-114.52648507 39.99836858 -114.54748162 42.27951688 -114.5688858 44.56066132 C-114.62407803 50.56443463 -114.67349993 56.56824218 -114.72173309 62.57207489 C-114.77196887 68.69861142 -114.82764411 74.82509823 -114.88286591 80.95159149 C-114.99041266 92.97238235 -115.09186542 104.99321638 -115.18950653 117.01409149 C-115.84950653 117.01409149 -116.50950653 117.01409149 -117.18950653 117.01409149 C-117.2358087 103.65365695 -117.27136499 90.29324145 -117.29313087 76.93274307 C-117.3035764 70.72919891 -117.31774972 64.52570957 -117.34038544 58.32219696 C-117.36208626 52.33757487 -117.37406936 46.35300556 -117.37926102 40.36834717 C-117.38296173 38.08295358 -117.3901881 35.79756294 -117.40096664 33.51219177 C-117.41544474 30.31582095 -117.417486 27.11966941 -117.41655731 23.92327118 C-117.42374786 22.97452621 -117.43093842 22.02578125 -117.43834686 21.04828644 C-117.43422287 19.74005165 -117.43422287 19.74005165 -117.43001556 18.40538788 C-117.43185915 17.64951763 -117.43370274 16.89364738 -117.43560219 16.11487198 C-117.1539769 13.710795 -116.32880698 12.13256323 -115.18950653 10.01409149 C-115.02450653 9.14784149 -114.85950653 8.28159149 -114.68950653 7.38909149 C-114.18950653 5.01409149 -114.18950653 5.01409149 -112.18950653 3.01409149 C-106.47371394 0.90672942 -101.1962941 0.70948814 -95.1460495 0.69524384 C-94.16129135 0.68519821 -93.1765332 0.67515259 -92.1619339 0.66480255 C-88.91852615 0.63401335 -85.6752014 0.61693324 -82.43169403 0.60002899 C-80.16354942 0.58129578 -77.89541162 0.56172079 -75.62728119 0.54134369 C-69.65813546 0.49004224 -63.68896672 0.45043767 -57.71971893 0.41320038 C-51.68094315 0.37337009 -45.64226647 0.32203236 -39.60356903 0.27190399 C-27.94896215 0.17758738 -16.29434387 0.08859527 -4.63951111 0.02720642 C-3.09300297 0.01892793 -1.54649826 0.00995314 0 0 Z " fill="#020203" transform="translate(322.1895065307617,25.98590850830078)"/>
<path d="M0 0 C1.17504089 -0.00671722 2.35008179 -0.01343445 3.56072998 -0.02035522 C7.4300158 -0.03929245 11.29912781 -0.04325712 15.16845703 -0.04541016 C16.50800782 -0.04825983 17.84755792 -0.05145226 19.18710709 -0.05498123 C26.20125285 -0.07344604 33.21532293 -0.08165613 40.22949219 -0.08007812 C46.74384954 -0.07887703 53.25787544 -0.09998191 59.77214897 -0.13156545 C65.3860239 -0.15780324 70.99979103 -0.16844233 76.61372674 -0.16716731 C79.95753037 -0.16665995 83.30080491 -0.17408599 86.64458847 -0.19352341 C90.37791963 -0.21319596 94.11040419 -0.2073395 97.84375 -0.1953125 C98.93601898 -0.20655151 100.02828796 -0.21779053 101.15365601 -0.22937012 C109.44505103 -0.16175517 116.4984923 1.34247815 122.98876953 6.72802734 C128.07564947 13.04809029 129.19990045 17.83893495 129.1849823 25.83129883 C129.18724786 26.71379272 129.18951341 27.5962866 129.19184762 28.50552273 C129.19819768 31.47423534 129.19735762 34.44290242 129.1965332 37.41162109 C129.19952402 39.53524841 129.20292637 41.65887517 129.20671082 43.78250122 C129.2155618 49.55920318 129.21788936 55.33589034 129.2185266 61.11259842 C129.21947469 65.92903393 129.22315175 70.74546596 129.2266987 75.56190014 C129.23484706 86.92033755 129.23728254 98.27876703 129.23657227 109.63720703 C129.23597103 121.37003814 129.24653111 133.10282333 129.26231593 144.83564281 C129.27537147 154.8968156 129.28075702 164.95797335 129.28011686 175.01915455 C129.27986133 181.03369064 129.28274274 187.04818594 129.29329491 193.06271362 C129.30294279 198.71629242 129.30307793 204.36979111 129.29577827 210.02337265 C129.29472837 212.10231518 129.2971192 214.18126261 129.30313873 216.26019669 C129.31080435 219.09014536 129.30625013 221.91981365 129.29850769 224.74975586 C129.30365125 225.57941581 129.30879482 226.40907576 129.31409425 227.26387691 C129.29057474 231.13301169 129.24837629 232.9948672 127.05126953 236.29052734 C127.05126953 163.36052734 127.05126953 90.43052734 127.05126953 15.29052734 C125.07126953 14.30052734 125.07126953 14.30052734 123.05126953 13.29052734 C122.72126953 12.30052734 122.39126953 11.31052734 122.05126953 10.29052734 C120.72278262 9.28409786 119.38976624 8.28360555 118.05126953 7.29052734 C118.05126953 6.63052734 118.05126953 5.97052734 118.05126953 5.29052734 C111.67855852 3.00721337 105.70903108 3.00750444 98.98486328 3.03173828 C97.18603195 3.02648132 97.18603195 3.02648132 95.3508606 3.02111816 C92.07812702 3.01384757 88.80555646 3.01551866 85.53282547 3.02187634 C82.09813358 3.02696103 78.66345211 3.02223804 75.22875977 3.019104 C69.46221987 3.01547153 63.69573131 3.02024454 57.92919922 3.02978516 C51.27459442 3.04066834 44.6201122 3.03714225 37.96551037 3.02613235 C32.23875731 3.01703894 26.51204103 3.01578422 20.78528309 3.02100968 C17.37074081 3.02411811 13.95625605 3.02456986 10.54171753 3.01793671 C6.73361958 3.012852 2.92575628 3.02060943 -0.88232422 3.03173828 C-2.00565155 3.02768982 -3.12897888 3.02364136 -4.28634644 3.01947021 C-9.91944157 3.0499332 -14.62911611 3.41302298 -19.94873047 5.29052734 C-21.28003161 5.63188661 -22.61231195 5.9697869 -23.94873047 6.29052734 C-18.13797699 -0.9729145 -8.48420178 -0.00701425 0 0 Z " fill="#4D0301" transform="translate(229.94873046875,22.70947265625)"/>
<path d="M0 0 C2.56159646 3.84239469 2.27826329 6.97099642 2.25396729 11.42446899 C2.25864726 12.72960908 2.25864726 12.72960908 2.26342177 14.06111562 C2.27142411 16.98824025 2.26506929 19.91515884 2.25878906 22.84228516 C2.26149805 24.93647381 2.26505846 27.03066152 2.26940918 29.12484741 C2.27854979 34.82346306 2.27498115 40.52200653 2.26865101 46.22062349 C2.26359565 52.18218973 2.26828154 58.14374969 2.27142334 64.10531616 C2.27506603 74.1244213 2.27025771 84.14349699 2.26074219 94.16259766 C2.24987487 105.73853601 2.25336947 117.31440382 2.264395 128.89034045 C2.2734805 138.82762048 2.27474643 148.7648793 2.26951766 158.70216215 C2.26640262 164.63751911 2.26597548 170.57284296 2.27259064 176.50819778 C2.27838116 182.09449932 2.27433589 187.68071032 2.26280212 193.26700211 C2.26016391 195.31439565 2.26090627 197.36179685 2.26532745 199.40918732 C2.27081793 202.21076979 2.26390622 205.01206483 2.25396729 207.81362915 C2.26065945 209.02023066 2.26065945 209.02023066 2.26748681 210.25120795 C2.22004002 217.17892917 1.78536296 224.71821393 -2.875 230.1875 C-4.80994201 232.54718537 -6.61660222 234.85845088 -8.25 237.4375 C-10 240 -10 240 -12 241 C-11.59422121 235.58961609 -9.57541686 231.07142845 -6 227 C-5.01 227 -4.02 227 -3 227 C-3 225.35 -3 223.7 -3 222 C-2.34 222 -1.68 222 -1 222 C-0.67 148.74 -0.34 75.48 0 0 Z " fill="#1C0000" transform="translate(356,38)"/>
<path d="M0 0 C0.33 0.66 0.66 1.32 1 2 C0.67 2.99 0.34 3.98 0 5 C-0.10040422 7.81261658 -0.14342648 10.60057485 -0.14044189 13.41342163 C-0.14341302 14.28225373 -0.14638414 15.15108583 -0.1494453 16.04624617 C-0.15814375 18.96882872 -0.1596415 21.89137036 -0.16113281 24.81396484 C-0.16576013 26.90479114 -0.17078467 28.99561658 -0.17617798 31.08644104 C-0.1893112 36.77443392 -0.19574858 42.46241499 -0.20018864 48.15042067 C-0.20311751 51.70185093 -0.20722193 55.25327794 -0.21169281 58.80470657 C-0.22536935 69.91004083 -0.23503559 81.01536768 -0.2388947 92.12070978 C-0.24337782 104.95215118 -0.26093691 117.78348618 -0.2898953 130.61489522 C-0.3114884 140.52578208 -0.32159769 150.43663894 -0.32293582 160.34754908 C-0.32398543 166.27051227 -0.32992648 172.19337546 -0.34775543 178.11631393 C-0.3641954 183.68620739 -0.36641144 189.25592525 -0.35761642 194.82583427 C-0.3568439 196.87168916 -0.36121702 198.91755334 -0.37107468 200.96338463 C-0.38373095 203.75333771 -0.37795185 206.54266286 -0.36749268 209.33261108 C-0.37554908 210.1447725 -0.38360548 210.95693393 -0.39190602 211.7937063 C-0.351594 216.38209583 0.15649397 219.34979487 3 223 C5.06954847 224.78344178 5.06954847 224.78344178 7 226 C4.21788056 225.62403791 2.4120716 225.32681541 0.1875 223.5625 C-1 222 -1 222 -1 220 C-1.66 220 -2.32 220 -3 220 C-3.07002134 191.90619893 -3.12295444 163.81241089 -3.15543652 135.71854019 C-3.17091808 122.67463518 -3.19203224 109.63078432 -3.22631836 96.58691406 C-3.25618123 85.22043312 -3.27556562 73.85399138 -3.28226548 62.4874723 C-3.28618301 56.46667869 -3.29541655 50.44599728 -3.31719017 44.42523956 C-3.33750612 38.76183195 -3.3438437 33.0985831 -3.33932304 27.43514252 C-3.34015044 25.35338987 -3.34614507 23.27163209 -3.35761642 21.18991089 C-3.3724839 18.35348148 -3.36897458 15.51765599 -3.36076355 12.68121338 C-3.36950207 11.85241991 -3.3782406 11.02362645 -3.38724393 10.16971803 C-3.35335653 5.85587325 -3.15082188 3.10810983 0 0 Z " fill="#666666" transform="translate(131,157)"/>
<path d="M0 0 C0.33 0 0.66 0 1 0 C1 73.59 1 147.18 1 223 C-1.63016129 217.73967742 -2.14093242 214.52552393 -2.12025452 208.71115112 C-2.12110894 207.84372917 -2.12196337 206.97630722 -2.12284368 206.08259976 C-2.12449845 203.15904979 -2.11897714 200.23555646 -2.11352539 197.31201172 C-2.11324349 195.22307334 -2.1134013 193.13413486 -2.1139679 191.04519653 C-2.11425577 185.35953726 -2.10836069 179.67389892 -2.10139394 173.98824453 C-2.09515869 168.05182596 -2.09455647 162.11540694 -2.09336853 156.1789856 C-2.09025572 144.93093634 -2.08204301 133.68289676 -2.07201904 122.43485177 C-2.06085635 109.6321482 -2.05534706 96.82944419 -2.05032361 84.02673697 C-2.03986036 57.68448594 -2.02226188 31.34224351 -2 5 C-1.34 5 -0.68 5 0 5 C0 3.35 0 1.7 0 0 Z " fill="#1D0000" transform="translate(104,178)"/>
<path d="M0 0 C0.99 0.495 0.99 0.495 2 1 C1.38125 1.5775 0.7625 2.155 0.125 2.75 C-1.81347053 4.80249821 -2.90014249 6.43366582 -4 9 C-4.66 9 -5.32 9 -6 9 C-5.9175 10.2375 -5.835 11.475 -5.75 12.75 C-5.73839554 16.02245691 -5.82743667 16.76991555 -7.875 19.5 C-10 21 -10 21 -12 21 C-12.0928125 21.86625 -12.0928125 21.86625 -12.1875 22.75 C-13.31626214 25.87580285 -15.41383298 26.98152818 -18 29 C-19.31165257 31.11660427 -19.31165257 31.11660427 -20 33 C-20.66 33 -21.32 33 -22 33 C-22.76591879 37.78220427 -23.1401716 42.39179216 -23.18945312 47.23291016 C-23.19774643 47.91840439 -23.20603973 48.60389862 -23.21458435 49.31016541 C-23.23186258 50.78548621 -23.24706161 52.26083258 -23.26036072 53.73619461 C-23.28156457 56.07374077 -23.30856876 58.4111584 -23.33703613 60.74862671 C-23.40651582 66.54961636 -23.46622801 72.35069867 -23.52606201 78.15179443 C-23.57709831 83.0656738 -23.63194 87.97948187 -23.69187927 92.89326096 C-23.71834602 95.19148356 -23.73921947 97.48971341 -23.7598877 99.78799438 C-23.77649638 101.20062585 -23.79336872 102.61325425 -23.81054688 104.02587891 C-23.82933899 105.86951523 -23.82933899 105.86951523 -23.84851074 107.75039673 C-23.98232893 110.62093712 -24.34012642 113.20981061 -25 116 C-26.93033081 116.02187378 -26.93033081 116.02187378 -28.8996582 116.04418945 C-33.6689855 116.10211148 -38.43783762 116.17934463 -43.20678711 116.26245117 C-45.2718129 116.29572924 -47.33693027 116.32375214 -49.40209961 116.34643555 C-52.36872432 116.37992855 -55.33450748 116.43224145 -58.30078125 116.48828125 C-59.68841423 116.49786613 -59.68841423 116.49786613 -61.1040802 116.50764465 C-61.96474594 116.52743881 -62.82541168 116.54723297 -63.7121582 116.56762695 C-64.46938675 116.57873001 -65.2266153 116.58983307 -66.00679016 116.60127258 C-68.50457399 117.10093643 -69.26651231 118.20121933 -71 120 C-71.99 120 -72.98 120 -74 120 C-74 120.66 -74 121.32 -74 122 C-74.66 122 -75.32 122 -76 122 C-76.309375 122.86625 -76.309375 122.86625 -76.625 123.75 C-78 126 -78 126 -80.9375 127.875 C-84.15655933 129.72144263 -84.15655933 129.72144263 -85.25 132.75 C-87.96180409 137.7862076 -92.45772415 140.64229515 -97 144 C-97 143.01 -97 142.02 -97 141 C-95.56564318 139.78214987 -94.12476443 138.57070301 -92.64404297 137.40966797 C-89.9927013 135.13630195 -88.09498931 132.38207674 -86.0625 129.5625 C-80.33863487 121.91853635 -75.44757353 116.60640033 -66 114 C-62.89162429 113.58238479 -59.82118378 113.51294781 -56.6875 113.48828125 C-55.83317383 113.47033005 -54.97884766 113.45237885 -54.09863281 113.43388367 C-51.39913714 113.38017382 -48.69981418 113.34601261 -46 113.3125 C-44.15752824 113.2792921 -42.31507917 113.24479927 -40.47265625 113.20898438 C-35.98189631 113.12447057 -31.49118408 113.05747344 -27 113 C-26.03079595 108.92977747 -25.86405516 105.11287657 -25.84228516 100.93408203 C-25.83720444 100.24233887 -25.83212372 99.5505957 -25.82688904 98.83789062 C-25.81622681 97.34233978 -25.80759054 95.8467734 -25.80076981 94.3512001 C-25.78892178 91.97964567 -25.76945464 89.60826854 -25.74765015 87.23678589 C-25.68622861 80.49629656 -25.63202333 73.755828 -25.59863281 67.01513672 C-25.57763014 62.8854364 -25.54228645 58.75606457 -25.49787521 54.62655258 C-25.48376402 53.05820467 -25.47500385 51.4897987 -25.47182083 49.92139053 C-25.46688441 47.72214865 -25.44365934 45.52377162 -25.41650391 43.32470703 C-25.40841705 42.07626007 -25.4003302 40.82781311 -25.39199829 39.54153442 C-24.67160525 33.033096 -21.88865756 28.44758897 -17.625 23.5 C-11.29692144 16.36629849 -11.29692144 16.36629849 -7 8 C-6.34 7.67 -5.68 7.34 -5 7 C-3.98133771 5.34467377 -2.98189187 3.67739862 -2 2 C-1.34 1.34 -0.68 0.68 0 0 Z " fill="#450201" transform="translate(204,29)"/>
<path d="M0 0 C3.81014932 1.27004977 4.17627457 2.51113397 6 6 C6.35496552 6.67310715 6.70993103 7.34621429 7.07565308 8.03971863 C8.43608854 12.39660203 8.26123723 16.57646668 8.22705078 21.11450195 C8.22734283 22.12960342 8.22763489 23.1447049 8.22793579 24.19056702 C8.22654443 27.53989258 8.21099211 30.88899463 8.1953125 34.23828125 C8.19158169 36.56283954 8.18873504 38.88739941 8.18673706 41.21195984 C8.179106 47.32594149 8.15946193 53.43982791 8.1373291 59.55377197 C8.11325952 66.89177736 8.10408719 74.22981462 8.09242249 81.56784821 C8.07303734 92.71196501 8.0347109 103.85587291 8 115 C28.46 115 48.92 115 70 115 C66.05715313 116.97142344 64.59059146 117.25506674 60.36108398 117.2746582 C59.22988632 117.28419022 58.09868866 117.29372223 56.93321228 117.30354309 C55.71646317 117.30263168 54.49971405 117.30172028 53.24609375 117.30078125 C51.36749413 117.30720894 51.36749413 117.30720894 49.45094299 117.31376648 C46.80382238 117.31950914 44.15709183 117.32094562 41.51000977 117.31567383 C38.11805406 117.30986882 34.72664256 117.32684002 31.33477688 117.3500185 C28.09688634 117.36828525 24.85902657 117.36457106 21.62109375 117.36328125 C20.4023204 117.372491 19.18354706 117.38170074 17.92784119 117.39118958 C16.23577293 117.38184639 16.23577293 117.38184639 14.50952148 117.37231445 C13.51564926 117.37294388 12.52177704 117.3735733 11.49778748 117.3742218 C8.52026255 116.9281251 7.83592302 116.3264823 6 114 C5.62082577 112.08867264 5.62082577 112.08867264 5.61473083 109.88995361 C5.60508301 109.05453033 5.59543518 108.21910706 5.585495 107.35836792 C5.59007217 106.44507721 5.59464935 105.5317865 5.59936523 104.59082031 C5.59238617 103.62626923 5.5854071 102.66171814 5.57821655 101.66793823 C5.55818111 98.47124582 5.55873976 95.27487475 5.55859375 92.078125 C5.54682527 89.8571485 5.53346235 87.63617992 5.51856995 85.41522217 C5.48231435 79.55876275 5.4621655 73.70237346 5.44702148 67.8458252 C5.42223635 58.48562566 5.38246408 49.12558139 5.32512093 39.76552582 C5.30881707 36.49788277 5.30501574 33.2303862 5.30210876 29.96270752 C5.29232815 27.95072175 5.28206417 25.93873824 5.27124023 23.92675781 C5.27379318 23.02156403 5.27634613 22.11637024 5.27897644 21.18374634 C5.22201446 14.12020854 4.47548995 8.69607812 0 3 C0 2.01 0 1.02 0 0 Z " fill="#575757" transform="translate(273,148)"/>
<path d="M0 0 C1.19907486 -0.0049649 2.39814972 -0.00992981 3.63356018 -0.01504517 C6.91043568 -0.02711493 10.18727559 -0.03460115 13.46416926 -0.03905582 C15.51424286 -0.04199546 17.56431097 -0.04610181 19.61438179 -0.05056 C26.03709127 -0.06421533 32.4597881 -0.07389282 38.88251108 -0.07776189 C46.2815975 -0.08224461 53.68049938 -0.09981053 61.0795297 -0.12876248 C66.81050203 -0.15040509 72.54142251 -0.16046746 78.27243525 -0.16180301 C81.69039785 -0.16284875 85.10818651 -0.16870775 88.52610588 -0.18662262 C92.33916101 -0.20367758 96.15176595 -0.20180415 99.96484375 -0.1953125 C101.08974213 -0.20452728 102.2146405 -0.21374207 103.37362671 -0.22323608 C109.38695194 -0.1911678 113.7239944 0.29537435 119.04711914 3.16113281 C117.23461914 4.22363281 117.23461914 4.22363281 115.04711914 5.16113281 C114.05711914 4.83113281 113.06711914 4.50113281 112.04711914 4.16113281 C112.04711914 3.50113281 112.04711914 2.84113281 112.04711914 2.16113281 C96.01756893 2.221739 79.98820328 2.29928931 63.95883942 2.39684772 C56.51562417 2.44175655 49.07245625 2.48118243 41.62915039 2.50756836 C35.13931487 2.53058837 28.64962971 2.56403081 22.15991354 2.60983437 C18.72567124 2.63371293 15.29157737 2.65247672 11.85725403 2.65874672 C8.01732306 2.66838088 4.17793254 2.69643404 0.33813477 2.72875977 C-0.7925946 2.72732468 -1.92332397 2.72588959 -3.08831787 2.72441101 C-9.9761347 2.80631954 -16.79769217 3.00594412 -21.95288086 8.16113281 C-24.07788086 7.78613281 -24.07788086 7.78613281 -25.95288086 7.16113281 C-17.2737869 0.12402961 -10.87054802 0.01078312 0 0 Z " fill="#170002" transform="translate(228.952880859375,24.8388671875)"/>
<path d="M0 0 C1.0402533 -0.00563965 2.08050659 -0.0112793 3.15228271 -0.01708984 C4.29313324 -0.01304138 5.43398376 -0.00899292 6.60940552 -0.00482178 C7.81125488 -0.00832642 9.01310425 -0.01183105 10.25137329 -0.01544189 C13.549035 -0.02274394 16.84644623 -0.02102082 20.14409399 -0.01468372 C23.59576093 -0.00962194 27.04741712 -0.01431589 30.49908447 -0.01745605 C36.29792197 -0.02109616 42.09670856 -0.01629648 47.89553833 -0.0067749 C54.59554219 0.0040995 61.29542422 0.00059167 67.99542511 -0.01042771 C73.74924221 -0.0195116 79.50302268 -0.02078017 85.25684464 -0.01555037 C88.69262126 -0.0124354 92.12834069 -0.01200811 95.56411362 -0.01862335 C99.39696716 -0.02548728 103.22968501 -0.015966 107.06253052 -0.00482178 C108.19933258 -0.00887024 109.33613464 -0.0129187 110.50738525 -0.01708984 C112.07622467 -0.00863037 112.07622467 -0.00863037 113.67675781 0 C115.03562764 0.00113108 115.03562764 0.00113108 116.42194939 0.002285 C119.27671509 0.28477703 121.39959416 0.98111963 123.96536255 2.25396729 C125.27786255 4.37896729 125.27786255 4.37896729 125.96536255 6.25396729 C124.97536255 6.25396729 123.98536255 6.25396729 122.96536255 6.25396729 C122.63536255 5.26396729 122.30536255 4.27396729 121.96536255 3.25396729 C57.61536255 2.75896729 57.61536255 2.75896729 -8.03463745 2.25396729 C-4.75180243 0.06541061 -3.80557753 0.00317027 0 0 Z " fill="#898A89" transform="translate(144.03463745117188,151.74603271484375)"/>
<path d="M0 0 C0.66 0 1.32 0 2 0 C-1.05897656 6.71775245 -6.45629894 12.59182236 -13 16 C-17.72590893 16.84592132 -22.35414402 17.16070337 -27.1484375 17.28125 C-27.8052652 17.29965942 -28.4620929 17.31806885 -29.13882446 17.33703613 C-31.21746856 17.39515069 -33.29618963 17.44819918 -35.375 17.5 C-49.11059309 16.57087572 -49.11059309 16.57087572 -61 20 C-61.12486954 22.37201547 -61.18600052 24.71640343 -61.20532227 27.09008789 C-61.21522186 27.83150528 -61.22512146 28.57292267 -61.23532104 29.33680725 C-61.26702466 31.79872393 -61.29172826 34.26065993 -61.31640625 36.72265625 C-61.33696814 38.42517105 -61.3579644 40.12768065 -61.37937927 41.83018494 C-61.43467899 46.31987309 -61.48405328 50.80960792 -61.53222656 55.29937744 C-61.58238406 59.87736178 -61.63810008 64.45527803 -61.69335938 69.03320312 C-61.80103751 78.0220773 -61.90246088 87.0110105 -62 96 C-62.33 96 -62.66 96 -63 96 C-63.04630135 85.88189476 -63.081858 75.76381464 -63.10362434 65.64562511 C-63.11407008 60.94754995 -63.12824368 56.24954717 -63.15087891 51.55151367 C-63.17257914 47.01927795 -63.18456268 42.48711192 -63.18975449 37.95482826 C-63.19345532 36.22403173 -63.20068194 34.49323909 -63.21146011 32.76247215 C-63.22593762 30.34180779 -63.22797952 27.92143298 -63.22705078 25.50073242 C-63.23424133 24.78216064 -63.24143188 24.06358887 -63.24884033 23.32324219 C-63.23354469 19.64901083 -63.09754767 18.1463215 -61 15 C-58.64013672 14.67529297 -58.64013672 14.67529297 -55.6796875 14.7421875 C-54.59397461 14.75717285 -53.50826172 14.7721582 -52.38964844 14.78759766 C-50.64989746 14.83086182 -50.64989746 14.83086182 -48.875 14.875 C-46.50264586 14.90459751 -44.13024476 14.93064521 -41.7578125 14.953125 C-40.02192871 14.97149414 -40.02192871 14.97149414 -38.25097656 14.99023438 C-34.07260073 15.00278582 -29.92004623 14.87893532 -25.75 14.625 C-24.56921875 14.55539062 -23.3884375 14.48578125 -22.171875 14.4140625 C-18.90656518 13.98780284 -16.07960149 13.14785147 -13 12 C-13 11.34 -13 10.68 -13 10 C-12.4225 9.773125 -11.845 9.54625 -11.25 9.3125 C-8.79934763 8.07651194 -8.79934763 8.07651194 -7.0625 5.4375 C-5 3 -5 3 -2.25 2.1875 C-1.5075 2.125625 -0.765 2.06375 0 2 C0 1.34 0 0.68 0 0 Z " fill="#1E0000" transform="translate(342,279)"/>
<path d="M0 0 C2.125 0.375 2.125 0.375 4 1 C3.01 1.66 2.02 2.32 1 3 C2.32 3.33 3.64 3.66 5 4 C4.030625 4.5775 3.06125 5.155 2.0625 5.75 C-1.05011916 7.60124645 -1.05011916 7.60124645 -1.6815176 9.86854172 C-2.00891118 12.05963846 -2.13912013 14.13793512 -2.15821838 16.35333252 C-2.1680072 17.21707489 -2.17779602 18.08081726 -2.18788147 18.97073364 C-2.19363693 19.91012787 -2.1993924 20.84952209 -2.20532227 21.81738281 C-2.21522186 22.81283112 -2.22512146 23.80827942 -2.23532104 24.83389282 C-2.26690395 28.1236127 -2.29168089 31.41334702 -2.31640625 34.703125 C-2.33697854 36.98427709 -2.35797509 39.26542539 -2.37937927 41.54656982 C-2.4345715 47.55034313 -2.4839934 53.55415068 -2.53222656 59.5579834 C-2.58246234 65.68451993 -2.63813758 71.81100674 -2.69335938 77.9375 C-2.80090613 89.95829086 -2.90235889 101.97912489 -3 114 C-3.66 114 -4.32 114 -5 114 C-5.04630217 100.63956546 -5.08185846 87.27914996 -5.10362434 73.91865158 C-5.11406987 67.71510742 -5.12824319 61.51161808 -5.15087891 55.30810547 C-5.17257973 49.32348338 -5.18456283 43.33891407 -5.18975449 37.35425568 C-5.1934552 35.06886209 -5.20068157 32.78347145 -5.21146011 30.49810028 C-5.22593821 27.30172946 -5.22797947 24.10557792 -5.22705078 20.90917969 C-5.23424133 19.96043472 -5.24143188 19.01168976 -5.24884033 18.03419495 C-5.24471634 16.72596016 -5.24471634 16.72596016 -5.24050903 15.39129639 C-5.24235262 14.63542614 -5.24419621 13.87955589 -5.24609566 13.10078049 C-4.96447037 10.69670351 -4.13930045 9.11847174 -3 7 C-2.835 6.13375 -2.67 5.2675 -2.5 4.375 C-2 2 -2 2 0 0 Z " fill="#292829" transform="translate(210,29)"/>
<path d="M0 0 C7.81043705 -0.05089285 15.620831 -0.08581449 23.43139648 -0.10986328 C26.08609839 -0.11875946 28.74058227 -0.13352056 31.39526367 -0.15087891 C35.22056799 -0.1752576 39.04572566 -0.18651312 42.87109375 -0.1953125 C44.04957382 -0.20563507 45.22805389 -0.21595764 46.44224548 -0.22659302 C52.92435394 -0.22746693 58.7885551 0.04907055 65 2 C65.495 3.485 65.495 3.485 66 5 C65.01 4.67 64.02 4.34 63 4 C61.03245713 3.89802043 59.06170044 3.8542346 57.09155273 3.84228516 C55.2696769 3.82689194 55.2696769 3.82689194 53.41099548 3.81118774 C52.09845291 3.80388641 50.78591034 3.79658508 49.43359375 3.7890625 C48.07502935 3.77610014 46.71647284 3.76228421 45.35792542 3.74765015 C39.58805326 3.6860607 33.81820635 3.63189595 28.0480957 3.59863281 C24.51720596 3.57773071 20.98670784 3.5424717 17.45604134 3.49787521 C15.45413108 3.47677892 13.45207327 3.47165927 11.45005798 3.46670532 C10.23862625 3.45013885 9.02719452 3.43357239 7.77905273 3.41650391 C6.70888412 3.40841705 5.63871552 3.4003302 4.53611755 3.39199829 C3.69919876 3.26263885 2.86227997 3.13327942 2 3 C1.34 2.01 0.68 1.02 0 0 Z " fill="#474747" transform="translate(207,143)"/>
<path d="M0 0 C0.66 1.32 1.32 2.64 2 4 C1.67 4.33 1.34 4.66 1 5 C0.88652456 7.13522101 0.84312495 9.27418461 0.82641602 11.41235352 C0.819729 12.08239914 0.81304199 12.75244476 0.80615234 13.4427948 C0.79206775 14.9034853 0.78018465 16.36419825 0.77020454 17.82492256 C0.75381489 20.14182165 0.73057299 22.45855712 0.70530701 24.77537537 C0.63451098 31.36489702 0.5746716 37.95448933 0.52319336 44.54418945 C0.49124585 48.57196283 0.44991918 52.59955472 0.40299797 56.6271801 C0.38705731 58.15842325 0.37469945 59.68970828 0.36609077 61.22101021 C0.28189724 75.99681801 0.28189724 75.99681801 -2 83 C-2.33 83 -2.66 83 -3 83 C-2.91548337 73.21159517 -2.82055618 63.42335129 -2.71247292 53.63517666 C-2.66260544 49.0897417 -2.61627476 44.5443289 -2.578125 39.9987793 C-2.54115131 35.60905961 -2.49475901 31.21952979 -2.44193649 26.82997322 C-2.4234566 25.15834967 -2.40832519 23.48668551 -2.39665604 21.81500053 C-2.3796834 19.46688421 -2.35062307 17.11919667 -2.31884766 14.77124023 C-2.31668747 14.08575104 -2.31452728 13.40026184 -2.31230164 12.69400024 C-2.23327496 8.09901093 -1.40752832 4.32897683 0 0 Z " fill="#1C0001" transform="translate(182,62)"/>
<path d="M0 0 C1.9375 0.8125 1.9375 0.8125 4 2 C4.33 2.99 4.66 3.98 5 5 C11.36431462 5.93609937 17.57808516 6.16832076 24.00585938 6.20532227 C25.07992035 6.21522186 26.15398132 6.22512146 27.2605896 6.23532104 C30.7882878 6.26674831 34.31599943 6.29161884 37.84375 6.31640625 C40.29854673 6.33699201 42.75334004 6.35798889 45.20812988 6.37937927 C51.65243759 6.43443246 58.09677639 6.48391531 64.5411377 6.53222656 C71.12380727 6.58256427 77.70643199 6.63818615 84.2890625 6.69335938 C97.19266971 6.8007359 110.09631529 6.90240558 123 7 C123 7.33 123 7.66 123 8 C107.96193912 8.11683596 92.92391343 8.20498934 77.88549519 8.25906086 C70.9027571 8.28483539 63.92030114 8.31997088 56.93774414 8.37719727 C50.20095624 8.43238307 43.46452217 8.46141034 36.72749901 8.47438622 C34.15541148 8.48363498 31.58334025 8.50169539 29.01137733 8.52865028 C25.41258506 8.56487149 21.81500925 8.56994795 18.21606445 8.56762695 C17.14935516 8.58560333 16.08264587 8.60357971 14.98361206 8.62210083 C7.74871401 8.57150869 7.74871401 8.57150869 3.92399597 5.65202332 C2.57717299 3.79557143 1.27222951 1.90834427 0 0 Z " fill="#220000" transform="translate(106,405)"/>
<path d="M0 0 C16.65458379 -0.02333731 33.30916229 -0.04098328 49.96375847 -0.05181217 C57.6963849 -0.05697336 65.42900118 -0.06401269 73.16162109 -0.07543945 C79.89961571 -0.0853917 86.63760298 -0.09185472 93.37560475 -0.09408849 C96.94489967 -0.09539468 100.51417357 -0.09847474 104.08346176 -0.10573006 C108.06329499 -0.11375463 112.04310746 -0.11399079 116.02294922 -0.11352539 C117.80750519 -0.1189183 117.80750519 -0.1189183 119.62811279 -0.12442017 C121.24775436 -0.12235817 121.24775436 -0.12235817 122.90011597 -0.12025452 C123.8421884 -0.12117631 124.78426083 -0.1220981 125.75488091 -0.12304783 C128 0 128 0 130 1 C130 1.66 130 2.32 130 3 C128.68 3 127.36 3 126 3 C126 2.34 126 1.68 126 1 C84.42 1 42.84 1 0 1 C0 0.67 0 0.34 0 0 Z " fill="#232324" transform="translate(215,31)"/>
<path d="M0 0 C3 1 3 1 4.625 3.1875 C7.54176092 9.15360188 7.13857472 15.5495 7.11352539 22.04443359 C7.11367142 23.04017395 7.11381744 24.03591431 7.1139679 25.06182861 C7.11327333 28.34072069 7.10550227 31.61955539 7.09765625 34.8984375 C7.09579045 37.17672698 7.09436731 39.45501686 7.09336853 41.73330688 C7.08955611 47.72065342 7.0797367 53.70797558 7.06866455 59.6953125 C7.05842303 65.8085904 7.05386504 71.92187224 7.04882812 78.03515625 C7.03811329 90.02344819 7.02105217 102.01172207 7 114 C6.67 114 6.34 114 6 114 C5.98786972 112.144105 5.98786972 112.144105 5.97549438 110.25071716 C5.89796386 98.58290329 5.81020696 86.91520503 5.71247292 75.24754238 C5.66255627 69.24928024 5.61622565 63.25103531 5.578125 57.25268555 C5.54121394 51.46248068 5.49483786 45.67242147 5.44193649 39.88234138 C5.42342353 37.67482118 5.40830417 35.46726978 5.39665604 33.25970268 C5.37974075 30.16443891 5.35069248 27.06950649 5.31884766 23.97436523 C5.31668747 23.06445831 5.31452728 22.15455139 5.31230164 21.21707153 C5.21960773 14.15063506 4.47744236 8.69856301 0 3 C0 2.01 0 1.02 0 0 Z " fill="#2A2A2A" transform="translate(273,148)"/>
<path d="M0 0 C0 7.66844314 -3.25931793 12.30899687 -8 18 C-8.53882813 18.66128906 -9.07765625 19.32257813 -9.6328125 20.00390625 C-13.94670307 25.13041342 -18.67195925 29.91987104 -24 34 C-24.66 34 -25.32 34 -26 34 C-26 33.34 -26 32.68 -26 32 C-22.53846154 29 -22.53846154 29 -20 29 C-20 28.34 -20 27.68 -20 27 C-19.01 26.34 -18.02 25.68 -17 25 C-16.690625 24.030625 -16.38125 23.06125 -16.0625 22.0625 C-14.84765139 18.56087753 -13.89219743 18.10341631 -11 16 C-10.505 15.01 -10.01 14.02 -9.5 13 C-8 10 -8 10 -5.9375 8.5 C-3.26763115 6.43300476 -2.96308882 4.16443469 -2 1 C-1.34 0.67 -0.68 0.34 0 0 Z " fill="#2C0101" transform="translate(277,377)"/>
<path d="M0 0 C0.66 0.33 1.32 0.66 2 1 C1.38125 1.5775 0.7625 2.155 0.125 2.75 C-1.81347053 4.80249821 -2.90014249 6.43366582 -4 9 C-4.66 9 -5.32 9 -6 9 C-5.87625 10.85625 -5.87625 10.85625 -5.75 12.75 C-5.73839554 16.02245691 -5.82743667 16.76991555 -7.875 19.5 C-10 21 -10 21 -12 21 C-12.061875 21.5775 -12.12375 22.155 -12.1875 22.75 C-13.3224773 25.89301406 -15.37371606 26.99902176 -18 29 C-19.76323505 31.12603185 -19.76323505 31.12603185 -21 33 C-21.35532512 29.3353782 -21.41602413 27.57010714 -19.20703125 24.54296875 C-18.02173828 23.37701172 -18.02173828 23.37701172 -16.8125 22.1875 C-13.03869163 18.27128377 -10.36153398 14.58678435 -7.97265625 9.71484375 C-7 8 -7 8 -5 7 C-3.98133771 5.34467377 -2.98189187 3.67739862 -2 2 C-1.34 1.34 -0.68 0.68 0 0 Z " fill="#290101" transform="translate(204,29)"/>
<path d="M0 0 C1.65196884 0.00848969 1.65196884 0.00848969 3.33731079 0.01715088 C6.84251013 0.03947758 10.34667396 0.08966928 13.8515625 0.140625 C16.23305812 0.16069469 18.61456981 0.17894464 20.99609375 0.1953125 C26.82326785 0.23933026 32.64984118 0.30620612 38.4765625 0.390625 C38.4765625 0.720625 38.4765625 1.050625 38.4765625 1.390625 C22.3065625 1.390625 6.1365625 1.390625 -10.5234375 1.390625 C-10.5234375 2.050625 -10.5234375 2.710625 -10.5234375 3.390625 C-11.5134375 3.390625 -12.5034375 3.390625 -13.5234375 3.390625 C-13.8534375 4.380625 -14.1834375 5.370625 -14.5234375 6.390625 C-15.5134375 6.390625 -16.5034375 6.390625 -17.5234375 6.390625 C-17.8534375 7.380625 -18.1834375 8.370625 -18.5234375 9.390625 C-18.32906704 5.89195678 -17.80205355 4.64692146 -15.18896484 2.24316406 C-10.51837646 -0.67973478 -5.32910158 -0.10352673 0 0 Z " fill="#656466" transform="translate(226.5234375,31.609375)"/>
<path d="M0 0 C7.51037714 -0.06949335 15.02072096 -0.12280778 22.53134632 -0.15543652 C26.01881576 -0.17109635 29.50606532 -0.1923398 32.9934082 -0.22631836 C37.00213743 -0.2651328 41.01063548 -0.2797065 45.01953125 -0.29296875 C46.27272659 -0.30845261 47.52592194 -0.32393646 48.8170929 -0.33988953 C50.55855843 -0.34022942 50.55855843 -0.34022942 52.33520508 -0.34057617 C53.35890701 -0.34723801 54.38260895 -0.35389984 55.43733215 -0.36076355 C58 0 58 0 59.85404968 1.39628601 C61 3 61 3 61 5 C60.01 5 59.02 5 58 5 C57.505 3.515 57.505 3.515 57 2 C38.19 1.67 19.38 1.34 0 1 C0 0.67 0 0.34 0 0 Z " fill="#A8A8A8" transform="translate(209,153)"/>
<path d="M0 0 C0.66 0 1.32 0 2 0 C-1.07176255 6.74583147 -6.42954842 12.56544577 -13 16 C-13.99 15.67 -14.98 15.34 -16 15 C-15.51789063 14.69707031 -15.03578125 14.39414062 -14.5390625 14.08203125 C-10.47413244 11.38590417 -8.61205274 9.71215417 -7 5 C-4.41970421 2.58617491 -3.5934292 2 0 2 C0 1.34 0 0.68 0 0 Z " fill="#410206" transform="translate(342,279)"/>
<path d="M0 0 C0.33 0.99 0.66 1.98 1 3 C-0.29296875 5.26953125 -0.29296875 5.26953125 -2.1875 7.8125 C-2.83460938 8.69421875 -3.48171875 9.5759375 -4.1484375 10.484375 C-5.06496094 11.72960937 -5.06496094 11.72960937 -6 13 C-6.77985334 14.18159597 -7.55279528 15.36784983 -8.3125 16.5625 C-10 19 -10 19 -12 20 C-11.59422121 14.58961609 -9.57541686 10.07142845 -6 6 C-5.01 6 -4.02 6 -3 6 C-3 5.34 -3 4.68 -3 4 C-2.34 4 -1.68 4 -1 4 C-0.67 2.68 -0.34 1.36 0 0 Z " fill="#370102" transform="translate(356,259)"/>
<path d="M0 0 C0.66015625 1.78125 0.66015625 1.78125 1 4 C-1.79674921 8.96232545 -6.34643965 11.93288068 -11 15 C-12.38868516 17.10039331 -12.38868516 17.10039331 -13 19 C-13.33 17.68 -13.66 16.36 -14 15 C-12.54712339 13.66072279 -11.08752741 12.32873153 -9.625 11 C-8.81289062 10.2575 -8.00078125 9.515 -7.1640625 8.75 C-5 7 -5 7 -3 7 C-2.87625 6.401875 -2.7525 5.80375 -2.625 5.1875 C-2 3 -2 3 0 0 Z " fill="#1B0000" transform="translate(120,158)"/>
<path d="M0 0 C0.33 0.66 0.66 1.32 1 2 C-3.8327553 7.84281669 -8.96125486 13.37562491 -15 18 C-15.66 18 -16.32 18 -17 18 C-17 17.34 -17 16.68 -17 16 C-13.53846154 13 -13.53846154 13 -11 13 C-11 12.34 -11 11.68 -11 11 C-9.948125 10.1646875 -9.948125 10.1646875 -8.875 9.3125 C-5.43672242 6.54692891 -2.78272367 3.40429424 0 0 Z " fill="#4D0301" transform="translate(268,393)"/>
<path d="M0 0 C0 4.01780507 -0.80377829 5.57647792 -3 9 C-6.1957422 11.8560981 -9.55462254 14.45313561 -13 17 C-13 16.01 -13 15.02 -13 14 C-11.61452404 12.85106872 -10.22298553 11.70861049 -8.80078125 10.60546875 C-5.35197019 7.53071528 -2.73024519 3.70764066 0 0 Z " fill="#4D0405" transform="translate(120,156)"/>
<path d="M0 0 C1.9375 0.8125 1.9375 0.8125 4 2 C4.33 2.99 4.66 3.98 5 5 C6.98567708 5.1953125 8.97135417 5.390625 10.95703125 5.5859375 C13 6 13 6 16 8 C7.99670123 8.78463713 7.99670123 8.78463713 4.0625 5.6875 C2.64407617 3.83925077 1.29233853 1.9385078 0 0 Z " fill="#360100" transform="translate(106,405)"/>
<path d="M0 0 C0.66 0.33 1.32 0.66 2 1 C1.38125 1.5775 0.7625 2.155 0.125 2.75 C-1.81347053 4.80249821 -2.90014249 6.43366582 -4 9 C-4.66 9 -5.32 9 -6 9 C-6.144375 9.5775 -6.28875 10.155 -6.4375 10.75 C-6.95833333 12.83333333 -7.47916667 14.91666667 -8 17 C-8.99 17 -9.98 17 -11 17 C-7.62068966 8.31034483 -7.62068966 8.31034483 -5 7 C-3.98133771 5.34467377 -2.98189187 3.67739862 -2 2 C-1.34 1.34 -0.68 0.68 0 0 Z " fill="#480101" transform="translate(204,29)"/>
<path d="M0 0 C3.27066566 -0.08706892 6.54103365 -0.14041241 9.8125 -0.1875 C10.74126953 -0.21263672 11.67003906 -0.23777344 12.62695312 -0.26367188 C13.9659668 -0.27817383 13.9659668 -0.27817383 15.33203125 -0.29296875 C16.56530151 -0.31653442 16.56530151 -0.31653442 17.82348633 -0.34057617 C20.50456255 0.07895286 21.3869427 0.85501514 23 3 C23 3.66 23 4.32 23 5 C22.01 5 21.02 5 20 5 C19.67 4.01 19.34 3.02 19 2 C12.73 1.67 6.46 1.34 0 1 C0 0.67 0 0.34 0 0 Z " fill="#949494" transform="translate(247,153)"/>
<path d="M0 0 C0.8971875 0.309375 0.8971875 0.309375 1.8125 0.625 C0.57515016 1.66113033 -0.67794637 2.67847802 -1.9375 3.6875 C-2.98164063 4.54021484 -2.98164063 4.54021484 -4.046875 5.41015625 C-6.1875 6.625 -6.1875 6.625 -8.453125 6.30859375 C-9.02546875 6.08300781 -9.5978125 5.85742188 -10.1875 5.625 C-2.68278302 -0.45990566 -2.68278302 -0.45990566 0 0 Z " fill="#210000" transform="translate(213.1875,26.375)"/>
<path d="M0 0 C3.29164829 -0.02895225 6.58326399 -0.0467823 9.875 -0.0625 C10.81214844 -0.07087891 11.74929688 -0.07925781 12.71484375 -0.08789062 C14.05869141 -0.09272461 14.05869141 -0.09272461 15.4296875 -0.09765625 C16.67081299 -0.10551147 16.67081299 -0.10551147 17.93701172 -0.11352539 C20 0 20 0 22 1 C22 1.66 22 2.32 22 3 C20.68 3 19.36 3 18 3 C18 2.34 18 1.68 18 1 C12.06 1 6.12 1 0 1 C0 0.67 0 0.34 0 0 Z " fill="#272828" transform="translate(323,31)"/>
<path d="M0 0 C0.33 0 0.66 0 1 0 C1.3077917 3.13837611 1.27813784 4.59343628 -0.53125 7.23828125 C-1.1809375 7.92277344 -1.830625 8.60726563 -2.5 9.3125 C-3.1496875 10.00988281 -3.799375 10.70726562 -4.46875 11.42578125 C-4.9740625 11.94527344 -5.479375 12.46476562 -6 13 C-6.33 11.68 -6.66 10.36 -7 9 C-6.21625 8.443125 -5.4325 7.88625 -4.625 7.3125 C-1.91295142 4.92331435 -1.03866457 3.39926587 0 0 Z " fill="#180000" transform="translate(268,388)"/>
<path d="M0 0 C5.75 1.75 5.75 1.75 8 4 C8.125 6.625 8.125 6.625 8 9 C5 7 5 7 4 4 C2.70644173 2.62804426 1.37701298 1.28817344 0 0 Z " fill="#2A0101" transform="translate(348,29)"/>
<path d="M0 0 C3 1 3 1 4.75 3.3125 C6.14972335 6.32190521 5.95287489 6.98041673 5 10 C4.15801693 8.90241493 3.32669329 7.79664683 2.5 6.6875 C2.0359375 6.07261719 1.571875 5.45773438 1.09375 4.82421875 C0 3 0 3 0 0 Z " fill="#585858" transform="translate(273,148)"/>
<path d="M0 0 C0.66 0 1.32 0 2 0 C1.00233891 2.49415272 0.31383315 3.78740335 -1.9375 5.3125 C-4 6 -4 6 -7 5 C-3.375 2 -3.375 2 0 2 C0 1.34 0 0.68 0 0 Z " fill="#290001" transform="translate(342,279)"/>
<path d="M0 0 C0 0.33 0 0.66 0 1 C-4.32059823 2.09845718 -8.61667943 3.17812739 -13 4 C-8.74504132 -0.44836589 -5.9812469 -0.09647172 0 0 Z " fill="#460103" transform="translate(142,144)"/>
<path d="M0 0 C1.21386936 3.64160808 0.6674695 4.33165469 -0.9375 7.6875 C-1.31777344 8.49574219 -1.69804687 9.30398438 -2.08984375 10.13671875 C-2.39019531 10.75160156 -2.69054687 11.36648438 -3 12 C-3.33 12 -3.66 12 -4 12 C-4.61528766 6.92387682 -2.61658349 4.17017994 0 0 Z " fill="#4E0304" transform="translate(280,373)"/>
<path d="M0 0 C0.66 0.33 1.32 0.66 2 1 C1.67 2.32 1.34 3.64 1 5 C0.01 5 -0.98 5 -2 5 C-2.33 5.99 -2.66 6.98 -3 8 C-3.1875 5.125 -3.1875 5.125 -3 2 C-2.01 1.34 -1.02 0.68 0 0 Z " fill="#F4F4F5" transform="translate(213,36)"/>
<path d="M0 0 C0.598125 0.20625 1.19625 0.4125 1.8125 0.625 C0.8225 0.625 -0.1675 0.625 -1.1875 0.625 C-1.5175 1.615 -1.8475 2.605 -2.1875 3.625 C-3.1775 3.625 -4.1675 3.625 -5.1875 3.625 C-5.5175 4.615 -5.8475 5.605 -6.1875 6.625 C-5.875 4.25 -5.875 4.25 -5.1875 1.625 C-2.1875 -0.375 -2.1875 -0.375 0 0 Z " fill="#86868B" transform="translate(214.1875,34.375)"/>
</svg>
